<svg width="950" height="385" viewBox="0 0 950 385" fill="none" xmlns="http://www.w3.org/2000/svg">
<path d="M319.101 354.253C322.494 352.881 324.135 349.013 322.766 345.613C321.398 342.212 317.537 340.568 314.144 341.939C310.751 343.311 309.11 347.179 310.478 350.58C311.847 353.98 315.708 355.625 319.101 354.253Z" fill="#FF5C33"/>
<path d="M10.2856 76.227C10.88 73.6786 9.30036 71.1299 6.75729 70.5342C4.21422 69.9385 1.67076 71.5215 1.07632 74.0699C0.481887 76.6182 2.06157 79.167 4.60464 79.7626C7.14772 80.3583 9.69117 78.7753 10.2856 76.227Z" fill="#007BFF"/>
<path d="M887.453 345.433L881.428 339.396L875.403 345.433L881.428 351.471L887.453 345.433Z" fill="#BCD5FF"/>
<path d="M692.672 51.0377L686.646 45L680.621 51.0377L686.646 57.0754L692.672 51.0377Z" fill="#BCD5FF"/>
<path d="M503.797 270.872L502.844 270.485C522.064 221.199 572.38 186.149 625.222 185.221C639.366 184.989 653.614 187.001 667.371 188.961C673.735 189.863 680.331 190.818 686.823 191.514C703.003 193.268 726.886 194.454 747.265 184.628C767.49 174.905 780.114 154.917 777.975 136.012L779.006 135.909C781.196 155.226 768.314 175.653 747.729 185.582C727.118 195.512 703.029 194.325 686.72 192.546C680.202 191.849 673.606 190.895 667.217 189.992C653.485 188.032 639.289 186.021 625.222 186.253C572.793 187.181 522.862 221.973 503.797 270.872Z" fill="white"/>
<path d="M900.865 254.677L899.972 254.188C907.088 241.209 914.459 227.793 916.856 212.861C918.922 199.984 916.754 182.508 904.461 172.124C895.151 164.26 882.475 162.409 870.207 160.636L867.58 160.25C854.598 158.323 840.213 154.904 832.153 144.084L832.969 143.467C840.8 153.979 854.93 157.32 867.708 159.222L870.335 159.608C882.73 161.407 895.559 163.257 905.098 171.327C917.724 181.968 919.943 199.83 917.826 213.015C915.454 228.127 908.032 241.62 900.865 254.677Z" fill="white"/>
<path d="M441.294 302.183C433.897 302.183 425.804 300.969 418.097 297.328C405.39 291.335 396.679 279.428 395.88 267.004C395.519 261.322 396.73 255.665 397.916 250.164C398.122 249.182 398.328 248.201 398.534 247.219C399.849 240.865 400.777 234.098 398.869 227.847C397.761 228.932 396.575 229.939 395.312 230.869C391.24 233.814 385.647 235.131 381.368 234.15C378.611 233.504 376.497 231.954 375.286 229.655C373.894 227.047 374.074 223.895 375.801 220.977C377.837 217.541 381.497 215.269 385.132 215.243C385.183 215.243 385.209 215.243 385.26 215.243C391.73 215.243 396.962 220.383 399.282 225.91C403.895 220.77 406.808 214.003 407.143 207.132C407.607 198.221 403.741 189.026 397.117 183.111L397.813 182.336C404.797 188.561 408.664 197.86 408.2 207.184C407.813 214.571 404.746 221.648 399.72 227.021C399.771 227.176 399.823 227.331 399.875 227.486C401.885 233.969 400.931 240.891 399.591 247.4C399.385 248.381 399.179 249.363 398.972 250.37C397.813 255.769 396.601 261.373 396.962 266.927C397.735 278.989 406.215 290.56 418.587 296.398C431.861 302.674 446.423 301.589 456.295 299.575C468.976 296.992 481.038 291.697 492.714 286.583L493.127 287.538C481.425 292.678 469.311 297.999 456.501 300.608C452.119 301.486 446.913 302.183 441.294 302.183ZM385.26 216.302C385.209 216.302 385.183 216.302 385.132 216.302C381.858 216.328 378.533 218.394 376.678 221.519C375.157 224.102 374.976 226.892 376.188 229.165C377.27 231.179 379.152 232.574 381.6 233.142C385.595 234.072 390.853 232.806 394.694 230.043C396.034 229.061 397.297 227.976 398.483 226.762C396.421 221.39 391.421 216.302 385.26 216.302Z" fill="white"/>
<path d="M440.137 276.174L440.677 280.63L493.938 308.887L545.193 301.623L583.186 250.312L580.615 246.165L524.064 282.459L440.137 276.174Z" fill="#BCD5FF"/>
<path d="M541.62 256.365L540.078 257.937L494.657 303.71L493.629 304.74L440.162 276.174L485.943 229.19L538.921 255.052L541.62 256.365Z" fill="white"/>
<path d="M541.62 256.365L580.615 246.165L542.983 297.013L493.629 304.74L541.62 256.365Z" fill="#E2EDFF"/>
<path d="M575.037 249.926L541.723 294.926L500.004 301.469L542.751 258.375L575.037 249.926ZM580.615 246.165L541.62 256.365L493.629 304.74L542.983 297.013L580.615 246.165Z" fill="white"/>
<path d="M370.53 80.6731C361.867 88.2719 338.219 80.5443 321.047 72.7652L302 51.978C325.289 58.6752 348.629 61.3541 362.998 49.1445L370.53 80.6731Z" fill="white"/>
<path d="M317.483 58.846L316.637 59.5586L322.525 66.5791L323.371 65.8665L317.483 58.846Z" fill="#BCD5FF"/>
<path d="M328.049 59.8164L327.11 60.4019L333.334 70.4168L334.272 69.8313L328.049 59.8164Z" fill="#BCD5FF"/>
<path d="M355.399 58.7765L354.33 59.0581L358.682 75.6507L359.751 75.3692L355.399 58.7765Z" fill="#BCD5FF"/>
<path d="M900.489 305.435C900.181 305.435 899.898 305.435 899.59 305.409L899.641 304.301C900.721 304.353 901.826 304.301 902.906 304.198L903.034 305.306C902.186 305.383 901.338 305.435 900.489 305.435ZM896.197 305.023C895.066 304.816 893.96 304.507 892.881 304.147L893.241 303.091C894.269 303.451 895.323 303.735 896.402 303.915L896.197 305.023ZM906.402 304.688L906.119 303.606C907.173 303.322 908.201 302.988 909.203 302.55L909.641 303.58C908.587 304.018 907.481 304.379 906.402 304.688ZM889.719 302.807C888.716 302.292 887.714 301.674 886.789 301.004L887.431 300.103C888.305 300.747 889.256 301.313 890.207 301.803L889.719 302.807ZM912.674 302.009L912.083 301.056C913.008 300.489 913.908 299.845 914.73 299.15L915.45 300C914.576 300.747 913.651 301.416 912.674 302.009ZM884.192 298.815C883.37 298.016 882.599 297.166 881.905 296.265L882.779 295.595C883.447 296.445 884.167 297.269 884.938 298.042L884.192 298.815ZM917.943 297.63L917.121 296.883C917.84 296.059 918.509 295.209 919.126 294.307L920.051 294.925C919.409 295.878 918.689 296.78 917.943 297.63ZM880.028 293.38C879.463 292.375 878.974 291.345 878.589 290.263L879.642 289.876C880.028 290.881 880.491 291.886 881.031 292.839L880.028 293.38ZM921.722 291.911L920.719 291.422C921.182 290.443 921.568 289.413 921.876 288.357L922.956 288.692C922.622 289.799 922.21 290.881 921.722 291.911ZM877.586 286.966C877.355 285.858 877.175 284.699 877.098 283.566L878.203 283.488C878.28 284.57 878.434 285.652 878.666 286.734L877.586 286.966ZM923.676 285.369L922.57 285.214C922.724 284.132 922.802 283.05 922.802 281.943C922.802 280.912 922.724 279.856 922.596 278.826L923.701 278.671C923.856 279.753 923.933 280.835 923.933 281.943C923.933 283.076 923.856 284.235 923.676 285.369ZM878.229 280.243L877.123 280.165C877.2 279.032 877.38 277.873 877.637 276.765L878.717 277.023C878.486 278.053 878.306 279.135 878.229 280.243ZM921.928 275.632C921.619 274.576 921.234 273.545 920.771 272.567L921.773 272.103C922.262 273.133 922.647 274.215 922.982 275.323L921.928 275.632ZM879.668 273.88L878.64 273.468C879.051 272.412 879.54 271.356 880.105 270.377L881.082 270.918C880.542 271.845 880.054 272.85 879.668 273.88ZM919.203 269.707C918.612 268.806 917.943 267.93 917.224 267.106L918.072 266.359C918.817 267.209 919.537 268.136 920.154 269.089L919.203 269.707ZM882.881 268.188L882.007 267.492C882.701 266.591 883.473 265.741 884.295 264.942L885.066 265.741C884.295 266.513 883.55 267.338 882.881 268.188ZM914.884 264.839C914.062 264.144 913.162 263.5 912.237 262.907L912.828 261.954C913.805 262.547 914.73 263.242 915.604 263.963L914.884 264.839ZM887.585 263.68L886.943 262.778C887.868 262.109 888.845 261.516 889.873 261.001L890.387 262.006C889.41 262.495 888.485 263.062 887.585 263.68ZM909.358 261.387C908.355 260.949 907.327 260.589 906.273 260.306L906.556 259.224C907.661 259.507 908.741 259.893 909.795 260.357L909.358 261.387ZM893.395 260.718L893.035 259.662C894.115 259.301 895.246 259.018 896.351 258.812L896.557 259.919C895.477 260.099 894.423 260.383 893.395 260.718ZM903.06 259.713C901.98 259.584 900.875 259.533 899.795 259.584L899.77 258.477C900.901 258.451 902.057 258.502 903.188 258.631L903.06 259.713Z" fill="url(#paint0_linear)"/>
<path d="M922.36 276.051C932.288 266.102 932.288 249.972 922.36 240.023C912.432 230.075 896.336 230.075 886.408 240.024C876.48 249.972 876.48 266.102 886.408 276.051C896.336 285.999 912.432 285.999 922.36 276.051Z" fill="white"/>
<path d="M904.422 284.055C896.89 284.055 889.436 280.81 884.295 274.525C875.221 263.423 876.866 246.989 887.945 237.896C899.024 228.803 915.424 230.452 924.498 241.554C933.572 252.656 931.927 269.09 920.848 278.183C916.015 282.124 910.206 284.055 904.422 284.055ZM904.345 233.131C898.638 233.131 893.138 235.088 888.639 238.772C878.023 247.478 876.481 263.191 885.143 273.829C893.832 284.468 909.512 286.013 920.128 277.332C930.744 268.626 932.286 252.913 923.624 242.275C919.408 237.123 913.47 233.929 906.864 233.259C906.016 233.182 905.168 233.131 904.345 233.131Z" fill="url(#paint1_linear)"/>
<path d="M915.81 261.466L903.549 258.503L909.512 241.837L910.721 242.25L905.22 257.602L916.119 260.255L915.81 261.466Z" fill="url(#paint2_linear)"/>
<path d="M671.2 191.197C673.899 181.898 668.321 172.136 658.758 169.869C650.687 167.963 642.23 172.368 639.171 180.069C637.629 183.985 637.603 188.029 638.785 191.661C640.148 195.808 640.379 200.213 639.171 204.411L637.089 211.547L656.471 217.214L658.553 210.053C659.761 205.931 662.254 202.325 665.596 199.62C668.192 197.534 670.197 194.649 671.2 191.197Z" fill="url(#paint3_linear)"/>
<path d="M655.102 221.825L635.756 216.17L633.597 223.589L652.943 229.243L655.102 221.825Z" fill="url(#paint4_linear)"/>
<path d="M650.25 215.643L649.196 215.205L659.272 191.198C658.45 191.223 657.602 191.017 656.882 190.554C655.956 189.935 655.339 188.982 655.185 187.926C655.16 187.772 655.031 187.72 654.98 187.694C654.928 187.669 654.774 187.643 654.671 187.746L654.388 188.029C653.617 188.776 652.538 189.163 651.432 189.06C650.687 189.008 649.967 188.751 649.376 188.313L645.006 213.968L643.875 213.762L648.656 185.737L649.453 186.793C649.941 187.437 650.687 187.849 651.509 187.901C652.306 187.952 653.052 187.694 653.592 187.179L653.874 186.896C654.26 186.51 654.825 186.407 655.365 186.587C655.879 186.767 656.265 187.205 656.342 187.746C656.445 188.467 656.882 189.137 657.524 189.549C658.218 190.013 659.067 190.142 659.864 189.91L661.226 189.523L650.25 215.643Z" fill="white"/>
<path d="M641.652 148.113L640.146 148.839L647.406 163.948L648.911 163.221L641.652 148.113Z" fill="url(#paint5_linear)"/>
<path d="M687.451 160.01L674.751 169.314L675.737 170.666L688.437 161.362L687.451 160.01Z" fill="url(#paint6_linear)"/>
<path d="M668.305 139.301L662.17 162.508L663.785 162.937L669.92 139.73L668.305 139.301Z" fill="url(#paint7_linear)"/>
<path d="M441.705 180.299L427.902 170.82C430.318 158.276 424.277 145.165 412.299 139.24C397.93 132.131 380.527 138.029 373.433 152.403C366.338 166.802 372.224 184.24 386.568 191.35C400.911 198.459 418.314 192.586 425.434 178.213L441.705 180.299Z" fill="white"/>
<path d="M399.368 194.931C394.973 194.931 390.5 193.952 386.31 191.866C371.684 184.602 365.695 166.803 372.918 152.146C380.141 137.489 397.929 131.462 412.555 138.726C424.328 144.573 430.857 157.607 428.518 170.563L443.941 181.176L425.742 178.832C420.524 189.007 410.139 194.931 399.368 194.931ZM399.471 136.768C388.984 136.768 378.881 142.589 373.92 152.635C366.954 166.725 372.738 183.881 386.824 190.835C400.859 197.79 417.953 192.02 424.945 177.956L425.125 177.595L439.52 179.45L427.31 171.053L427.387 170.692C429.829 158.122 423.531 145.397 412.092 139.704C408.005 137.721 403.713 136.768 399.471 136.768Z" fill="url(#paint8_linear)"/>
<path d="M384.074 168.786C386.005 168.786 387.57 167.217 387.57 165.282C387.57 163.348 386.005 161.779 384.074 161.779C382.143 161.779 380.578 163.348 380.578 165.282C380.578 167.217 382.143 168.786 384.074 168.786Z" fill="url(#paint9_linear)"/>
<path d="M398.854 168.786C400.785 168.786 402.35 167.217 402.35 165.282C402.35 163.348 400.785 161.779 398.854 161.779C396.924 161.779 395.358 163.348 395.358 165.282C395.358 167.217 396.924 168.786 398.854 168.786Z" fill="url(#paint10_linear)"/>
<path d="M413.661 168.786C415.592 168.786 417.157 167.217 417.157 165.282C417.157 163.348 415.592 161.779 413.661 161.779C411.73 161.779 410.165 163.348 410.165 165.282C410.165 167.217 411.73 168.786 413.661 168.786Z" fill="url(#paint11_linear)"/>
<g clip-path="url(#clip0)">
<path d="M504.052 93.3386C509.91 87.5893 522.97 85.8768 532.734 89.7912C540.545 92.9717 543.474 99.6996 539.324 104.593C536.883 107.406 532.856 109.241 528.34 110.22C526.143 110.709 525.899 112.421 527.974 113.033L567.274 126.489L590.585 103.492C592.05 102.024 595.955 102.268 596.932 103.859C598.396 106.55 601.692 108.874 606.33 110.22C615.117 112.911 626.102 111.198 631.35 106.305C637.086 101.045 634.157 93.9503 624.759 90.7698C620.61 89.3019 615.85 88.9349 611.456 89.4242C608.527 89.7912 606.33 87.834 607.794 86.3661L631.228 63.7358L530.171 28.9952C525.777 27.5273 520.04 28.2613 517.477 30.8301L458.161 89.1796L497.583 102.758C499.536 103.492 501.977 102.513 501.611 101.167C500.879 98.4763 501.611 95.7852 504.052 93.3386Z" fill="url(#paint12_linear)"/>
<path d="M611.578 89.6689C615.972 89.1796 620.732 89.6689 624.882 91.0145C626.59 91.6261 628.055 92.3601 629.275 93.094L631.228 91.1368V63.7358L607.917 86.7331C606.33 88.0787 608.649 90.0359 611.578 89.6689Z" fill="url(#paint13_linear)"/>
<path d="M634.157 101.902C633.791 103.492 632.937 105.082 631.35 106.55C626.102 111.443 615.117 113.156 606.33 110.465C601.692 108.997 598.396 106.672 596.932 104.104C595.955 102.513 592.172 102.269 590.585 103.737L567.274 126.734L527.974 113.278C526.021 112.544 526.265 110.831 528.34 110.465C532.978 109.486 537.005 107.529 539.324 104.838C543.596 99.9445 540.545 93.2166 532.734 90.0361C523.092 86.1217 509.91 87.8342 504.052 93.5835C501.611 96.0301 500.879 98.7212 501.611 101.29C501.977 102.636 499.536 103.492 497.583 102.88L458.161 89.1798V116.703L497.583 130.281C499.536 131.015 501.977 130.037 501.611 128.691C500.879 126.122 501.611 123.431 504.052 120.985C508.69 116.336 518.088 114.379 526.509 115.725V138.966C526.265 139.578 526.631 140.312 527.73 140.679L567.03 154.135L590.341 131.138C591.806 129.67 595.711 129.914 596.688 131.505C598.152 134.196 601.448 136.52 606.086 137.866C614.873 140.557 625.858 138.844 631.106 133.951C633.547 131.749 634.401 129.18 633.913 126.734V101.902H634.157Z" fill="url(#paint14_linear)"/>
<path d="M594.124 130.159V102.635C592.782 102.513 591.439 102.88 590.585 103.614L567.273 126.611V154.135L590.585 131.137C591.317 130.403 592.782 130.159 594.124 130.159Z" fill="url(#paint15_linear)"/>
<path d="M527.852 113.033C525.899 112.299 526.143 110.586 528.218 110.219C532.856 109.241 536.883 107.284 539.202 104.592C543.474 99.6994 540.423 92.9715 532.612 89.791C522.97 85.8766 509.788 87.5891 503.93 93.3384C501.489 95.7849 500.757 98.4761 501.489 101.045C501.855 102.391 499.414 103.247 497.461 102.635L458.161 89.1794V116.703L497.583 130.281C499.536 131.015 501.977 130.036 501.611 128.691C500.879 126.122 501.611 123.431 504.052 120.984C508.69 116.336 518.088 114.378 526.509 115.724V138.966C526.265 139.578 526.631 140.312 527.73 140.679L567.03 154.134V126.611L527.852 113.033Z" fill="url(#paint16_linear)"/>
<path d="M634.157 126.856V101.901C633.791 103.492 632.937 105.082 631.35 106.55C626.102 111.443 615.117 113.155 606.33 110.464C601.692 108.996 598.396 106.672 596.932 104.103C596.2 102.88 594.003 102.513 592.294 102.88C592.904 102.758 593.514 102.635 594.125 102.758V130.281C595.345 130.403 596.444 130.893 596.932 131.627C598.396 134.318 601.692 136.642 606.33 137.988C615.117 140.679 626.102 138.966 631.35 134.073C633.791 131.871 634.645 129.302 634.157 126.856Z" fill="url(#paint17_linear)"/>
<path d="M591.317 103.125C591.073 103.247 590.829 103.369 590.585 103.614C590.829 103.491 590.951 103.247 591.317 103.125Z" fill="url(#paint18_linear)"/>
<path d="M592.172 102.88C591.928 103.002 591.684 103.002 591.439 103.125C591.684 103.002 591.928 102.88 592.172 102.88Z" fill="url(#paint19_linear)"/>
<path d="M494.654 101.656L458.161 89.1792L494.654 101.656Z" fill="url(#paint20_linear)"/>
<path d="M497.584 130.158L494.776 129.18L497.584 130.158C497.828 130.281 498.072 130.281 498.316 130.281C498.072 130.403 497.828 130.281 497.584 130.158Z" fill="url(#paint21_linear)"/>
<path d="M526.509 111.932C526.265 111.198 526.875 110.464 528.218 110.219C532.856 109.241 536.884 107.284 539.202 104.592C543.474 99.6994 540.423 92.9715 532.612 89.791C522.97 85.8766 509.788 87.5891 503.93 93.3384C501.489 95.785 500.757 98.4761 501.489 101.045C501.611 101.657 501.123 102.268 500.391 102.513V130.036C500.635 129.914 501.733 129.302 501.489 128.568C500.757 125.999 501.489 123.308 503.93 120.862C508.568 116.336 517.844 114.256 526.387 115.602V111.932H526.509Z" fill="url(#paint22_linear)"/>
<path d="M607.794 87.3447L631.228 64.2251L629.885 63.7358L607.916 85.2652C607.184 86.1215 607.306 86.8554 607.794 87.3447Z" fill="url(#paint23_radial)"/>
<path d="M710.94 310.904C701.483 311.366 697.415 304.672 702.478 296.121C706.473 289.287 716.599 282.696 724.636 281.844C729.147 281.39 732.559 282.38 734.504 284.472C735.443 285.467 738.129 284.448 738.924 282.762L755.675 249.671L717.916 251.622C715.509 251.729 715.397 249.32 717.887 247.553C721.809 244.854 725.131 241.233 726.828 237.354C730.014 230.171 726.205 224.768 718.207 225.011C709.498 225.279 698.998 231.967 694.958 239.851C693.163 243.356 693.031 246.507 694.228 248.793C694.958 250.362 692.393 252.907 689.884 253.08L652.125 255.031L608.988 340.186C607.054 343.926 609.026 346.73 613.127 346.542L709.187 341.532L726.04 308.374C726.836 306.688 725.149 305.888 723.242 306.984C719.155 309.206 714.872 310.68 710.94 310.904Z" fill="url(#paint24_linear)"/>
<path d="M726.83 237.354C725.133 241.233 721.914 244.787 717.89 247.553C715.502 249.253 715.512 251.728 717.918 251.622L740.865 250.407L727.312 229.596C728.207 231.641 728.079 234.352 726.83 237.354Z" fill="url(#paint25_linear)"/>
<path d="M738.925 282.76C738.129 284.446 735.341 285.531 734.504 284.47C732.559 282.378 729.249 281.321 724.637 281.842C716.702 282.627 706.576 289.218 702.478 296.119C697.415 304.669 701.484 311.364 710.94 310.901C714.872 310.678 719.222 309.306 723.14 307.048C724.331 306.418 725.484 306.398 725.986 306.947C725.986 306.947 725.986 306.947 726.053 307.049L727.722 309.612C731.676 307.185 735.927 305.44 739.726 305.011C744.236 304.557 747.648 305.547 749.593 307.639C750.532 308.634 753.218 307.615 754.014 305.929L770.04 274.185L771.031 273.248L755.675 249.669L738.925 282.76Z" fill="url(#paint26_linear)"/>
<path d="M613.125 346.541C611.057 346.719 609.606 346.057 608.872 344.93L623.56 367.484C624.224 368.949 625.807 369.816 628.147 369.607L724.036 364.561L709.081 341.597L613.125 346.541Z" fill="url(#paint27_linear)"/>
<path d="M725.869 308.336L709.185 341.529L724.207 364.595L741.06 331.438C741.335 330.967 741.34 330.526 741.139 330.218L741.073 330.116C741.073 330.116 741.073 330.116 741.006 330.013L727.653 309.51L725.984 306.947C726.184 307.255 726.18 307.695 725.869 308.336Z" fill="url(#paint28_linear)"/>
<path d="M725.869 308.336L709.185 341.529L724.207 364.595L741.06 331.438C741.335 330.967 741.34 330.526 741.139 330.218L741.073 330.116C741.073 330.116 741.073 330.116 741.006 330.013L727.653 309.51L725.984 306.947C726.184 307.255 726.18 307.695 725.869 308.336Z" fill="url(#paint29_linear)"/>
<path d="M795.982 98.7923C804.86 102.081 805.971 109.835 797.956 115.71C791.596 120.425 779.694 122.509 771.968 120.136C767.642 118.782 764.893 116.531 763.927 113.844C763.454 112.56 760.583 112.442 759.189 113.68L730.782 137.531L766.273 150.567C768.528 151.415 767.685 153.673 764.7 154.32C760.033 155.262 755.556 157.287 752.471 160.187C746.718 165.541 748.099 172.006 755.549 174.924C763.663 178.099 775.947 176.072 782.76 170.408C785.788 167.891 787.148 165.045 786.945 162.472C786.89 160.743 790.249 159.41 792.625 160.236L828.116 173.272L901.246 111.907C904.494 109.227 903.782 105.874 899.937 104.436L809.629 71.3155L781.102 95.188C779.708 96.4257 780.944 97.8238 783.129 97.5654C787.619 97.0276 792.137 97.3543 795.982 98.7923Z" fill="url(#paint30_linear)"/>
<path d="M795.982 98.7923C804.86 102.081 805.971 109.835 797.956 115.71C791.596 120.425 779.694 122.509 771.968 120.136C767.642 118.782 764.893 116.531 763.927 113.844C763.454 112.56 760.583 112.442 759.189 113.68L730.782 137.531L766.273 150.567C768.528 151.415 767.685 153.673 764.7 154.32C760.033 155.262 755.556 157.287 752.471 160.187C746.718 165.541 748.099 172.006 755.549 174.924C763.663 178.099 775.947 176.072 782.76 170.408C785.788 167.891 787.148 165.045 786.945 162.472C786.89 160.743 790.249 159.41 792.625 160.236L828.116 173.272L901.246 111.907C904.494 109.227 903.782 105.874 899.937 104.436L809.629 71.3155L781.102 95.188C779.708 96.4257 780.944 97.8238 783.129 97.5654C787.619 97.0276 792.137 97.3543 795.982 98.7923Z" fill="url(#paint31_linear)"/>
<path d="M797.956 115.711C805.971 109.837 804.86 102.083 795.982 98.7939C792.279 97.4554 787.74 97.0082 783.249 97.546C781.786 97.6781 780.839 97.2229 780.592 96.521L784.815 120.62C789.645 119.899 794.546 118.171 797.956 115.711Z" fill="url(#paint32_linear)"/>
<path d="M907.822 134.598L903.071 107.486C903.324 108.932 902.715 110.405 901.102 111.805L827.975 173.168L832.727 200.28L905.853 138.917C907.587 137.496 908.196 136.023 907.822 134.598Z" fill="url(#paint33_linear)"/>
<path d="M907.822 134.598L903.071 107.486C903.324 108.932 902.715 110.405 901.102 111.805L827.975 173.168L832.727 200.28L905.853 138.917C907.587 137.496 908.196 136.023 907.822 134.598Z" fill="url(#paint34_linear)"/>
<path d="M752.469 160.188C755.554 157.289 759.911 155.284 764.698 154.321C767.562 153.696 768.526 151.416 766.271 150.569L730.78 137.533L735.531 164.644L749.301 169.685L749.421 169.664C748.15 166.657 749.164 163.251 752.469 160.188Z" fill="url(#paint35_linear)"/>
<path d="M792.481 160.134C791.293 159.721 789.95 159.832 788.79 160.284L793.541 187.395C794.701 186.944 796.044 186.833 797.232 187.246L832.722 200.281L827.971 173.17L792.481 160.134Z" fill="url(#paint36_linear)"/>
<path d="M786.941 162.472C787.144 165.044 785.784 167.89 782.756 170.408C776.063 176.05 763.78 178.077 755.545 174.924C752.365 173.742 750.422 171.846 749.54 169.641L749.419 169.662L753.811 194.725C754.078 197.659 756.289 200.377 760.395 201.894C768.51 205.068 780.793 203.042 787.606 197.378C790.635 194.86 791.994 192.014 791.791 189.442C791.764 188.577 792.62 187.806 793.78 187.355L789.029 160.243C787.628 160.737 786.772 161.508 786.941 162.472Z" fill="url(#paint37_linear)"/>
<path d="M786.941 162.472C787.144 165.044 785.784 167.89 782.756 170.408C776.063 176.05 763.78 178.077 755.545 174.924C752.365 173.742 750.422 171.846 749.54 169.641L749.419 169.662L753.811 194.725C754.078 197.659 756.289 200.377 760.395 201.894C768.51 205.068 780.793 203.042 787.606 197.378C790.635 194.86 791.994 192.014 791.791 189.442C791.764 188.577 792.62 187.806 793.78 187.355L789.029 160.243C787.628 160.737 786.772 161.508 786.941 162.472Z" fill="url(#paint38_linear)"/>
</g>
<defs>
<linearGradient id="paint0_linear" x1="883.837" y1="266.537" x2="919.813" y2="271.287" gradientUnits="userSpaceOnUse">
<stop stop-color="#EA3AB9"/>
<stop offset="1" stop-color="#B961FF"/>
</linearGradient>
<linearGradient id="paint1_linear" x1="885.904" y1="240.959" x2="925.791" y2="246.229" gradientUnits="userSpaceOnUse">
<stop stop-color="#EA3AB9"/>
<stop offset="1" stop-color="#B961FF"/>
</linearGradient>
<linearGradient id="paint2_linear" x1="905.357" y1="245.209" x2="915.111" y2="246.036" gradientUnits="userSpaceOnUse">
<stop stop-color="#EA3AB9"/>
<stop offset="1" stop-color="#B961FF"/>
</linearGradient>
<linearGradient id="paint3_linear" x1="642.095" y1="177.634" x2="669.035" y2="180.231" gradientUnits="userSpaceOnUse">
<stop stop-color="#EA3AB9"/>
<stop offset="1" stop-color="#B961FF"/>
</linearGradient>
<linearGradient id="paint4_linear" x1="638.169" y1="218.258" x2="650.326" y2="226.863" gradientUnits="userSpaceOnUse">
<stop stop-color="#EA3AB9"/>
<stop offset="1" stop-color="#B961FF"/>
</linearGradient>
<linearGradient id="paint5_linear" x1="641.61" y1="151.329" x2="642.795" y2="150.779" gradientUnits="userSpaceOnUse">
<stop stop-color="#EA3AB9"/>
<stop offset="1" stop-color="#B961FF"/>
</linearGradient>
<linearGradient id="paint6_linear" x1="676.748" y1="168.208" x2="684.178" y2="170.208" gradientUnits="userSpaceOnUse">
<stop stop-color="#EA3AB9"/>
<stop offset="1" stop-color="#B961FF"/>
</linearGradient>
<linearGradient id="paint7_linear" x1="663.33" y1="159.243" x2="671.837" y2="157.292" gradientUnits="userSpaceOnUse">
<stop stop-color="#EA3AB9"/>
<stop offset="1" stop-color="#B961FF"/>
</linearGradient>
<linearGradient id="paint8_linear" x1="380.515" y1="145.828" x2="436.873" y2="155.153" gradientUnits="userSpaceOnUse">
<stop stop-color="#EA3AB9"/>
<stop offset="1" stop-color="#B961FF"/>
</linearGradient>
<linearGradient id="paint9_linear" x1="381.584" y1="162.983" x2="386.955" y2="163.692" gradientUnits="userSpaceOnUse">
<stop stop-color="#EA3AB9"/>
<stop offset="1" stop-color="#B961FF"/>
</linearGradient>
<linearGradient id="paint10_linear" x1="396.364" y1="162.983" x2="401.735" y2="163.692" gradientUnits="userSpaceOnUse">
<stop stop-color="#EA3AB9"/>
<stop offset="1" stop-color="#B961FF"/>
</linearGradient>
<linearGradient id="paint11_linear" x1="411.171" y1="162.983" x2="416.542" y2="163.692" gradientUnits="userSpaceOnUse">
<stop stop-color="#EA3AB9"/>
<stop offset="1" stop-color="#B961FF"/>
</linearGradient>
<linearGradient id="paint12_linear" x1="651.786" y1="-105.876" x2="539.549" y2="107.542" gradientUnits="userSpaceOnUse">
<stop offset="0.0353535" stop-color="#6B24D6"/>
<stop offset="0.2945" stop-color="#7733DC"/>
<stop offset="0.7943" stop-color="#975CED"/>
<stop offset="1" stop-color="#A56EF4"/>
</linearGradient>
<linearGradient id="paint13_linear" x1="574.688" y1="108.558" x2="763.652" y2="6.56918" gradientUnits="userSpaceOnUse">
<stop offset="0.0353535" stop-color="#6B24D6"/>
<stop offset="0.2945" stop-color="#7733DC"/>
<stop offset="0.7943" stop-color="#975CED"/>
<stop offset="1" stop-color="#A56EF4"/>
</linearGradient>
<linearGradient id="paint14_linear" x1="562.577" y1="129.569" x2="641.611" y2="226.622" gradientUnits="userSpaceOnUse">
<stop offset="0.0353535" stop-color="#6B24D6"/>
<stop offset="0.2945" stop-color="#7733DC"/>
<stop offset="0.7943" stop-color="#975CED"/>
<stop offset="1" stop-color="#A56EF4"/>
</linearGradient>
<linearGradient id="paint15_linear" x1="584.105" y1="126.008" x2="773.069" y2="24.0189" gradientUnits="userSpaceOnUse">
<stop offset="0.0353535" stop-color="#6B24D6"/>
<stop offset="0.2945" stop-color="#7733DC"/>
<stop offset="0.7943" stop-color="#975CED"/>
<stop offset="1" stop-color="#A56EF4"/>
</linearGradient>
<linearGradient id="paint16_linear" x1="349.68" y1="158.263" x2="683.004" y2="83.7108" gradientUnits="userSpaceOnUse">
<stop offset="0.0353535" stop-color="#6B24D6"/>
<stop offset="0.2945" stop-color="#7733DC"/>
<stop offset="0.7943" stop-color="#975CED"/>
<stop offset="1" stop-color="#A56EF4"/>
</linearGradient>
<linearGradient id="paint17_linear" x1="593.795" y1="120.586" x2="634.481" y2="120.586" gradientUnits="userSpaceOnUse">
<stop stop-color="#6B24D6"/>
<stop offset="0.067058" stop-color="#712DD9"/>
<stop offset="0.1616" stop-color="#7734DC"/>
<stop offset="0.3232" stop-color="#8C4FE7"/>
<stop offset="0.4848" stop-color="#A56EF4"/>
<stop offset="0.8737" stop-color="#6B24D6"/>
</linearGradient>
<linearGradient id="paint18_linear" x1="590.93" y1="103.413" x2="590.968" y2="103.459" gradientUnits="userSpaceOnUse">
<stop offset="0.0353535" stop-color="#6B24D6"/>
<stop offset="0.2945" stop-color="#7733DC"/>
<stop offset="0.7943" stop-color="#975CED"/>
<stop offset="1" stop-color="#A56EF4"/>
</linearGradient>
<linearGradient id="paint19_linear" x1="591.807" y1="103.006" x2="591.94" y2="103.169" gradientUnits="userSpaceOnUse">
<stop offset="0.0353535" stop-color="#6B24D6"/>
<stop offset="0.2945" stop-color="#7733DC"/>
<stop offset="0.7943" stop-color="#975CED"/>
<stop offset="1" stop-color="#A56EF4"/>
</linearGradient>
<linearGradient id="paint20_linear" x1="424.961" y1="106.991" x2="530.179" y2="83.4573" gradientUnits="userSpaceOnUse">
<stop offset="0.0353535" stop-color="#6B24D6"/>
<stop offset="0.2945" stop-color="#7733DC"/>
<stop offset="0.7943" stop-color="#975CED"/>
<stop offset="1" stop-color="#A56EF4"/>
</linearGradient>
<linearGradient id="paint21_linear" x1="491.359" y1="130.959" x2="501.876" y2="128.607" gradientUnits="userSpaceOnUse">
<stop offset="0.0353535" stop-color="#6B24D6"/>
<stop offset="0.2945" stop-color="#7733DC"/>
<stop offset="0.7943" stop-color="#975CED"/>
<stop offset="1" stop-color="#A56EF4"/>
</linearGradient>
<linearGradient id="paint22_linear" x1="502.97" y1="108.914" x2="539.936" y2="108.914" gradientUnits="userSpaceOnUse">
<stop stop-color="#7C3ADF"/>
<stop offset="0.0416721" stop-color="#7733DC"/>
<stop offset="0.1437" stop-color="#6E28D8"/>
<stop offset="0.2525" stop-color="#6B24D6"/>
<stop offset="0.5556" stop-color="#9A60EE"/>
<stop offset="0.9747" stop-color="#7734DC"/>
</linearGradient>
<radialGradient id="paint23_radial" cx="0" cy="0" r="1" gradientUnits="userSpaceOnUse" gradientTransform="translate(625.216 76.4242) scale(11.8312 11.8579)">
<stop stop-color="white"/>
<stop offset="0.0656227" stop-color="#D8D8D8"/>
<stop offset="0.1615" stop-color="#A6A6A6"/>
<stop offset="0.2622" stop-color="#797979"/>
<stop offset="0.3658" stop-color="#545454"/>
<stop offset="0.4731" stop-color="#353535"/>
<stop offset="0.5852" stop-color="#1E1E1E"/>
<stop offset="0.7042" stop-color="#0D0D0D"/>
<stop offset="0.835" stop-color="#030303"/>
<stop offset="1"/>
</radialGradient>
<linearGradient id="paint24_linear" x1="658.623" y1="51.3864" x2="683.589" y2="319.63" gradientUnits="userSpaceOnUse">
<stop offset="0.0353535" stop-color="#138BBD"/>
<stop offset="0.2257" stop-color="#169AC7"/>
<stop offset="0.5946" stop-color="#1FC3DF"/>
<stop offset="1" stop-color="#2AF6FF"/>
</linearGradient>
<linearGradient id="paint25_linear" x1="724.478" y1="251.366" x2="753.685" y2="216.923" gradientUnits="userSpaceOnUse">
<stop offset="0.0353535" stop-color="#138BBD"/>
<stop offset="0.2257" stop-color="#169AC7"/>
<stop offset="0.5946" stop-color="#1FC3DF"/>
<stop offset="1" stop-color="#2AF6FF"/>
</linearGradient>
<linearGradient id="paint26_linear" x1="704.265" y1="310.908" x2="768.804" y2="268.876" gradientUnits="userSpaceOnUse">
<stop stop-color="#1BB0D4"/>
<stop offset="0.1067" stop-color="#1EBFDD"/>
<stop offset="0.2374" stop-color="#23D8EC"/>
<stop offset="0.3669" stop-color="#1EC0DD"/>
<stop offset="0.4394" stop-color="#1BB0D4"/>
<stop offset="0.4954" stop-color="#1BB0D4"/>
<stop offset="0.5051" stop-color="#1BB0D4"/>
<stop offset="0.5455" stop-color="#20C6E2"/>
<stop offset="0.563" stop-color="#1BAFD4"/>
<stop offset="0.5842" stop-color="#179BC7"/>
<stop offset="0.6053" stop-color="#148FC0"/>
<stop offset="0.6263" stop-color="#138BBD"/>
</linearGradient>
<linearGradient id="paint27_linear" x1="578.647" y1="444.85" x2="758.358" y2="260.835" gradientUnits="userSpaceOnUse">
<stop offset="0.0353535" stop-color="#138BBD"/>
<stop offset="0.2257" stop-color="#169AC7"/>
<stop offset="0.5946" stop-color="#1FC3DF"/>
<stop offset="1" stop-color="#2AF6FF"/>
</linearGradient>
<linearGradient id="paint28_linear" x1="708.989" y1="328.815" x2="776.783" y2="357.94" gradientUnits="userSpaceOnUse">
<stop offset="0.0353535" stop-color="#138BBD"/>
<stop offset="0.2257" stop-color="#169AC7"/>
<stop offset="0.5946" stop-color="#1FC3DF"/>
<stop offset="1" stop-color="#2AF6FF"/>
</linearGradient>
<linearGradient id="paint29_linear" x1="733.522" y1="339.419" x2="761.05" y2="351.245" gradientUnits="userSpaceOnUse">
<stop offset="0.0353535" stop-color="#138BBD"/>
<stop offset="0.2257" stop-color="#169AC7"/>
<stop offset="0.5946" stop-color="#1FC3DF"/>
<stop offset="1" stop-color="#2AF6FF"/>
</linearGradient>
<linearGradient id="paint30_linear" x1="730.738" y1="137.659" x2="903.127" y2="107.449" gradientUnits="userSpaceOnUse">
<stop offset="0.0353535" stop-color="#9F19AB"/>
<stop offset="0.2438" stop-color="#AE25B1"/>
<stop offset="0.6455" stop-color="#D744BF"/>
<stop offset="1" stop-color="#FF63CE"/>
</linearGradient>
<linearGradient id="paint31_linear" x1="885.477" y1="-91.6761" x2="803.08" y2="164.818" gradientUnits="userSpaceOnUse">
<stop offset="0.0353535" stop-color="#9F19AB"/>
<stop offset="0.2438" stop-color="#AE25B1"/>
<stop offset="0.6455" stop-color="#D744BF"/>
<stop offset="1" stop-color="#FF63CE"/>
</linearGradient>
<linearGradient id="paint32_linear" x1="816.229" y1="102.698" x2="775.616" y2="109.815" gradientUnits="userSpaceOnUse">
<stop stop-color="#9F19AB"/>
<stop offset="0.1364" stop-color="#AE25B1"/>
<stop offset="0.3993" stop-color="#D744BF"/>
<stop offset="0.6313" stop-color="#FF63CE"/>
<stop offset="0.8737" stop-color="#DC48C1"/>
</linearGradient>
<linearGradient id="paint33_linear" x1="853.527" y1="133.688" x2="896.834" y2="193.941" gradientUnits="userSpaceOnUse">
<stop offset="0.0353535" stop-color="#9F19AB"/>
<stop offset="0.2438" stop-color="#AE25B1"/>
<stop offset="0.6455" stop-color="#D744BF"/>
<stop offset="1" stop-color="#FF63CE"/>
</linearGradient>
<linearGradient id="paint34_linear" x1="841.488" y1="167.169" x2="1020.79" y2="77.495" gradientUnits="userSpaceOnUse">
<stop offset="0.0353535" stop-color="#9F19AB"/>
<stop offset="0.2438" stop-color="#AE25B1"/>
<stop offset="0.6455" stop-color="#D744BF"/>
<stop offset="1" stop-color="#FF63CE"/>
</linearGradient>
<linearGradient id="paint35_linear" x1="697.085" y1="171.448" x2="801.561" y2="128.075" gradientUnits="userSpaceOnUse">
<stop offset="0.0353535" stop-color="#9F19AB"/>
<stop offset="0.2438" stop-color="#AE25B1"/>
<stop offset="0.6455" stop-color="#D744BF"/>
<stop offset="1" stop-color="#FF63CE"/>
</linearGradient>
<linearGradient id="paint36_linear" x1="782.542" y1="192.054" x2="845.582" y2="165.883" gradientUnits="userSpaceOnUse">
<stop offset="0.0353535" stop-color="#9F19AB"/>
<stop offset="0.2438" stop-color="#AE25B1"/>
<stop offset="0.6455" stop-color="#D744BF"/>
<stop offset="1" stop-color="#FF63CE"/>
</linearGradient>
<linearGradient id="paint37_linear" x1="778.106" y1="187.896" x2="821.412" y2="248.149" gradientUnits="userSpaceOnUse">
<stop offset="0.0353535" stop-color="#9F19AB"/>
<stop offset="0.2438" stop-color="#AE25B1"/>
<stop offset="0.6455" stop-color="#D744BF"/>
<stop offset="1" stop-color="#FF63CE"/>
</linearGradient>
<linearGradient id="paint38_linear" x1="797.217" y1="178.947" x2="751.079" y2="187.032" gradientUnits="userSpaceOnUse">
<stop stop-color="#9F19AB"/>
<stop offset="0.1659" stop-color="#AE25B1"/>
<stop offset="0.4855" stop-color="#D744BF"/>
<stop offset="0.7677" stop-color="#FF63CE"/>
<stop offset="0.9242" stop-color="#DC48C1"/>
</linearGradient>
<clipPath id="clip0">
<rect width="518" height="385" fill="white" transform="translate(432)"/>
</clipPath>
</defs>
</svg>
