<svg width="297" height="220" viewBox="0 0 297 220" fill="none" xmlns="http://www.w3.org/2000/svg">
<path d="M69.4009 157.473L68.916 157.276C78.6926 132.206 104.287 114.377 131.167 113.904C138.361 113.786 145.609 114.81 152.607 115.807C155.844 116.266 159.199 116.751 162.502 117.106C170.732 117.998 182.88 118.601 193.247 113.603C203.535 108.657 209.956 98.4896 208.868 88.8733L209.393 88.8208C210.507 98.647 203.954 109.037 193.483 114.088C182.998 119.139 170.745 118.535 162.449 117.63C159.133 117.276 155.778 116.791 152.528 116.331C145.543 115.334 138.322 114.311 131.167 114.429C104.497 114.902 79.0989 132.599 69.4009 157.473Z" fill="#A3A3A3"/>
<path d="M271.378 149.235L270.924 148.987C274.544 142.385 278.293 135.56 279.513 127.965C280.564 121.415 279.461 112.525 273.208 107.243C268.472 103.243 262.024 102.301 255.784 101.399L254.447 101.203C247.844 100.223 240.527 98.4837 236.427 92.9798L236.842 92.666C240.825 98.0131 248.012 99.7127 254.512 100.68L255.849 100.876C262.154 101.791 268.68 102.733 273.532 106.838C279.954 112.25 281.083 121.336 280.006 128.043C278.799 135.73 275.024 142.594 271.378 149.235Z" fill="#A3A3A3"/>
<path d="M37.6066 173.401C33.8438 173.401 29.727 172.783 25.8069 170.931C19.3432 167.882 14.9118 161.825 14.5053 155.506C14.3218 152.615 14.938 149.738 15.5411 146.939C15.646 146.44 15.7509 145.941 15.8557 145.442C16.5244 142.21 16.9964 138.767 16.0262 135.588C15.4624 136.14 14.8593 136.652 14.2169 137.125C12.1454 138.623 9.30034 139.293 7.12394 138.794C5.72109 138.465 4.646 137.677 4.02979 136.507C3.32181 135.18 3.41358 133.577 4.29201 132.093C5.32776 130.345 7.1895 129.189 9.03812 129.176C9.06434 129.176 9.07745 129.176 9.10368 129.176C12.3945 129.176 15.056 131.791 16.236 134.602C18.5828 131.988 20.0643 128.545 20.2348 125.051C20.4708 120.518 18.5041 115.84 15.1346 112.832L15.4886 112.438C19.0417 115.604 21.0083 120.334 20.7723 125.077C20.5756 128.834 19.0155 132.434 16.4588 135.167C16.4851 135.246 16.5113 135.325 16.5375 135.404C17.5601 138.702 17.075 142.223 16.3933 145.534C16.2884 146.033 16.1835 146.532 16.0786 147.045C15.4886 149.791 14.8724 152.642 15.056 155.466C15.4493 161.602 19.7628 167.488 26.056 170.458C32.808 173.65 40.2156 173.098 45.2371 172.074C51.6876 170.76 57.8235 168.066 63.7627 165.465L63.9724 165.951C58.0201 168.566 51.858 171.272 45.342 172.599C43.1131 173.046 40.4647 173.401 37.6066 173.401ZM9.10368 129.715C9.07745 129.715 9.06434 129.715 9.03812 129.715C7.37305 129.728 5.68175 130.779 4.73778 132.369C3.96424 133.683 3.87246 135.102 4.48867 136.258C5.03932 137.283 5.99641 137.992 7.24194 138.281C9.27412 138.754 11.9487 138.11 13.9022 136.704C14.584 136.205 15.2264 135.653 15.8295 135.036C14.7807 132.303 12.2372 129.715 9.10368 129.715Z" fill="#A3A3A3"/>
<path d="M37.0186 160.169L37.2931 162.436L64.3856 176.81L90.4582 173.115L109.784 147.014L108.476 144.905L79.7101 163.367L37.0186 160.169Z" fill="#BCD5FF"/>
<path d="M88.6413 150.094L87.8568 150.893L64.7523 174.177L64.2293 174.701L37.0322 160.17L60.3197 136.271L87.2684 149.426L88.6413 150.094Z" fill="white"/>
<path d="M88.6406 150.093L108.476 144.905L89.3336 170.77L64.2285 174.7L88.6406 150.093Z" fill="#E2EDFF"/>
<path d="M105.639 146.818L88.6929 169.708L67.4713 173.036L89.2159 151.115L105.639 146.818ZM108.476 144.905L88.6406 150.093L64.2285 174.7L89.3336 170.77L108.476 144.905Z" fill="white"/>
<path d="M271.188 175.054C271.031 175.054 270.887 175.054 270.73 175.041L270.756 174.477C271.306 174.503 271.868 174.477 272.417 174.425L272.482 174.988C272.051 175.027 271.619 175.054 271.188 175.054ZM269.004 174.844C268.429 174.739 267.867 174.582 267.317 174.399L267.501 173.861C268.024 174.045 268.56 174.189 269.109 174.281L269.004 174.844ZM274.195 174.674L274.051 174.123C274.588 173.979 275.111 173.809 275.62 173.586L275.843 174.11C275.307 174.333 274.744 174.516 274.195 174.674ZM265.709 173.717C265.199 173.455 264.689 173.141 264.219 172.8L264.545 172.341C264.99 172.669 265.474 172.957 265.958 173.206L265.709 173.717ZM277.386 173.311L277.085 172.826C277.556 172.538 278.013 172.21 278.432 171.857L278.798 172.289C278.353 172.669 277.883 173.01 277.386 173.311ZM262.898 171.686C262.48 171.28 262.087 170.848 261.734 170.389L262.179 170.048C262.519 170.481 262.885 170.9 263.277 171.293L262.898 171.686ZM280.066 171.084L279.648 170.704C280.014 170.284 280.354 169.852 280.668 169.393L281.138 169.708C280.812 170.193 280.445 170.651 280.066 171.084ZM260.78 168.922C260.492 168.411 260.244 167.886 260.047 167.336L260.584 167.14C260.78 167.651 261.015 168.162 261.29 168.646L260.78 168.922ZM281.988 168.175L281.478 167.926C281.714 167.428 281.91 166.904 282.067 166.367L282.616 166.537C282.446 167.1 282.237 167.651 281.988 168.175ZM259.538 165.659C259.42 165.096 259.328 164.506 259.289 163.929L259.851 163.89C259.891 164.44 259.969 164.991 260.087 165.541L259.538 165.659ZM282.982 164.847L282.42 164.768C282.498 164.218 282.537 163.667 282.537 163.104C282.537 162.58 282.498 162.043 282.433 161.519L282.995 161.44C283.074 161.99 283.113 162.541 283.113 163.104C283.113 163.68 283.074 164.27 282.982 164.847ZM259.864 162.239L259.302 162.2C259.341 161.623 259.433 161.034 259.564 160.47L260.113 160.601C259.995 161.125 259.904 161.676 259.864 162.239ZM282.093 159.894C281.936 159.357 281.74 158.832 281.504 158.335L282.014 158.099C282.263 158.623 282.459 159.173 282.629 159.737L282.093 159.894ZM260.597 159.003L260.074 158.793C260.283 158.256 260.531 157.719 260.819 157.221L261.316 157.496C261.041 157.968 260.793 158.479 260.597 159.003ZM280.707 156.88C280.406 156.422 280.066 155.976 279.7 155.557L280.132 155.177C280.511 155.609 280.877 156.081 281.191 156.566L280.707 156.88ZM262.231 156.107L261.786 155.753C262.14 155.295 262.532 154.862 262.95 154.456L263.342 154.862C262.95 155.255 262.571 155.675 262.231 156.107ZM278.51 154.404C278.092 154.05 277.634 153.722 277.163 153.421L277.464 152.936C277.961 153.238 278.432 153.591 278.876 153.958L278.51 154.404ZM264.624 153.814L264.297 153.355C264.768 153.015 265.265 152.713 265.788 152.451L266.049 152.962C265.552 153.211 265.082 153.5 264.624 153.814ZM275.699 152.648C275.189 152.425 274.666 152.242 274.13 152.098L274.274 151.547C274.836 151.691 275.385 151.888 275.921 152.124L275.699 152.648ZM267.579 152.307L267.396 151.77C267.945 151.587 268.52 151.443 269.083 151.338L269.187 151.901C268.638 151.993 268.102 152.137 267.579 152.307ZM272.495 151.796C271.946 151.731 271.384 151.705 270.835 151.731L270.822 151.167C271.397 151.154 271.985 151.18 272.561 151.246L272.495 151.796Z" fill="url(#paint0_linear)"/>
<path d="M282.313 160.108C287.363 155.047 287.363 146.842 282.313 141.782C277.263 136.721 269.075 136.721 264.025 141.782C258.975 146.842 258.975 155.047 264.025 160.108C269.075 165.168 277.263 165.168 282.313 160.108Z" fill="white"/>
<path d="M273.188 164.179C269.357 164.179 265.565 162.528 262.95 159.331C258.334 153.684 259.171 145.324 264.807 140.699C270.442 136.074 278.784 136.912 283.4 142.56C288.016 148.207 287.179 156.567 281.543 161.192C279.085 163.197 276.13 164.179 273.188 164.179ZM273.149 138.275C270.246 138.275 267.448 139.271 265.16 141.145C259.759 145.573 258.975 153.566 263.381 158.977C267.801 164.389 275.777 165.175 281.177 160.759C286.577 156.331 287.362 148.338 282.955 142.927C280.811 140.306 277.791 138.681 274.43 138.341C273.999 138.301 273.567 138.275 273.149 138.275Z" fill="url(#paint1_linear)"/>
<path d="M278.981 152.688L272.744 151.181L275.778 142.704L276.392 142.913L273.594 150.723L279.138 152.072L278.981 152.688Z" fill="url(#paint2_linear)"/>
<path d="M154.554 116.945C155.927 112.215 153.09 107.249 148.226 106.096C144.12 105.127 139.818 107.367 138.262 111.285C137.478 113.277 137.465 115.334 138.066 117.181C138.759 119.291 138.877 121.531 138.262 123.667L137.203 127.297L147.062 130.179L148.121 126.537C148.736 124.44 150.004 122.606 151.704 121.23C153.025 120.169 154.044 118.701 154.554 116.945Z" fill="url(#paint3_linear)"/>
<path d="M146.367 132.524L136.525 129.648L135.427 133.421L145.268 136.298L146.367 132.524Z" fill="url(#paint4_linear)"/>
<path d="M143.898 129.38L143.362 129.157L148.488 116.946C148.069 116.959 147.638 116.854 147.271 116.618C146.801 116.304 146.487 115.819 146.409 115.282C146.395 115.203 146.33 115.177 146.304 115.164C146.278 115.151 146.199 115.138 146.147 115.19L146.003 115.334C145.611 115.714 145.062 115.911 144.499 115.858C144.12 115.832 143.754 115.701 143.453 115.478L141.231 128.529L140.655 128.424L143.087 114.168L143.493 114.705C143.741 115.033 144.12 115.242 144.539 115.269C144.944 115.295 145.323 115.164 145.598 114.902L145.742 114.758C145.938 114.561 146.225 114.509 146.5 114.6C146.762 114.692 146.958 114.915 146.997 115.19C147.049 115.557 147.271 115.898 147.598 116.107C147.951 116.343 148.383 116.409 148.788 116.291L149.481 116.094L143.898 129.38Z" fill="white"/>
<path d="M139.524 95.0295L138.758 95.3989L142.45 103.084L143.216 102.715L139.524 95.0295Z" fill="url(#paint5_linear)"/>
<path d="M162.821 101.081L156.36 105.814L156.862 106.502L163.322 101.769L162.821 101.081Z" fill="url(#paint6_linear)"/>
<path d="M153.081 90.5475L149.96 102.353L150.782 102.571L153.902 90.7656L153.081 90.5475Z" fill="url(#paint7_linear)"/>
<path d="M37.8152 111.402L30.7936 106.58C32.0227 100.199 28.95 93.5297 22.8568 90.516C15.5476 86.8997 6.69543 89.9002 3.08659 97.2116C-0.522261 104.536 2.47203 113.407 9.76818 117.023C17.0643 120.639 25.9165 117.652 29.5384 110.341L37.8152 111.402Z" fill="white"/>
<path d="M16.2801 118.844C14.0442 118.844 11.769 118.346 9.6377 117.285C2.19773 113.59 -0.848872 104.536 2.82535 97.0803C6.49958 89.6248 15.5478 86.5588 22.9878 90.2538C28.9764 93.2281 32.2976 99.8581 31.1077 106.449L38.953 111.847L29.6956 110.655C27.0412 115.83 21.7587 118.844 16.2801 118.844ZM16.3324 89.258C10.9976 89.258 5.85887 92.2192 3.3353 97.3293C-0.208171 104.496 2.73382 113.223 9.89921 116.761C17.0385 120.298 25.7337 117.363 29.2902 110.209L29.3818 110.026L36.7041 110.969L30.4932 106.698L30.5324 106.514C31.7746 100.12 28.5711 93.6474 22.7525 90.7517C20.6735 89.7428 18.4898 89.258 16.3324 89.258Z" fill="url(#paint8_linear)"/>
<path d="M8.49995 105.544C9.48206 105.544 10.2782 104.747 10.2782 103.762C10.2782 102.778 9.48206 101.98 8.49995 101.98C7.51784 101.98 6.72168 102.778 6.72168 103.762C6.72168 104.747 7.51784 105.544 8.49995 105.544Z" fill="url(#paint9_linear)"/>
<path d="M16.0185 105.543C17.0006 105.543 17.7968 104.746 17.7968 103.761C17.7968 102.777 17.0006 101.979 16.0185 101.979C15.0364 101.979 14.2402 102.777 14.2402 103.761C14.2402 104.746 15.0364 105.543 16.0185 105.543Z" fill="url(#paint10_linear)"/>
<path d="M23.5497 105.543C24.5319 105.543 25.328 104.746 25.328 103.761C25.328 102.777 24.5319 101.979 23.5497 101.979C22.5676 101.979 21.7715 102.777 21.7715 103.761C21.7715 104.746 22.5676 105.543 23.5497 105.543Z" fill="url(#paint11_linear)"/>
<g clip-path="url(#clip0)">
<path d="M53.3754 55.5111C56.1984 52.7501 62.4911 51.9277 67.1959 53.8075C70.9598 55.3349 72.3712 58.5659 70.3717 60.9157C69.1955 62.2668 67.2547 63.148 65.0787 63.618C64.0201 63.8529 63.9025 64.6754 64.9023 64.9691L83.8393 71.431L95.0721 60.387C95.7778 59.682 97.6598 59.7995 98.1302 60.5632C98.836 61.8556 100.424 62.9718 102.659 63.618C106.893 64.9103 112.186 64.0879 114.715 61.7381C117.479 59.2121 116.067 55.8049 111.539 54.2775C109.539 53.5725 107.246 53.3963 105.129 53.6313C103.717 53.8075 102.659 52.8676 103.364 52.1627L114.656 41.2948L65.9609 24.6112C63.8437 23.9063 61.0796 24.2588 59.8446 25.4924L31.2627 53.5138L50.2585 60.0345C51.1995 60.387 52.3757 59.917 52.1992 59.2708C51.8464 57.9784 52.1992 56.686 53.3754 55.5111Z" fill="url(#paint12_linear)"/>
<path d="M105.187 53.7489C107.305 53.5139 109.598 53.7489 111.598 54.3951C112.421 54.6888 113.127 55.0413 113.715 55.3937L114.656 54.4538V41.2949L103.423 52.339C102.659 52.9852 103.776 53.9251 105.187 53.7489Z" fill="url(#paint13_linear)"/>
<path d="M116.067 59.623C115.891 60.3867 115.479 61.1504 114.715 61.8553C112.186 64.2051 106.893 65.0275 102.659 63.7352C100.424 63.0302 98.836 61.9141 98.1302 60.6804C97.6598 59.9167 95.8366 59.7992 95.0721 60.5042L83.8393 71.5482L64.9023 65.0863C63.9613 64.7338 64.079 63.9114 65.0787 63.7352C67.3135 63.2652 69.2543 62.3253 70.3717 61.0329C72.4301 58.6831 70.9598 55.4521 67.1959 53.9247C62.5499 52.0449 56.1984 52.8673 53.3754 55.6283C52.1992 56.8032 51.8464 58.0956 52.1992 59.3293C52.3757 59.9755 51.1995 60.3867 50.2585 60.093L31.2627 53.5135V66.7312L50.2585 73.2519C51.1995 73.6043 52.3757 73.1344 52.1992 72.4882C51.8464 71.2545 52.1992 69.9621 53.3754 68.7872C55.6102 66.5549 60.1387 65.615 64.1966 66.2612V77.4227C64.079 77.7165 64.2554 78.0689 64.7847 78.2452L83.7217 84.7071L94.9545 73.6631C95.6602 72.9581 97.5421 73.0756 98.0126 73.8393C98.7183 75.1317 100.306 76.2478 102.541 76.894C106.775 78.1864 112.068 77.364 114.597 75.0142C115.773 73.9568 116.185 72.7231 115.95 71.5482V59.623H116.067Z" fill="url(#paint14_linear)"/>
<path d="M96.7772 73.1931V59.9755C96.1303 59.9167 95.4833 60.093 95.0717 60.4454L83.8389 71.4895V84.7072L95.0717 73.6631C95.4245 73.3106 96.1303 73.1931 96.7772 73.1931Z" fill="url(#paint15_linear)"/>
<path d="M64.8435 64.9691C63.9025 64.6166 64.0201 63.7942 65.0199 63.618C67.2547 63.148 69.1955 62.2081 70.3129 60.9157C72.3712 58.5659 70.901 55.3349 67.1371 53.8075C62.4911 51.9277 56.1395 52.7501 53.3166 55.5112C52.1404 56.6861 51.7876 57.9784 52.1404 59.2121C52.3169 59.8583 51.1406 60.2695 50.1997 59.9758L31.2627 53.5138V66.7315L50.2585 73.2522C51.1995 73.6046 52.3757 73.1347 52.1992 72.4885C51.8464 71.2548 52.1992 69.9624 53.3754 68.7875C55.6102 66.5552 60.1387 65.6153 64.1966 66.2615V77.4231C64.079 77.7168 64.2554 78.0693 64.7847 78.2455L83.7217 84.7074V71.4898L64.8435 64.9691Z" fill="url(#paint16_linear)"/>
<path d="M116.068 71.6075V59.6235C115.891 60.3872 115.479 61.1509 114.715 61.8558C112.186 64.2056 106.893 65.0281 102.659 63.7357C100.424 63.0307 98.836 61.9146 98.1303 60.6809C97.7774 60.0935 96.7189 59.9173 95.8955 60.0935C96.1896 60.0348 96.4836 59.976 96.7777 60.0348V73.2524C97.3658 73.3111 97.8951 73.5461 98.1303 73.8986C98.836 75.191 100.424 76.3071 102.659 76.9533C106.893 78.2457 112.186 77.4233 114.715 75.0735C115.891 74.0161 116.303 72.7824 116.068 71.6075Z" fill="url(#paint17_linear)"/>
<path d="M95.4251 60.2109C95.3075 60.2697 95.1899 60.3284 95.0723 60.4459C95.1899 60.3872 95.2487 60.2697 95.4251 60.2109Z" fill="url(#paint18_linear)"/>
<path d="M95.8363 60.0933C95.7186 60.152 95.601 60.152 95.4834 60.2108C95.601 60.152 95.7186 60.0933 95.8363 60.0933Z" fill="url(#paint19_linear)"/>
<path d="M48.847 59.5061L31.2627 53.5142L48.847 59.5061Z" fill="url(#paint20_linear)"/>
<path d="M50.2589 73.1936L48.9062 72.7236L50.2589 73.1936C50.3765 73.2523 50.4941 73.2523 50.6118 73.2523C50.4941 73.3111 50.3765 73.2523 50.2589 73.1936Z" fill="url(#paint21_linear)"/>
<path d="M64.1968 64.4404C64.0792 64.0879 64.3732 63.7355 65.0201 63.618C67.2549 63.148 69.1957 62.2081 70.3131 60.9157C72.3714 58.5659 70.9012 55.3349 67.1373 53.8075C62.4913 51.9277 56.1397 52.7501 53.3168 55.5112C52.1406 56.6861 51.7878 57.9784 52.1406 59.2121C52.1994 59.5058 51.9642 59.7995 51.6113 59.917V73.1347C51.7289 73.0759 52.2582 72.7822 52.1406 72.4297C51.7878 71.1961 52.1406 69.9037 53.3168 68.7288C55.5516 66.5552 60.0212 65.5566 64.138 66.2028V64.4404H64.1968Z" fill="url(#paint22_linear)"/>
<path d="M103.365 52.6327L114.657 41.5299L114.01 41.2949L103.424 51.6341C103.071 52.0453 103.13 52.3977 103.365 52.6327Z" fill="url(#paint23_radial)"/>
<path d="M166.305 189.869C162.683 190.043 161.122 187.485 163.06 184.221C164.589 181.612 168.467 179.097 171.545 178.773C173.273 178.601 174.581 178.98 175.326 179.78C175.686 180.16 176.715 179.771 177.019 179.128L183.428 166.494L168.964 167.23C168.042 167.27 167.998 166.35 168.952 165.676C170.454 164.646 171.725 163.264 172.374 161.783C173.593 159.04 172.132 156.976 169.069 157.067C165.732 157.167 161.712 159.719 160.166 162.729C159.479 164.067 159.429 165.27 159.888 166.144C160.168 166.743 159.186 167.715 158.225 167.78L143.76 168.516L127.255 201.027C126.515 202.455 127.271 203.527 128.842 203.456L165.641 201.565L172.089 188.906C172.394 188.262 171.748 187.956 171.017 188.374C169.452 189.222 167.812 189.784 166.305 189.869Z" fill="url(#paint24_linear)"/>
<path d="M172.387 161.779C171.738 163.26 170.506 164.616 168.965 165.671C168.051 166.32 168.056 167.265 168.977 167.225L177.766 166.766L172.57 158.817C172.913 159.598 172.865 160.633 172.387 161.779Z" fill="url(#paint25_linear)"/>
<path d="M177.021 179.115C176.716 179.758 175.649 180.172 175.328 179.767C174.582 178.967 173.314 178.563 171.547 178.76C168.507 179.058 164.63 181.573 163.062 184.207C161.125 187.472 162.685 190.029 166.307 189.855C167.814 189.771 169.48 189.248 170.98 188.387C171.436 188.146 171.878 188.139 172.071 188.349C172.071 188.349 172.071 188.349 172.096 188.388L172.736 189.367C174.25 188.441 175.878 187.776 177.334 187.613C179.061 187.441 180.369 187.82 181.114 188.619C181.474 188.999 182.503 188.611 182.807 187.967L188.939 175.848L189.318 175.49L183.429 166.481L177.021 179.115Z" fill="url(#paint26_linear)"/>
<path d="M128.831 203.453C128.039 203.521 127.483 203.268 127.201 202.837L132.834 211.453C133.088 212.013 133.695 212.344 134.591 212.265L171.32 210.363L165.585 201.59L128.831 203.453Z" fill="url(#paint27_linear)"/>
<path d="M172.014 188.879L165.633 201.548L171.392 210.359L177.838 197.704C177.943 197.524 177.945 197.355 177.868 197.238L177.842 197.199C177.842 197.199 177.842 197.199 177.817 197.16L172.697 189.328L172.058 188.349C172.134 188.467 172.133 188.635 172.014 188.879Z" fill="url(#paint28_linear)"/>
<path d="M172.014 188.879L165.633 201.548L171.392 210.359L177.838 197.704C177.943 197.524 177.945 197.355 177.868 197.238L177.842 197.199C177.842 197.199 177.842 197.199 177.817 197.16L172.697 189.328L172.058 188.349C172.134 188.467 172.133 188.635 172.014 188.879Z" fill="url(#paint29_linear)"/>
<path d="M211.663 61.1696C215.625 62.6354 216.122 66.0863 212.548 68.6986C209.711 70.7954 204.402 71.7199 200.954 70.662C199.024 70.0585 197.797 69.0561 197.365 67.86C197.154 67.2888 195.873 67.2354 195.252 67.7859L182.584 78.3933L198.421 84.203C199.427 84.5806 199.051 85.5856 197.72 85.8727C195.638 86.2905 193.641 87.191 192.265 88.4808C189.7 90.862 190.318 93.7393 193.642 95.0397C197.263 96.4543 202.743 95.5554 205.781 93.0365C207.132 91.917 207.738 90.6507 207.646 89.5058C207.621 88.7364 209.12 88.1438 210.18 88.512L226.017 94.3217L258.629 67.0311C260.077 65.8392 259.759 64.347 258.043 63.7061L217.745 48.9453L205.023 59.5621C204.402 60.1125 204.954 60.735 205.928 60.6205C207.931 60.3822 209.947 60.5287 211.663 61.1696Z" fill="url(#paint30_linear)"/>
<path d="M211.663 61.1696C215.625 62.6354 216.122 66.0863 212.548 68.6986C209.711 70.7954 204.402 71.7199 200.954 70.662C199.024 70.0585 197.797 69.0561 197.365 67.86C197.154 67.2888 195.873 67.2354 195.252 67.7859L182.584 78.3933L198.421 84.203C199.427 84.5806 199.051 85.5856 197.72 85.8727C195.638 86.2905 193.641 87.191 192.265 88.4808C189.7 90.862 190.318 93.7393 193.642 95.0397C197.263 96.4543 202.743 95.5554 205.781 93.0365C207.132 91.917 207.738 90.6507 207.646 89.5058C207.621 88.7364 209.12 88.1438 210.18 88.512L226.017 94.3217L258.629 67.0311C260.077 65.8392 259.759 64.347 258.043 63.7061L217.745 48.9453L205.023 59.5621C204.402 60.1125 204.954 60.735 205.928 60.6205C207.931 60.3822 209.947 60.5287 211.663 61.1696Z" fill="url(#paint31_linear)"/>
<path d="M212.548 68.7083C216.122 66.0969 215.625 62.6472 211.664 61.1818C210.012 60.5855 207.987 60.3854 205.984 60.6236C205.332 60.682 204.909 60.4793 204.799 60.167L206.688 70.889C208.842 70.5692 211.028 69.8019 212.548 68.7083Z" fill="url(#paint32_linear)"/>
<path d="M261.556 77.1158L259.426 65.048C259.54 65.6916 259.268 66.3468 258.55 66.9693L225.961 94.249L228.091 106.317L260.68 79.0371C261.452 78.4053 261.723 77.7501 261.556 77.1158Z" fill="url(#paint33_linear)"/>
<path d="M261.556 77.1158L259.426 65.048C259.54 65.6916 259.268 66.3468 258.55 66.9693L225.961 94.249L228.091 106.317L260.68 79.0371C261.452 78.4053 261.723 77.7501 261.556 77.1158Z" fill="url(#paint34_linear)"/>
<path d="M192.251 88.4884C193.626 87.199 195.569 86.3081 197.705 85.8811C198.982 85.6034 199.411 84.5893 198.405 84.2119L182.571 78.4038L184.697 90.4667L190.84 92.7126L190.894 92.7033C190.326 91.3653 190.778 89.85 192.251 88.4884Z" fill="url(#paint35_linear)"/>
<path d="M210.104 88.4554C209.574 88.2714 208.975 88.3204 208.457 88.521L210.583 100.583C211.1 100.382 211.699 100.333 212.229 100.517L228.061 106.325L225.936 94.263L210.104 88.4554Z" fill="url(#paint36_linear)"/>
<path d="M207.625 89.5019C207.716 90.6465 207.11 91.9124 205.76 93.0317C202.776 95.5406 197.297 96.4393 193.623 95.0344C192.204 94.5078 191.337 93.6641 190.943 92.6828L190.889 92.6921L192.855 103.844C192.974 105.149 193.961 106.359 195.793 107.035C199.414 108.449 204.892 107.55 207.93 105.032C209.28 103.913 209.886 102.647 209.795 101.502C209.783 101.118 210.164 100.775 210.682 100.574L208.556 88.511C207.931 88.7303 207.55 89.073 207.625 89.5019Z" fill="url(#paint37_linear)"/>
<path d="M207.625 89.5019C207.716 90.6465 207.11 91.9124 205.76 93.0317C202.776 95.5406 197.297 96.4393 193.623 95.0344C192.204 94.5078 191.337 93.6641 190.943 92.6828L190.889 92.6921L192.855 103.844C192.974 105.149 193.961 106.359 195.793 107.035C199.414 108.449 204.892 107.55 207.93 105.032C209.28 103.913 209.886 102.647 209.795 101.502C209.783 101.118 210.164 100.775 210.682 100.574L208.556 88.511C207.931 88.7303 207.55 89.073 207.625 89.5019Z" fill="url(#paint38_linear)"/>
<path d="M284.101 212.797C287.494 211.426 289.135 207.557 287.766 204.157C286.398 200.757 282.537 199.112 279.144 200.484C275.751 201.855 274.11 205.724 275.478 209.124C276.847 212.524 280.708 214.169 284.101 212.797Z" fill="#FF5C33"/>
</g>
<defs>
<linearGradient id="paint0_linear" x1="262.717" y1="155.267" x2="281.017" y2="157.684" gradientUnits="userSpaceOnUse">
<stop stop-color="#1E7BD1"/>
<stop offset="1" stop-color="#48A7FF"/>
</linearGradient>
<linearGradient id="paint1_linear" x1="263.768" y1="142.257" x2="284.058" y2="144.938" gradientUnits="userSpaceOnUse">
<stop stop-color="#1E7BD1"/>
<stop offset="1" stop-color="#48A7FF"/>
</linearGradient>
<linearGradient id="paint2_linear" x1="273.664" y1="144.419" x2="278.626" y2="144.839" gradientUnits="userSpaceOnUse">
<stop stop-color="#1E7BD1"/>
<stop offset="1" stop-color="#48A7FF"/>
</linearGradient>
<linearGradient id="paint3_linear" x1="139.749" y1="110.046" x2="153.453" y2="111.367" gradientUnits="userSpaceOnUse">
<stop stop-color="#1E7BD1"/>
<stop offset="1" stop-color="#48A7FF"/>
</linearGradient>
<linearGradient id="paint4_linear" x1="137.753" y1="130.71" x2="143.937" y2="135.087" gradientUnits="userSpaceOnUse">
<stop stop-color="#1E7BD1"/>
<stop offset="1" stop-color="#48A7FF"/>
</linearGradient>
<linearGradient id="paint5_linear" x1="139.502" y1="96.6658" x2="140.105" y2="96.386" gradientUnits="userSpaceOnUse">
<stop stop-color="#1E7BD1"/>
<stop offset="1" stop-color="#48A7FF"/>
</linearGradient>
<linearGradient id="paint6_linear" x1="157.376" y1="105.251" x2="161.156" y2="106.268" gradientUnits="userSpaceOnUse">
<stop stop-color="#1E7BD1"/>
<stop offset="1" stop-color="#48A7FF"/>
</linearGradient>
<linearGradient id="paint7_linear" x1="150.55" y1="100.691" x2="154.877" y2="99.6993" gradientUnits="userSpaceOnUse">
<stop stop-color="#1E7BD1"/>
<stop offset="1" stop-color="#48A7FF"/>
</linearGradient>
<linearGradient id="paint8_linear" x1="6.68995" y1="93.8668" x2="35.3579" y2="98.6101" gradientUnits="userSpaceOnUse">
<stop stop-color="#1E7BD1"/>
<stop offset="1" stop-color="#48A7FF"/>
</linearGradient>
<linearGradient id="paint9_linear" x1="7.23341" y1="102.593" x2="9.9653" y2="102.954" gradientUnits="userSpaceOnUse">
<stop stop-color="#1E7BD1"/>
<stop offset="1" stop-color="#48A7FF"/>
</linearGradient>
<linearGradient id="paint10_linear" x1="14.752" y1="102.592" x2="17.4839" y2="102.953" gradientUnits="userSpaceOnUse">
<stop stop-color="#1E7BD1"/>
<stop offset="1" stop-color="#48A7FF"/>
</linearGradient>
<linearGradient id="paint11_linear" x1="22.2832" y1="102.592" x2="25.0151" y2="102.953" gradientUnits="userSpaceOnUse">
<stop stop-color="#1E7BD1"/>
<stop offset="1" stop-color="#48A7FF"/>
</linearGradient>
<linearGradient id="paint12_linear" x1="124.562" y1="-40.1583" x2="70.7652" y2="62.4817" gradientUnits="userSpaceOnUse">
<stop offset="0.0353535" stop-color="#6B24D6"/>
<stop offset="0.2945" stop-color="#7733DC"/>
<stop offset="0.7943" stop-color="#975CED"/>
<stop offset="1" stop-color="#A56EF4"/>
</linearGradient>
<linearGradient id="paint13_linear" x1="87.4116" y1="62.8201" x2="178.326" y2="13.5853" gradientUnits="userSpaceOnUse">
<stop offset="0.0353535" stop-color="#6B24D6"/>
<stop offset="0.2945" stop-color="#7733DC"/>
<stop offset="0.7943" stop-color="#975CED"/>
<stop offset="1" stop-color="#A56EF4"/>
</linearGradient>
<linearGradient id="paint14_linear" x1="81.576" y1="72.9095" x2="119.505" y2="119.643" gradientUnits="userSpaceOnUse">
<stop offset="0.0353535" stop-color="#6B24D6"/>
<stop offset="0.2945" stop-color="#7733DC"/>
<stop offset="0.7943" stop-color="#975CED"/>
<stop offset="1" stop-color="#A56EF4"/>
</linearGradient>
<linearGradient id="paint15_linear" x1="91.9495" y1="71.1996" x2="182.864" y2="21.9649" gradientUnits="userSpaceOnUse">
<stop offset="0.0353535" stop-color="#6B24D6"/>
<stop offset="0.2945" stop-color="#7733DC"/>
<stop offset="0.7943" stop-color="#975CED"/>
<stop offset="1" stop-color="#A56EF4"/>
</linearGradient>
<linearGradient id="paint16_linear" x1="-21.0094" y1="86.69" x2="139.553" y2="50.657" gradientUnits="userSpaceOnUse">
<stop offset="0.0353535" stop-color="#6B24D6"/>
<stop offset="0.2945" stop-color="#7733DC"/>
<stop offset="0.7943" stop-color="#975CED"/>
<stop offset="1" stop-color="#A56EF4"/>
</linearGradient>
<linearGradient id="paint17_linear" x1="96.619" y1="68.5967" x2="116.223" y2="68.5967" gradientUnits="userSpaceOnUse">
<stop stop-color="#6B24D6"/>
<stop offset="0.067058" stop-color="#712DD9"/>
<stop offset="0.1616" stop-color="#7734DC"/>
<stop offset="0.3232" stop-color="#8C4FE7"/>
<stop offset="0.4848" stop-color="#A56EF4"/>
<stop offset="0.8737" stop-color="#6B24D6"/>
</linearGradient>
<linearGradient id="paint18_linear" x1="95.2386" y1="60.3495" x2="95.2566" y2="60.3717" gradientUnits="userSpaceOnUse">
<stop offset="0.0353535" stop-color="#6B24D6"/>
<stop offset="0.2945" stop-color="#7733DC"/>
<stop offset="0.7943" stop-color="#975CED"/>
<stop offset="1" stop-color="#A56EF4"/>
</linearGradient>
<linearGradient id="paint19_linear" x1="95.6605" y1="60.1538" x2="95.7244" y2="60.2324" gradientUnits="userSpaceOnUse">
<stop offset="0.0353535" stop-color="#6B24D6"/>
<stop offset="0.2945" stop-color="#7733DC"/>
<stop offset="0.7943" stop-color="#975CED"/>
<stop offset="1" stop-color="#A56EF4"/>
</linearGradient>
<linearGradient id="paint20_linear" x1="15.2648" y1="62.0679" x2="65.9487" y2="50.6935" gradientUnits="userSpaceOnUse">
<stop offset="0.0353535" stop-color="#6B24D6"/>
<stop offset="0.2945" stop-color="#7733DC"/>
<stop offset="0.7943" stop-color="#975CED"/>
<stop offset="1" stop-color="#A56EF4"/>
</linearGradient>
<linearGradient id="paint21_linear" x1="47.2597" y1="73.5783" x2="52.3256" y2="72.4414" gradientUnits="userSpaceOnUse">
<stop offset="0.0353535" stop-color="#6B24D6"/>
<stop offset="0.2945" stop-color="#7733DC"/>
<stop offset="0.7943" stop-color="#975CED"/>
<stop offset="1" stop-color="#A56EF4"/>
</linearGradient>
<linearGradient id="paint22_linear" x1="52.8543" y1="62.991" x2="70.6663" y2="62.991" gradientUnits="userSpaceOnUse">
<stop stop-color="#7C3ADF"/>
<stop offset="0.0416721" stop-color="#7733DC"/>
<stop offset="0.1437" stop-color="#6E28D8"/>
<stop offset="0.2525" stop-color="#6B24D6"/>
<stop offset="0.5556" stop-color="#9A60EE"/>
<stop offset="0.9747" stop-color="#7734DC"/>
</linearGradient>
<radialGradient id="paint23_radial" cx="0" cy="0" r="1" gradientUnits="userSpaceOnUse" gradientTransform="translate(111.76 47.3883) scale(5.70092 5.69457)">
<stop stop-color="white"/>
<stop offset="0.0656227" stop-color="#D8D8D8"/>
<stop offset="0.1615" stop-color="#A6A6A6"/>
<stop offset="0.2622" stop-color="#797979"/>
<stop offset="0.3658" stop-color="#545454"/>
<stop offset="0.4731" stop-color="#353535"/>
<stop offset="0.5852" stop-color="#1E1E1E"/>
<stop offset="0.7042" stop-color="#0D0D0D"/>
<stop offset="0.835" stop-color="#030303"/>
<stop offset="1"/>
</radialGradient>
<linearGradient id="paint24_linear" x1="146.201" y1="90.7433" x2="155.645" y2="193.211" gradientUnits="userSpaceOnUse">
<stop offset="0.0353535" stop-color="#138BBD"/>
<stop offset="0.2257" stop-color="#169AC7"/>
<stop offset="0.5946" stop-color="#1FC3DF"/>
<stop offset="1" stop-color="#2AF6FF"/>
</linearGradient>
<linearGradient id="paint25_linear" x1="171.49" y1="167.129" x2="182.63" y2="153.952" gradientUnits="userSpaceOnUse">
<stop offset="0.0353535" stop-color="#138BBD"/>
<stop offset="0.2257" stop-color="#169AC7"/>
<stop offset="0.5946" stop-color="#1FC3DF"/>
<stop offset="1" stop-color="#2AF6FF"/>
</linearGradient>
<linearGradient id="paint26_linear" x1="163.75" y1="189.856" x2="188.41" y2="173.737" gradientUnits="userSpaceOnUse">
<stop stop-color="#1BB0D4"/>
<stop offset="0.1067" stop-color="#1EBFDD"/>
<stop offset="0.2374" stop-color="#23D8EC"/>
<stop offset="0.3669" stop-color="#1EC0DD"/>
<stop offset="0.4394" stop-color="#1BB0D4"/>
<stop offset="0.4954" stop-color="#1BB0D4"/>
<stop offset="0.5051" stop-color="#1BB0D4"/>
<stop offset="0.5455" stop-color="#20C6E2"/>
<stop offset="0.563" stop-color="#1BAFD4"/>
<stop offset="0.5842" stop-color="#179BC7"/>
<stop offset="0.6053" stop-color="#148FC0"/>
<stop offset="0.6263" stop-color="#138BBD"/>
</linearGradient>
<linearGradient id="paint27_linear" x1="115.65" y1="240.984" x2="184.222" y2="170.552" gradientUnits="userSpaceOnUse">
<stop offset="0.0353535" stop-color="#138BBD"/>
<stop offset="0.2257" stop-color="#169AC7"/>
<stop offset="0.5946" stop-color="#1FC3DF"/>
<stop offset="1" stop-color="#2AF6FF"/>
</linearGradient>
<linearGradient id="paint28_linear" x1="165.555" y1="196.694" x2="191.511" y2="207.865" gradientUnits="userSpaceOnUse">
<stop offset="0.0353535" stop-color="#138BBD"/>
<stop offset="0.2257" stop-color="#169AC7"/>
<stop offset="0.5946" stop-color="#1FC3DF"/>
<stop offset="1" stop-color="#2AF6FF"/>
</linearGradient>
<linearGradient id="paint29_linear" x1="174.953" y1="200.749" x2="185.493" y2="205.285" gradientUnits="userSpaceOnUse">
<stop offset="0.0353535" stop-color="#138BBD"/>
<stop offset="0.2257" stop-color="#169AC7"/>
<stop offset="0.5946" stop-color="#1FC3DF"/>
<stop offset="1" stop-color="#2AF6FF"/>
</linearGradient>
<linearGradient id="paint30_linear" x1="182.564" y1="78.4499" x2="259.441" y2="64.9034" gradientUnits="userSpaceOnUse">
<stop offset="0.0353535" stop-color="#9F19AB"/>
<stop offset="0.2438" stop-color="#AE25B1"/>
<stop offset="0.6455" stop-color="#D744BF"/>
<stop offset="1" stop-color="#FF63CE"/>
</linearGradient>
<linearGradient id="paint31_linear" x1="251.545" y1="-23.5699" x2="214.914" y2="90.5758" gradientUnits="userSpaceOnUse">
<stop offset="0.0353535" stop-color="#9F19AB"/>
<stop offset="0.2438" stop-color="#AE25B1"/>
<stop offset="0.6455" stop-color="#D744BF"/>
<stop offset="1" stop-color="#FF63CE"/>
</linearGradient>
<linearGradient id="paint32_linear" x1="220.696" y1="62.9236" x2="202.589" y2="66.1144" gradientUnits="userSpaceOnUse">
<stop stop-color="#9F19AB"/>
<stop offset="0.1364" stop-color="#AE25B1"/>
<stop offset="0.3993" stop-color="#D744BF"/>
<stop offset="0.6313" stop-color="#FF63CE"/>
<stop offset="0.8737" stop-color="#DC48C1"/>
</linearGradient>
<linearGradient id="paint33_linear" x1="237.341" y1="76.689" x2="256.61" y2="103.571" gradientUnits="userSpaceOnUse">
<stop offset="0.0353535" stop-color="#9F19AB"/>
<stop offset="0.2438" stop-color="#AE25B1"/>
<stop offset="0.6455" stop-color="#D744BF"/>
<stop offset="1" stop-color="#FF63CE"/>
</linearGradient>
<linearGradient id="paint34_linear" x1="231.985" y1="91.5844" x2="311.801" y2="51.527" gradientUnits="userSpaceOnUse">
<stop offset="0.0353535" stop-color="#9F19AB"/>
<stop offset="0.2438" stop-color="#AE25B1"/>
<stop offset="0.6455" stop-color="#D744BF"/>
<stop offset="1" stop-color="#FF63CE"/>
</linearGradient>
<linearGradient id="paint35_linear" x1="167.549" y1="93.4844" x2="214.091" y2="74.0915" gradientUnits="userSpaceOnUse">
<stop offset="0.0353535" stop-color="#9F19AB"/>
<stop offset="0.2438" stop-color="#AE25B1"/>
<stop offset="0.6455" stop-color="#D744BF"/>
<stop offset="1" stop-color="#FF63CE"/>
</linearGradient>
<linearGradient id="paint36_linear" x1="205.678" y1="102.653" x2="233.759" y2="90.9525" gradientUnits="userSpaceOnUse">
<stop offset="0.0353535" stop-color="#9F19AB"/>
<stop offset="0.2438" stop-color="#AE25B1"/>
<stop offset="0.6455" stop-color="#D744BF"/>
<stop offset="1" stop-color="#FF63CE"/>
</linearGradient>
<linearGradient id="paint37_linear" x1="203.69" y1="100.811" x2="222.946" y2="127.683" gradientUnits="userSpaceOnUse">
<stop offset="0.0353535" stop-color="#9F19AB"/>
<stop offset="0.2438" stop-color="#AE25B1"/>
<stop offset="0.6455" stop-color="#D744BF"/>
<stop offset="1" stop-color="#FF63CE"/>
</linearGradient>
<linearGradient id="paint38_linear" x1="212.213" y1="96.8344" x2="191.641" y2="100.46" gradientUnits="userSpaceOnUse">
<stop stop-color="#9F19AB"/>
<stop offset="0.1659" stop-color="#AE25B1"/>
<stop offset="0.4855" stop-color="#D744BF"/>
<stop offset="0.7677" stop-color="#FF63CE"/>
<stop offset="0.9242" stop-color="#DC48C1"/>
</linearGradient>
<clipPath id="clip0">
<rect width="297" height="220" fill="white"/>
</clipPath>
</defs>
</svg>
