<svg width="101" height="101" viewBox="0 0 101 101" fill="none" xmlns="http://www.w3.org/2000/svg">
<path d="M101 67.9156V94.3394L0 101V75.4497L29.7383 73.2659L83.4875 69.2259L99.0174 68.134L101 67.9156Z" fill="#512C1A"/>
<path d="M0 77.3059V99.7989L99.0175 93.6843V70.427L0 77.3059Z" fill="url(#paint0_linear)"/>
<path d="M101 43.2389V69.6627L81.1745 70.9729L0 76.3232V50.7729L101 43.2389Z" fill="#512C1A"/>
<path d="M0 52.6292V75.1221L99.0175 68.8984V45.7502L0 52.6292Z" fill="url(#paint1_linear)"/>
<path d="M101 43.2389C101 43.2389 8.26063 52.4108 0 50.6638C0 50.6638 29.2977 37.2335 52.2072 28.4984C57.2737 26.5329 62.12 24.7859 66.1952 23.5848C66.1952 23.5848 75.0065 28.3892 85.2497 34.1762C90.5365 37.1243 96.1538 40.2908 101 43.2389Z" fill="#603222"/>
<path d="M85.2497 34.1761C85.1396 34.067 84.9193 33.9578 84.8092 33.9578C84.0382 35.1588 83.0469 36.1415 81.8353 37.0151C59.807 53.0659 33.1527 43.5664 8.04035 47.1697C3.08397 49.3534 0 50.7729 0 50.7729C8.26063 52.5199 101 43.348 101 43.348C96.1538 40.2907 90.5365 37.1242 85.2497 34.1761Z" fill="#512C1A"/>
<path opacity="0.2" d="M85.5802 36.5784V36.6876C85.2498 38.5438 83.9281 40.0725 82.1658 40.7276C80.4035 41.3827 78.5311 41.9287 76.6587 42.3654C67.9575 44.2217 58.7056 43.3481 50.2247 40.8368C49.0131 40.5092 47.6914 40.0725 47.0306 39.0898C46.7001 38.653 46.4799 37.9979 46.3697 37.3427C46.1494 36.1417 46.4799 34.9406 47.1407 34.0671C47.2509 33.8487 47.361 33.7395 47.5813 33.6303C47.6914 33.5211 47.8016 33.4119 48.0218 33.4119C48.3523 33.3027 48.6827 33.1936 48.903 32.9752C49.1233 32.7568 49.2334 32.32 49.1233 31.9925C49.1233 31.4465 49.0131 30.9006 49.3435 30.4638C49.674 30.1363 50.1145 30.0271 50.5551 30.1363C50.9957 30.1363 51.3261 30.2454 51.7667 30.2454H51.8768C51.987 30.2454 52.0971 30.1363 52.2072 30.1363C52.3174 30.0271 52.3174 29.8087 52.2072 29.5903C52.2072 29.4811 52.2072 29.3719 52.2072 29.2627C52.2072 29.0444 52.2072 28.826 52.3174 28.6076C57.3839 26.6422 62.2301 24.8952 66.3054 23.6941C66.3054 23.6941 75.1167 28.4984 85.3599 34.2854C85.5802 34.9406 85.8005 35.8141 85.5802 36.5784Z" fill="#CD0301"/>
<path d="M84.9191 35.9233V36.0325C84.5886 37.8887 83.2669 39.4174 81.5047 40.0725C79.7424 40.7276 77.87 41.2736 75.9976 41.7103C67.2964 43.5665 58.0445 42.693 49.5635 40.1817C48.352 39.8541 47.0303 39.4174 46.3694 38.4347C46.039 37.9979 45.8187 37.3428 45.7086 36.6876C45.4883 35.4865 45.8187 34.2855 46.4796 33.4119C46.5897 33.1936 46.6999 33.0844 46.9201 32.9752C47.0303 32.866 47.1404 32.7568 47.3607 32.7568C47.6911 32.6476 48.0216 32.5384 48.2418 32.3201C48.4621 32.1017 48.5723 31.6649 48.4621 31.3374C48.4621 30.7914 48.352 30.2455 48.6824 29.8087C49.0128 29.4811 49.4534 29.3719 49.894 29.4811C50.3345 29.4811 50.665 29.5903 51.1055 29.5903H51.2157C51.3258 29.5903 51.436 29.4811 51.5461 29.3719C51.6562 29.2628 51.6562 29.0444 51.5461 28.826C51.5461 28.7168 51.5461 28.6076 51.5461 28.4984C51.5461 28.1709 51.6562 27.8433 51.7664 27.5157C51.9867 27.079 52.4272 26.8606 52.8678 26.7514C53.1982 26.7514 53.6388 26.8606 53.9692 26.7514C54.0794 26.7514 54.0794 26.7514 54.1895 26.6422C54.4098 26.4238 54.5199 26.0963 54.6301 25.7687C54.6301 25.6595 54.6301 25.6595 54.6301 25.5503C54.6301 25.1136 54.6301 24.786 54.7402 24.3492C54.9605 24.0217 55.1808 23.8033 55.5112 23.6941C55.8416 23.5849 56.1721 23.4757 56.5025 23.4757C56.6126 23.4757 56.8329 23.4757 56.943 23.4757C57.3836 23.3665 57.714 23.2573 57.6039 22.7114C57.6039 22.3838 57.3836 22.1655 57.3836 21.9471C57.3836 21.7287 57.3836 21.5103 57.6039 21.2919C57.8242 20.9644 58.2647 20.8552 58.5952 20.746C59.256 20.5276 59.9169 20.3092 60.5777 20.2001C61.2386 20.0909 61.7893 20.2001 62.1197 19.4357C62.34 18.999 62.34 18.453 62.34 18.0163C62.34 17.7979 62.1197 17.6887 62.0096 17.5795C61.8994 17.4703 61.6791 17.2519 61.7893 17.0336C61.7893 16.8152 62.0096 16.8152 62.2299 16.8152C62.4501 16.8152 62.5603 16.9244 62.6704 17.0336C63.5516 17.5795 64.653 18.0163 64.9834 19.1082C65.2037 19.7633 65.2037 20.746 66.195 20.746C66.5254 20.746 66.7457 20.6368 67.0761 20.5276C68.1775 20.3092 69.3891 20.9644 69.6094 22.0563C69.6094 22.2746 69.7195 22.493 69.7195 22.7114C69.8296 23.1482 69.9398 23.4757 70.2702 23.5849H70.3803C70.7108 23.6941 71.1513 23.4757 71.5919 23.3665C72.8035 23.039 74.2353 23.9125 74.3454 25.2228C74.3454 25.4411 74.3454 25.6595 74.4556 25.8779V25.9871C74.6759 26.533 75.2266 26.8606 75.7773 26.9698C75.8874 26.9698 75.9976 26.9698 76.1077 26.9698C76.7686 26.9698 77.5396 26.8606 78.2004 26.9698C79.5221 27.1882 80.5134 28.7168 80.183 30.0271C80.183 30.1363 80.0728 30.2455 80.0728 30.3546C80.0728 30.573 80.0728 30.7914 80.183 31.0098C80.2931 31.119 80.5134 31.119 80.6235 31.119C81.2844 31.119 81.9452 31.3374 82.6061 31.5557C83.1568 31.7741 83.5974 32.1017 83.9278 32.5384C84.6988 33.5211 85.1393 34.7222 84.9191 35.9233Z" fill="#F8A70F"/>
<path d="M82.6058 31.5558C76.8784 38.3255 64.3223 34.7222 64.3223 34.7222C73.9046 34.2855 78.09 32.2109 80.0725 30.4639C80.0725 30.6822 80.0725 30.9006 80.1827 31.119C80.2928 31.2282 80.5131 31.2282 80.6232 31.2282C81.3942 31.0098 82.0551 31.2282 82.6058 31.5558Z" fill="#EF970A"/>
<path d="M75.7777 26.9698C72.6938 28.826 68.2881 28.0617 68.2881 28.0617C71.7025 27.8433 73.4648 26.8606 74.3459 25.8779V25.9871C74.5662 26.6423 75.227 26.9698 75.7777 26.9698Z" fill="#EF970A"/>
<path d="M70.38 23.6941C68.2873 24.8952 65.3135 25.0043 65.3135 25.0043C67.8467 24.3492 69.0583 23.4757 69.7191 22.8206C69.8293 23.1481 69.9394 23.4757 70.38 23.6941C70.2699 23.6941 70.38 23.6941 70.38 23.6941Z" fill="#EF970A"/>
<path d="M65.3136 20.0908C64.9832 20.4184 64.3223 20.8551 63.3311 21.0735C63.3311 21.0735 64.7629 20.9643 65.9745 20.6368L65.3136 20.0908Z" fill="#EF970A"/>
<path d="M57.6042 22.8206C57.6042 22.493 57.3839 22.2747 57.3839 22.0563C58.4853 23.1482 60.3578 24.5676 62.7809 24.6768C61.6795 24.6768 59.0361 24.4584 56.9434 23.5849C57.3839 23.4757 57.7143 23.2574 57.6042 22.8206Z" fill="#EF970A"/>
<path d="M61.0178 27.4066C61.0178 27.4066 57.3831 28.6077 53.9688 26.6422C54.0789 26.6422 54.0789 26.6422 54.189 26.5331C54.4093 26.3147 54.5195 25.9871 54.6296 25.6595C56.0614 26.4239 58.815 27.4066 61.0178 27.4066Z" fill="#EF970A"/>
<path d="M58.1541 31.119C58.1541 31.119 54.4093 31.3373 50.8848 29.5903H50.9949C51.105 29.5903 51.2152 29.4811 51.3253 29.3719C51.4355 29.2627 51.4355 29.0444 51.3253 28.826C51.3253 28.7168 51.3253 28.6076 51.3253 28.4984C52.7572 29.3719 55.1803 30.7914 58.1541 31.119Z" fill="#EF970A"/>
<path d="M57.3837 34.8314C57.3837 34.8314 52.2071 35.8141 46.5898 32.866C46.7 32.7568 46.8101 32.6476 47.0304 32.6476C47.3608 32.5384 47.6913 32.4292 47.9115 32.2109C48.1318 31.9925 48.242 31.5557 48.1318 31.2281C50.0042 32.4292 53.3085 34.2854 57.3837 34.8314Z" fill="#EF970A"/>
<path d="M84.9195 35.9233V36.0325C84.589 37.8887 83.2673 39.4174 81.5051 40.0725C79.7428 40.7277 77.8704 41.2736 75.998 41.7104C67.2968 43.5666 58.0449 42.6931 49.5639 40.1817C48.3524 39.8542 47.0307 39.4174 46.3698 38.4347C46.0394 37.9979 45.8191 37.3428 45.709 36.6877C51.8769 38.8714 72.2531 44.7677 84.9195 35.9233Z" fill="#EF970A"/>
<path d="M69.61 15.8324C69.2796 15.7232 69.1694 15.2865 69.2796 14.9589C69.8303 12.5568 72.1433 3.49405 75.778 0C75.778 0 76.5489 0 76.2185 0.545946C75.9982 0.982703 72.3636 6.98811 70.4911 15.2865C70.381 15.7232 69.9404 16.0508 69.61 15.8324Z" fill="#603222"/>
<path d="M75.998 21.7286C75.998 25.5503 72.914 28.6076 69.059 28.6076C65.2041 28.6076 62.1201 25.5503 62.1201 21.7286C62.1201 17.907 65.2041 14.8497 69.059 14.8497C72.914 14.9589 75.998 18.0162 75.998 21.7286Z" fill="#DD1C1F"/>
<path d="M75.9979 21.7287C75.9979 25.5503 72.9139 28.6076 69.059 28.6076C66.5257 28.6076 64.3229 27.2973 63.1113 25.2227C64.1026 25.8779 65.3142 26.2054 66.6359 26.2054C70.4908 26.2054 73.4647 23.1481 73.4647 19.4357C73.4647 18.1254 73.1342 17.0335 72.4734 15.9417C74.6762 17.0335 75.9979 19.2173 75.9979 21.7287Z" fill="#CC121C"/>
<path d="M63.0013 21.4011C63.0013 21.4011 62.8912 17.0335 67.2969 16.16C68.178 16.2692 65.865 16.8152 64.8737 17.7979C63.8825 18.7806 63.3318 20.0908 63.552 21.6195C63.6622 23.3665 62.781 22.6022 63.0013 21.4011Z" fill="#FDEECF"/>
<path d="M68.508 16.2692C68.3979 16.2692 68.3979 16.2692 68.2877 16.2692C68.1776 16.2692 67.9573 16.2692 67.8472 16.2692H67.737C67.6269 16.16 67.737 16.0508 67.8472 16.0508C68.0675 15.9416 68.1776 15.9417 68.3979 15.9417C68.508 15.9417 68.6182 16.0508 68.6182 16.16C68.6182 16.16 68.6182 16.16 68.508 16.2692Z" fill="#FDEECF"/>
<path d="M61.5695 23.3665C61.5695 23.3665 67.7374 28.6075 74.3459 27.734C74.3459 27.6248 60.9086 38.4346 61.5695 23.3665Z" fill="#EF970A"/>
<path d="M72.3634 27.7341C72.3634 27.7341 68.6186 27.8433 62.6709 24.1309C62.6709 24.1309 67.6273 29.4811 72.3634 27.7341Z" fill="#EF970A"/>
<defs>
<linearGradient id="paint0_linear" x1="9.5" y1="92.5" x2="99" y2="88.5" gradientUnits="userSpaceOnUse">
<stop stop-color="#EC7F18"/>
<stop offset="1" stop-color="#FFAB5C"/>
</linearGradient>
<linearGradient id="paint1_linear" x1="6.65324e-07" y1="63.5" x2="99" y2="63.5" gradientUnits="userSpaceOnUse">
<stop stop-color="#EC7F18"/>
<stop offset="1" stop-color="#FFB773"/>
</linearGradient>
</defs>
</svg>
