<svg width="21" height="20" viewBox="0 0 21 20" fill="none" xmlns="http://www.w3.org/2000/svg">
<g clip-path="url(#clip0)">
<path d="M19.4447 0H7.83668C7.00937 0 6.33636 0.641 6.33636 1.42887V4.78252C6.65525 4.78252 12.9135 4.78252 13.1633 4.78252C14.7458 4.78252 16.0333 6.00865 16.0333 7.51578C16.0333 7.79791 16.0333 13.8415 16.0333 13.9131H19.4447C20.272 13.9131 20.9451 13.2721 20.9451 12.4842V1.42887C20.945 0.641 20.272 0 19.4447 0Z" fill="white"/>
<path d="M13.1633 6.08691H1.55528C0.728012 6.08691 0.0549164 6.72791 0.0549164 7.51583V18.5711C0.054962 19.359 0.727967 20 1.55528 20H13.1633C13.9907 20 14.6637 19.359 14.6637 18.5712V7.51583C14.6638 6.72791 13.9906 6.08691 13.1633 6.08691Z" fill="white"/>
</g>
<defs>
<clipPath id="clip0">
<rect width="21" height="20" fill="white"/>
</clipPath>
</defs>
</svg>
