<svg width="30" height="30" viewBox="0 0 30 30" fill="none" xmlns="http://www.w3.org/2000/svg">
<path d="M29.7361 5.95996L20.6377 14.9997L29.7361 24.0395C29.9005 23.6958 30.0003 23.3157 30.0003 22.9099V7.08959C30.0003 6.68371 29.9005 6.30373 29.7361 5.95996Z" fill="#272727"/>
<path d="M27.363 4.45312H2.63646C2.23059 4.45312 1.85061 4.55291 1.50684 4.71738L13.1355 16.2875C14.1637 17.3157 15.8358 17.3157 16.864 16.2875L28.4927 4.71738C28.1489 4.55291 27.7689 4.45312 27.363 4.45312Z" fill="#272727"/>
<path d="M0.264258 5.95996C0.0997852 6.30373 0 6.68371 0 7.08959V22.9099C0 23.3158 0.0997852 23.6958 0.264258 24.0395L9.36264 14.9997L0.264258 5.95996Z" fill="#272727"/>
<path d="M19.3943 16.2432L18.1068 17.5306C16.3936 19.2439 13.6059 19.2439 11.8926 17.5306L10.6052 16.2432L1.50684 25.2829C1.85061 25.4474 2.23059 25.5472 2.63646 25.5472H27.363C27.7689 25.5472 28.1489 25.4474 28.4927 25.2829L19.3943 16.2432Z" fill="#272727"/>
</svg>
