<svg width="24" height="25" viewBox="0 0 24 25" fill="none" xmlns="http://www.w3.org/2000/svg">
<path d="M10.9551 23.7981C17.2769 23.7981 21.4763 19.2773 21.4763 12.8963C21.4763 12.1657 21.4018 11.6017 21.2981 11.0392L10.9565 11.0392V14.8755L17.1746 14.8755C16.9205 16.505 15.2918 19.6865 10.9565 19.6865C7.22157 19.6865 4.17169 16.5347 4.17169 12.6374C4.17169 8.74008 7.22011 5.5868 10.9565 5.5868C13.0935 5.5868 14.5133 6.51538 15.321 7.30704L18.2949 4.3993C16.38 2.57341 13.9144 1.47668 10.9551 1.47668C4.90202 1.47668 0 6.47073 0 12.6374C0 18.8041 4.90202 23.7981 10.9551 23.7981Z" fill="#272727"/>
</svg>
