<svg width="26" height="28" viewBox="0 0 26 28" fill="none" xmlns="http://www.w3.org/2000/svg">
<path d="M25.9933 28.0001V27.9989H25.9998V17.7299C25.9998 12.7063 24.9956 8.83643 19.5421 8.83643C16.9204 8.83643 15.1611 10.3858 14.4428 11.8546H14.367V9.30543H9.19623V27.9989H14.5804V18.7426C14.5804 16.3054 15.0094 13.9488 17.812 13.9488C20.5734 13.9488 20.6146 16.7301 20.6146 18.8989V28.0001H25.9933Z" fill="white"/>
<path d="M0.429199 9.30664H5.81987V28.0001H0.429199V9.30664Z" fill="white"/>
<path d="M3.12217 0C1.39858 0 0 1.50617 0 3.36233C0 5.2185 1.39858 6.75617 3.12217 6.75617C4.84575 6.75617 6.24433 5.2185 6.24433 3.36233C6.24325 1.50617 4.84467 0 3.12217 0V0Z" fill="white"/>
</svg>
