<svg width="39" height="34" viewBox="0 0 39 34" fill="none" xmlns="http://www.w3.org/2000/svg">
<path d="M19.5 5.61763C18.8273 5.61763 18.2812 5.07163 18.2812 4.39888V1.21875C18.2812 0.546 18.8273 0 19.5 0C20.1727 0 20.7188 0.546 20.7188 1.21875V4.39888C20.7188 5.07163 20.1727 5.61763 19.5 5.61763Z" fill="white"/>
<path d="M30.1783 10.041C29.8663 10.041 29.5543 9.92237 29.3171 9.68349C28.8409 9.20737 28.8409 8.43549 29.3171 7.95936L31.5661 5.71037C32.0422 5.23424 32.8141 5.23424 33.2902 5.71037C33.7663 6.18649 33.7663 6.95836 33.2902 7.43449L31.0412 9.68349C30.8023 9.92074 30.4903 10.041 30.1783 10.041Z" fill="white"/>
<path d="M37.7817 20.7188H34.6016C33.9288 20.7188 33.3828 20.1727 33.3828 19.5C33.3828 18.8273 33.9288 18.2812 34.6016 18.2812H37.7817C38.4544 18.2812 39.0004 18.8273 39.0004 19.5C39.0004 20.1727 38.4544 20.7188 37.7817 20.7188Z" fill="white"/>
<path d="M32.4273 33.6457C32.1153 33.6457 31.8033 33.5271 31.5661 33.2882L29.3171 31.0392C28.8409 30.5631 28.8409 29.7912 29.3171 29.3151C29.7932 28.839 30.5651 28.839 31.0412 29.3151L33.2902 31.5641C33.7663 32.0402 33.7663 32.8121 33.2902 33.2882C33.0513 33.5271 32.7393 33.6457 32.4273 33.6457Z" fill="white"/>
<path d="M6.57284 33.6457C6.26084 33.6457 5.94884 33.5271 5.71159 33.2882C5.23546 32.8121 5.23546 32.0402 5.71159 31.5641L7.96059 29.3151C8.43671 28.839 9.20858 28.839 9.68471 29.3151C10.1608 29.7912 10.1608 30.5631 9.68471 31.0392L7.43571 33.2882C7.19684 33.5271 6.88484 33.6457 6.57284 33.6457Z" fill="white"/>
<path d="M4.39888 20.7188H1.21875C0.546 20.7188 0 20.1727 0 19.5C0 18.8273 0.546 18.2812 1.21875 18.2812H4.39888C5.07163 18.2812 5.61763 18.8273 5.61763 19.5C5.61763 20.1727 5.07163 20.7188 4.39888 20.7188Z" fill="white"/>
<path d="M8.82183 10.041C8.50983 10.041 8.19784 9.92237 7.96059 9.68349L5.71159 7.43449C5.23546 6.95836 5.23546 6.18649 5.71159 5.71037C6.18771 5.23424 6.95959 5.23424 7.43571 5.71037L9.68471 7.95936C10.1608 8.43549 10.1608 9.20737 9.68471 9.68349C9.44421 9.92074 9.13383 10.041 8.82183 10.041Z" fill="white"/>
</svg>
