<svg width="23" height="31" viewBox="0 0 23 31" fill="none" xmlns="http://www.w3.org/2000/svg">
<path d="M16.375 26.125V28.1562C16.375 29.7162 15.0912 31 13.5312 31H9.46875C8.10375 31 6.625 29.96 6.625 27.685V26.125H16.375Z" fill="white"/>
<path d="M18.6664 2.66021C16.0014 0.498963 12.4914 -0.346037 9.06264 0.385213C4.75639 1.27896 1.26264 4.78896 0.368885 9.09522C-0.541115 13.5152 1.11638 17.9027 4.65889 20.584C5.61764 21.299 6.28389 22.404 6.51139 23.6877V23.704C6.54389 23.6877 6.59264 23.6877 6.62514 23.6877H16.3751C16.4076 23.6877 16.4239 23.6877 16.4564 23.704V23.6877C16.6839 22.4527 17.4151 21.3152 18.5364 20.4377C21.2826 18.2602 22.8751 15.0102 22.8751 11.5002C22.8751 8.05521 21.3476 4.83771 18.6664 2.66021ZM17.5939 12.3127C16.9276 12.3127 16.3751 11.7602 16.3751 11.094C16.3751 8.62396 14.3764 6.62521 11.9064 6.62521C11.2401 6.62521 10.6876 6.07271 10.6876 5.40646C10.6876 4.74021 11.2401 4.18771 11.9064 4.18771C15.7089 4.18771 18.8126 7.29146 18.8126 11.094C18.8126 11.7602 18.2601 12.3127 17.5939 12.3127Z" fill="white"/>
<path d="M8.55762 25.1875H8.6247C8.60553 25.1875 8.57678 25.1875 8.55762 25.2012V25.1875Z" fill="white"/>
<path d="M14.4229 25.1875V25.2012C14.4037 25.1875 14.3942 25.1875 14.375 25.1875H14.4229Z" fill="white"/>
</svg>
