<svg width="25" height="24" viewBox="0 0 25 24" fill="none" xmlns="http://www.w3.org/2000/svg">
<g clip-path="url(#clip0)">
<path d="M23.1484 0H9.3293C8.34441 0 7.54321 0.7692 7.54321 1.71464V5.73903C7.92283 5.73903 15.3731 5.73903 15.6705 5.73903C17.5545 5.73903 19.0871 7.21038 19.0871 9.01894C19.0871 9.3575 19.0871 16.6098 19.0871 16.6958H23.1484C24.1333 16.6958 24.9345 15.9266 24.9345 14.9811V1.71464C24.9345 0.7692 24.1333 0 23.1484 0Z" fill="white"/>
<path d="M15.6706 7.3042H1.85151C0.866673 7.3042 0.0653687 8.0734 0.0653687 9.0189V22.2853C0.065423 23.2308 0.866619 24 1.85151 24H15.6706C16.6555 24 17.4568 23.2308 17.4568 22.2853V9.0189C17.4568 8.0734 16.6555 7.3042 15.6706 7.3042Z" fill="white"/>
</g>
<defs>
<clipPath id="clip0">
<rect width="25" height="24" fill="white"/>
</clipPath>
</defs>
</svg>
