<svg width="25" height="25" viewBox="0 0 25 25" fill="none" xmlns="http://www.w3.org/2000/svg">
<path d="M23.8603 0H1.13971C0.510621 0 0 0.510621 0 1.13971V23.8562C0 24.4894 0.510621 25 1.13971 25H23.8562C24.4853 25 24.9959 24.4894 24.9959 23.8603V1.13971C25 0.510621 24.4894 0 23.8603 0ZM3.92974 21.875C3.70915 21.875 3.51307 21.7851 3.37418 21.6381C3.22304 21.5114 3.12909 21.3235 3.12909 21.0907V13.6887C3.81536 12.9003 4.69363 13.3824 4.69363 14.0645L4.66095 19.1993L9.96732 13.8971L11.0703 15L5.7598 20.3105H10.9395C11.6217 20.3105 12.0997 21.1846 11.3154 21.875H3.92974ZM21.875 11.3113C21.1887 12.0997 20.3105 11.6176 20.3105 10.9355L20.335 5.80065L15.0327 11.1029L13.9297 10L19.2402 4.68954H13.6887C12.9003 4.00327 13.3824 3.125 14.0645 3.125H21.0743C21.2949 3.125 21.491 3.21487 21.6299 3.36193C21.781 3.48856 21.875 3.67647 21.875 3.90931V11.3113Z" fill="#9B9BA5"/>
</svg>
