<?xml version="1.0" encoding="utf-8"?>
<!-- Generator: Adobe Illustrator 22.0.0, SVG Export Plug-In . SVG Version: 6.00 Build 0)  -->
<svg version="1.1" id="Слой_1" xmlns="http://www.w3.org/2000/svg" xmlns:xlink="http://www.w3.org/1999/xlink" x="0px" y="0px"
	 viewBox="0 0 25 25" style="enable-background:new 0 0 25 25;" xml:space="preserve">
<style type="text/css">
	.st0{fill:#9B9BA5;}
</style>
<path class="st0" d="M24,0H1.3C0.6,0,0.1,0.5,0.1,1.1v22.7c0,0.6,0.5,1.1,1.2,1.1H24c0.6,0,1.1-0.5,1.1-1.1V1.1
	C25.1,0.5,24.6,0,24,0z M11.7,21.5c-0.7,0.8-1.6,0.3-1.6-0.4l0-5.1l-5.3,5.3l-1.1-1.1l5.3-5.3H3.9c-0.7,0-1.2-0.9-0.4-1.6h7.4
	c0.2,0,0.4,0.1,0.6,0.2c0.2,0.1,0.2,0.3,0.2,0.5V21.5z M21.1,11.7h-7c-0.2,0-0.4-0.1-0.6-0.2c-0.2-0.1-0.3-0.3-0.3-0.5V3.5
	c0.7-0.8,1.6-0.3,1.6,0.4l0,5.1l5.3-5.3l1.1,1.1l-5.3,5.3h5.5C22.3,10.8,21.8,11.7,21.1,11.7z"/>
</svg>
