<svg width="19" height="19" viewBox="0 0 19 19" fill="none" xmlns="http://www.w3.org/2000/svg">
<path d="M14.7778 0H2.11113C0.944706 0 0 0.944706 0 2.11113V16.8889C0 18.0553 0.944706 19 2.11113 19H16.8889C18.0553 19 19 18.0553 19 16.8889V4.22221L14.7778 0ZM9.5 16.8889C7.75304 16.8889 6.33333 15.4692 6.33333 13.7222C6.33333 11.9752 7.75304 10.5555 9.5 10.5555C11.247 10.5555 12.6667 11.9752 12.6667 13.7222C12.6667 15.4692 11.247 16.8889 9.5 16.8889ZM12.6667 6.33333H2.11113V2.11113H12.6667V6.33333Z" fill="white"/>
</svg>
