<svg width="20" height="20" viewBox="0 0 20 20" fill="none" xmlns="http://www.w3.org/2000/svg">
<path d="M20 3C20 2.44772 19.5523 2 19 2H1C0.447716 2 0 2.44772 0 3V17.25C0 17.8023 0.447715 18.25 1 18.25H19C19.5523 18.25 20 17.8023 20 17.25V3ZM3.86161 4.23214C4.73688 4.23214 5.44643 4.94161 5.44643 5.81696C5.44643 6.69232 4.73688 7.40179 3.86161 7.40179C2.98634 7.40179 2.27679 6.69232 2.27679 5.81696C2.27679 4.94161 2.98634 4.23214 3.86161 4.23214ZM13.0976 15.2521H9.5975H4.25583C3.46189 15.2521 2.98456 14.3713 3.41798 13.7061L6.91613 8.33734C7.31061 7.73191 8.19728 7.73189 8.59179 8.33731L10.5097 11.2805C10.9042 11.8859 11.7908 11.8859 12.1853 11.2805L12.7556 10.4055C13.1501 9.80006 14.0367 9.80007 14.4312 10.4055L16.5819 13.7061C17.0154 14.3713 16.5381 15.2521 15.7441 15.2521H13.0976Z" fill="white"/>
</svg>
