<svg width="20" height="20" viewBox="0 0 20 20" fill="none" xmlns="http://www.w3.org/2000/svg">
<g clip-path="url(#clip0)">
<path d="M0.90918 20.0002L5.81329 19.4928L1.41686 15.0962L0.90918 20.0002Z" fill="white"/>
<path d="M11.1123 5.40029C11.5028 5.00977 12.1359 5.00977 12.5265 5.40029L15.5087 8.38251C15.8992 8.77303 15.8992 9.4062 15.5087 9.79672L7.36533 17.9401C6.97481 18.3306 6.34165 18.3306 5.95112 17.9401L2.96884 14.9579C2.57831 14.5673 2.57831 13.9342 2.96884 13.5436L11.1123 5.40029ZM19.9997 5.45463C18.5109 3.91346 16.9954 2.39796 15.4543 0.90918C14.7821 1.6829 14.0789 2.41916 13.3619 3.14631C12.9741 3.53957 12.9735 4.17208 13.364 4.5626L16.3464 7.54479C16.7369 7.93529 17.3694 7.93462 17.7626 7.54685C18.4898 6.82985 19.226 6.1267 19.9997 5.45463Z" fill="white"/>
</g>
<defs>
<clipPath id="clip0">
<rect x="0.90918" y="0.90918" width="19.0909" height="19.0909" fill="white"/>
</clipPath>
</defs>
</svg>
