<svg width="73" height="22" viewBox="0 0 73 22" fill="none" xmlns="http://www.w3.org/2000/svg">
<g clip-path="url(#clip0)">
<path d="M59.6324 13.916L59.2685 19.0346C59.7892 19.0346 60.0147 18.811 60.2851 18.5424L62.7262 16.2095L67.7843 19.9137C68.712 20.4307 69.3656 20.1585 69.6158 19.0603L72.936 3.50263L72.9369 3.50171C73.2312 2.13038 72.441 1.59413 71.5372 1.93055L52.0213 9.4023C50.6894 9.9193 50.7096 10.6618 51.7949 10.9982L56.7843 12.5501L68.3737 5.29838C68.9192 4.93721 69.4151 5.13705 69.0072 5.49821L59.6324 13.916Z" fill="white"/>
</g>
<path d="M44.3536 11.3535C44.5488 11.1583 44.5488 10.8417 44.3536 10.6464L41.1716 7.46446C40.9763 7.2692 40.6597 7.2692 40.4645 7.46446C40.2692 7.65972 40.2692 7.97631 40.4645 8.17157L43.2929 11L40.4645 13.8284C40.2692 14.0237 40.2692 14.3403 40.4645 14.5355C40.6597 14.7308 40.9763 14.7308 41.1716 14.5355L44.3536 11.3535ZM4.37114e-08 11.5L44 11.5L44 10.5L-4.37114e-08 10.5L4.37114e-08 11.5Z" fill="white"/>
<defs>
<clipPath id="clip0">
<rect width="22" height="22" fill="white" transform="translate(51)"/>
</clipPath>
</defs>
</svg>
