<svg width="29" height="29" viewBox="0 0 29 29" fill="none" xmlns="http://www.w3.org/2000/svg">
<path d="M14.5 22.9961C9.81554 22.9961 6.00391 19.1845 6.00391 14.5C6.00391 9.81554 9.81554 6.00391 14.5 6.00391C19.1845 6.00391 22.9961 9.81554 22.9961 14.5C22.9961 19.1845 19.1845 22.9961 14.5 22.9961Z" fill="#8FEBFF"/>
<path d="M23.3184 9.40234C22.4348 7.85611 21.1264 6.56471 19.5801 5.66406L24.6947 4.2877L23.3184 9.40234Z" fill="#8FEBFF"/>
<path d="M14.4996 29L11.8828 24.3385C12.7154 24.5764 13.5989 24.6953 14.4996 24.6953C15.4002 24.6953 16.2837 24.5764 17.1164 24.3385L14.4996 29Z" fill="#8FEBFF"/>
<path d="M4.30469 24.6953L5.68105 19.5977C6.5647 21.144 7.83912 22.4184 9.38535 23.3189L4.30469 24.6953Z" fill="#8FEBFF"/>
<path d="M4.66113 17.1338L0.0166016 14.5L4.66113 11.8662C4.42324 12.6988 4.30424 13.5824 4.30424 14.5C4.30424 15.4176 4.42319 16.3012 4.66113 17.1338Z" fill="#8FEBFF"/>
<path d="M5.68105 9.40234L4.30469 4.2877L9.41934 5.66406C7.87305 6.56471 6.56471 7.85611 5.68105 9.40234Z" fill="#8FEBFF"/>
<path d="M14.4994 4.30473C13.5819 4.30473 12.6982 4.42367 11.8486 4.66162L14.4994 5.34058e-05L17.1502 4.66162C16.3006 4.42373 15.4169 4.30473 14.4994 4.30473Z" fill="#8FEBFF"/>
<path d="M19.6064 23.3104C21.1437 22.4157 22.4247 21.1337 23.3172 19.595L24.7007 24.6929L19.6064 23.3104Z" fill="#8FEBFF"/>
<path d="M28.9828 14.4918L24.341 17.1194C24.5643 16.2819 24.6947 15.407 24.6947 14.5001C24.6947 13.5862 24.5626 12.7044 24.3359 11.861L28.9828 14.4918Z" fill="#8FEBFF"/>
</svg>
