<svg width="208" height="36" viewBox="0 0 208 36" fill="none" xmlns="http://www.w3.org/2000/svg">
<path d="M8.784 0.599999V9H6.432V2.484H3.24V9H0.9V0.599999H8.784ZM15.4877 9.168C14.5997 9.168 13.7997 8.98 13.0877 8.604C12.3837 8.228 11.8277 7.708 11.4197 7.044C11.0197 6.38 10.8197 5.632 10.8197 4.8C10.8197 3.968 11.0197 3.22 11.4197 2.556C11.8277 1.892 12.3837 1.372 13.0877 0.995999C13.7997 0.619999 14.5997 0.431999 15.4877 0.431999C16.3757 0.431999 17.1717 0.619999 17.8757 0.995999C18.5877 1.372 19.1437 1.892 19.5437 2.556C19.9517 3.22 20.1557 3.968 20.1557 4.8C20.1557 5.632 19.9517 6.38 19.5437 7.044C19.1437 7.708 18.5877 8.228 17.8757 8.604C17.1717 8.98 16.3757 9.168 15.4877 9.168ZM15.4877 7.2C15.9117 7.2 16.2957 7.1 16.6397 6.9C16.9837 6.7 17.2557 6.42 17.4557 6.06C17.6557 5.692 17.7557 5.272 17.7557 4.8C17.7557 4.328 17.6557 3.912 17.4557 3.552C17.2557 3.184 16.9837 2.9 16.6397 2.7C16.2957 2.5 15.9117 2.4 15.4877 2.4C15.0637 2.4 14.6797 2.5 14.3357 2.7C13.9917 2.9 13.7197 3.184 13.5197 3.552C13.3197 3.912 13.2197 4.328 13.2197 4.8C13.2197 5.272 13.3197 5.692 13.5197 6.06C13.7197 6.42 13.9917 6.7 14.3357 6.9C14.6797 7.1 15.0637 7.2 15.4877 7.2ZM30.9957 7.116V10.692H28.8237V9H23.4477V10.692H21.2637V7.116H21.5637C22.0597 7.108 22.4077 6.768 22.6077 6.096C22.8157 5.424 22.9437 4.456 22.9917 3.192L23.0877 0.599999H29.8557V7.116H30.9957ZM25.0677 3.396C25.0357 4.292 24.9637 5.052 24.8517 5.676C24.7397 6.3 24.5677 6.78 24.3357 7.116H27.5157V2.484H25.1037L25.0677 3.396ZM40.7959 0.599999V9H38.4439V2.484H35.2519V9H32.9119V0.599999H40.7959ZM43.3716 0.599999H45.7116V5.532L49.1796 0.599999H51.4116V9H49.0716V4.08L45.6156 9H43.3716V0.599999ZM58.0873 9.168C57.2073 9.168 56.4153 8.984 55.7113 8.616C55.0153 8.24 54.4673 7.72 54.0673 7.056C53.6673 6.392 53.4673 5.64 53.4673 4.8C53.4673 3.96 53.6673 3.208 54.0673 2.544C54.4673 1.88 55.0153 1.364 55.7113 0.995999C56.4153 0.619999 57.2073 0.431999 58.0873 0.431999C58.8553 0.431999 59.5473 0.568 60.1633 0.84C60.7793 1.112 61.2913 1.504 61.6993 2.016L60.1873 3.384C59.6433 2.728 58.9833 2.4 58.2073 2.4C57.7513 2.4 57.3433 2.5 56.9833 2.7C56.6313 2.9 56.3553 3.184 56.1553 3.552C55.9633 3.912 55.8673 4.328 55.8673 4.8C55.8673 5.272 55.9633 5.692 56.1553 6.06C56.3553 6.42 56.6313 6.7 56.9833 6.9C57.3433 7.1 57.7513 7.2 58.2073 7.2C58.9833 7.2 59.6433 6.872 60.1873 6.216L61.6993 7.584C61.2913 8.096 60.7793 8.488 60.1633 8.76C59.5473 9.032 58.8553 9.168 58.0873 9.168ZM69.208 7.368H65.656L64.996 9H62.572L66.28 0.599999H68.62L72.34 9H69.868L69.208 7.368ZM68.512 5.616L67.432 2.928L66.352 5.616H68.512ZM80.4288 2.484H77.8608V9H75.5208V2.484H72.9408V0.599999H80.4288V2.484ZM86.5881 3.276C87.6201 3.276 88.4161 3.508 88.9761 3.972C89.5361 4.428 89.8161 5.108 89.8161 6.012C89.8161 6.98 89.5041 7.72 88.8801 8.232C88.2561 8.744 87.3881 9 86.2761 9H82.3041V0.599999H84.6441V3.276H86.5881ZM86.1201 7.296C86.5201 7.296 86.8361 7.188 87.0681 6.972C87.3081 6.756 87.4281 6.452 87.4281 6.06C87.4281 5.332 86.9921 4.968 86.1201 4.968H84.6441V7.296H86.1201ZM95.8831 9.168C95.0031 9.168 94.2111 8.984 93.5071 8.616C92.8111 8.24 92.2631 7.72 91.8631 7.056C91.4631 6.392 91.2631 5.64 91.2631 4.8C91.2631 3.96 91.4631 3.208 91.8631 2.544C92.2631 1.88 92.8111 1.364 93.5071 0.995999C94.2111 0.619999 95.0031 0.431999 95.8831 0.431999C96.6511 0.431999 97.3431 0.568 97.9591 0.84C98.5751 1.112 99.0871 1.504 99.4951 2.016L97.9831 3.384C97.4391 2.728 96.7791 2.4 96.0031 2.4C95.5471 2.4 95.1391 2.5 94.7791 2.7C94.4271 2.9 94.1511 3.184 93.9511 3.552C93.7591 3.912 93.6631 4.328 93.6631 4.8C93.6631 5.272 93.7591 5.692 93.9511 6.06C94.1511 6.42 94.4271 6.7 94.7791 6.9C95.1391 7.1 95.5471 7.2 96.0031 7.2C96.7791 7.2 97.4391 6.872 97.9831 6.216L99.4951 7.584C99.0871 8.096 98.5751 8.488 97.9591 8.76C97.3431 9.032 96.6511 9.168 95.8831 9.168ZM108.24 0.599999V9H105.9V6.888H104.604L103.224 9H100.728L102.432 6.54C101.872 6.292 101.444 5.936 101.148 5.472C100.852 5 100.704 4.44 100.704 3.792C100.704 3.136 100.856 2.568 101.16 2.088C101.464 1.608 101.9 1.24 102.468 0.983999C103.036 0.727999 103.7 0.599999 104.46 0.599999H108.24ZM104.508 2.472C103.572 2.472 103.104 2.9 103.104 3.756C103.104 4.18 103.22 4.504 103.452 4.728C103.692 4.944 104.036 5.052 104.484 5.052H105.9V2.472H104.508Z" fill="#8FEBFF"/>
<path d="M160.707 20.7071C161.098 20.3166 161.098 19.6834 160.707 19.2929L154.343 12.9289C153.953 12.5384 153.319 12.5384 152.929 12.9289C152.538 13.3195 152.538 13.9526 152.929 14.3431L158.586 20L152.929 25.6569C152.538 26.0474 152.538 26.6805 152.929 27.0711C153.319 27.4616 153.953 27.4616 154.343 27.0711L160.707 20.7071ZM0 21H160V19H0V21Z" fill="white"/>
<g clip-path="url(#clip0)">
<path d="M187.949 23.8739L187.403 31.5519C188.184 31.5519 188.522 31.2164 188.928 30.8136L192.589 27.3142L200.176 32.8706C201.568 33.6461 202.548 33.2377 202.924 31.5904L207.904 8.25394L207.905 8.25257C208.347 6.19557 207.161 5.39119 205.806 5.89582L176.532 17.1034C174.534 17.8789 174.564 18.9927 176.192 19.4973L183.676 21.8252L201.061 10.9476C201.879 10.4058 202.623 10.7056 202.011 11.2473L187.949 23.8739Z" fill="white"/>
</g>
<defs>
<clipPath id="clip0">
<rect width="33" height="33" fill="white" transform="translate(175 3)"/>
</clipPath>
</defs>
</svg>
