<svg width="20" height="20" viewBox="0 0 20 20" fill="none" xmlns="http://www.w3.org/2000/svg">
<path d="M16.5625 2.5H13.125V1.875C13.125 0.839453 12.2855 0 11.25 0H8.75C7.71445 0 6.875 0.839453 6.875 1.875V2.5H3.4375C2.57457 2.5 1.875 3.19957 1.875 4.0625V5.3125C1.875 5.6577 2.1548 5.9375 2.5 5.9375H17.5C17.8452 5.9375 18.125 5.6577 18.125 5.3125V4.0625C18.125 3.19957 17.4254 2.5 16.5625 2.5ZM8.125 1.875C8.125 1.53047 8.40547 1.25 8.75 1.25H11.25C11.5945 1.25 11.875 1.53047 11.875 1.875V2.5H8.125V1.875Z" fill="white"/>
<path d="M3.06103 7.1875C2.9495 7.1875 2.86064 7.2807 2.86595 7.39211L3.38157 18.2141C3.42923 19.2156 4.25189 20 5.25423 20H14.7456C15.748 20 16.5706 19.2156 16.6183 18.2141L17.1339 7.39211C17.1392 7.2807 17.0504 7.1875 16.9388 7.1875H3.06103ZM12.4999 8.75C12.4999 8.40469 12.7796 8.125 13.1249 8.125C13.4702 8.125 13.7499 8.40469 13.7499 8.75V16.875C13.7499 17.2203 13.4702 17.5 13.1249 17.5C12.7796 17.5 12.4999 17.2203 12.4999 16.875V8.75ZM9.37493 8.75C9.37493 8.40469 9.65462 8.125 9.99993 8.125C10.3452 8.125 10.6249 8.40469 10.6249 8.75V16.875C10.6249 17.2203 10.3452 17.5 9.99993 17.5C9.65462 17.5 9.37493 17.2203 9.37493 16.875V8.75ZM6.24993 8.75C6.24993 8.40469 6.52962 8.125 6.87493 8.125C7.22025 8.125 7.49993 8.40469 7.49993 8.75V16.875C7.49993 17.2203 7.22025 17.5 6.87493 17.5C6.52962 17.5 6.24993 17.2203 6.24993 16.875V8.75Z" fill="white"/>
</svg>
