<svg width="33" height="33" viewBox="0 0 33 33" fill="none" xmlns="http://www.w3.org/2000/svg">
<g clip-path="url(#clip0)">
<path d="M27.3831 17.9135C26.8496 17.2398 27.0023 16.94 27.3831 16.3378C27.39 16.3309 31.7941 10.2451 32.2479 8.18125L32.2506 8.17988C32.4761 7.42775 32.2506 6.875 31.1603 6.875H27.5522C26.6338 6.875 26.2102 7.34938 25.9834 7.88013C25.9834 7.88013 24.1464 12.2774 21.5476 15.1278C20.7089 15.9514 20.3211 16.2154 19.8633 16.2154C19.6378 16.2154 19.2871 15.9514 19.2871 15.1993V8.17988C19.2871 7.27787 19.03 6.875 18.2696 6.875H12.5964C12.0203 6.875 11.6779 7.29575 11.6779 7.68763C11.6779 8.54288 12.9773 8.7395 13.112 11.1458V16.3666C13.112 17.5106 12.9044 17.721 12.4438 17.721C11.2172 17.721 8.24038 13.3059 6.47625 8.25275C6.12012 7.27237 5.77225 6.87637 4.84688 6.87637H1.2375C0.207625 6.87637 0 7.35075 0 7.8815C0 8.81925 1.2265 13.4819 5.7035 19.6419C8.68725 23.8466 12.8893 26.125 16.7118 26.125C19.0094 26.125 19.2899 25.619 19.2899 24.7486C19.2899 20.7309 19.0823 20.3514 20.2331 20.3514C20.7666 20.3514 21.6851 20.6154 23.8301 22.6435C26.2817 25.0484 26.6846 26.125 28.0569 26.125H31.6649C32.6934 26.125 33.2145 25.619 32.9147 24.6208C32.2286 22.5211 27.5921 18.2023 27.3831 17.9135Z" fill="#272727"/>
</g>
<defs>
<clipPath id="clip0">
<rect width="33" height="33" fill="#272727"/>
</clipPath>
</defs>
</svg>
