<svg width="39" height="39" viewBox="0 0 39 39" fill="none" xmlns="http://www.w3.org/2000/svg">
<path d="M37.7542 35.5228L28.4721 25.869C30.8587 23.0319 32.1663 19.4623 32.1663 15.7462C32.1663 7.0639 25.1024 0 16.4201 0C7.73773 0 0.673828 7.0639 0.673828 15.7462C0.673828 24.4286 7.73773 31.4925 16.4201 31.4925C19.6795 31.4925 22.7857 30.5094 25.4413 28.6431L34.7939 38.3702C35.1848 38.7761 35.7106 39 36.274 39C36.8073 39 37.3133 38.7967 37.6973 38.427C38.5134 37.6417 38.5394 36.3396 37.7542 35.5228ZM16.4201 4.10771C22.8377 4.10771 28.0586 9.32862 28.0586 15.7462C28.0586 22.1639 22.8377 27.3848 16.4201 27.3848C10.0024 27.3848 4.78154 22.1639 4.78154 15.7462C4.78154 9.32862 10.0024 4.10771 16.4201 4.10771Z" fill="black"/>
</svg>
