<svg width="165" height="82" viewBox="0 0 165 82" fill="none" xmlns="http://www.w3.org/2000/svg">
<path d="M69.9631 31.8153C69.9157 31.2945 69.705 30.8897 69.331 30.6009C68.9616 30.3073 68.4337 30.1605 67.7472 30.1605C67.2926 30.1605 66.9138 30.2197 66.6108 30.3381C66.3078 30.4564 66.0805 30.6198 65.929 30.8281C65.7775 31.0317 65.6993 31.2661 65.6946 31.5312C65.6851 31.7491 65.7277 31.9408 65.8224 32.1065C65.9219 32.2723 66.0639 32.419 66.2486 32.5469C66.438 32.67 66.6652 32.7789 66.9304 32.8736C67.1955 32.9683 67.4938 33.0511 67.8253 33.1222L69.0753 33.4062C69.795 33.5625 70.4295 33.7708 70.9787 34.0312C71.5327 34.2917 71.9967 34.6018 72.3707 34.9616C72.7495 35.3215 73.036 35.7358 73.2301 36.2045C73.4242 36.6733 73.5237 37.1989 73.5284 37.7812C73.5237 38.6998 73.2917 39.4882 72.8324 40.1463C72.3731 40.8045 71.7126 41.3087 70.8509 41.6591C69.9938 42.0095 68.9593 42.1847 67.7472 42.1847C66.5303 42.1847 65.4697 42.0024 64.5653 41.6378C63.661 41.2732 62.9579 40.7192 62.456 39.9759C61.9541 39.2325 61.696 38.2926 61.6818 37.1562H65.0483C65.0767 37.625 65.2022 38.0156 65.4247 38.3281C65.6473 38.6406 65.9527 38.8774 66.3409 39.0384C66.7339 39.1993 67.1884 39.2798 67.7045 39.2798C68.178 39.2798 68.5805 39.2159 68.9119 39.0881C69.2481 38.9602 69.5062 38.7827 69.6861 38.5554C69.866 38.3281 69.9583 38.0677 69.9631 37.7741C69.9583 37.4995 69.8731 37.2652 69.7074 37.071C69.5417 36.8722 69.286 36.7017 68.9403 36.5597C68.5994 36.4129 68.1638 36.2779 67.6335 36.1548L66.1136 35.7997C64.8542 35.5109 63.8622 35.0445 63.1378 34.4006C62.4134 33.7519 62.0535 32.8759 62.0582 31.7727C62.0535 30.8731 62.295 30.0848 62.7827 29.4077C63.2704 28.7306 63.9451 28.2027 64.8068 27.8239C65.6686 27.4451 66.651 27.2557 67.7543 27.2557C68.8812 27.2557 69.8589 27.4474 70.6875 27.831C71.5208 28.2098 72.1671 28.7424 72.6264 29.429C73.0857 30.1155 73.3201 30.911 73.3295 31.8153H69.9631ZM75.304 42V27.4545H85.446V30.3097H78.8196V33.2926H84.9276V36.1548H78.8196V39.1449H85.446V42H75.304ZM87.6477 42V27.4545H93.6562C94.7453 27.4545 95.6851 27.651 96.4759 28.044C97.2713 28.4323 97.8845 28.991 98.3153 29.7202C98.7462 30.4446 98.9616 31.304 98.9616 32.2983C98.9616 33.3068 98.7415 34.1638 98.3011 34.8693C97.8608 35.5701 97.2358 36.1051 96.4261 36.4744C95.6165 36.839 94.6577 37.0213 93.5497 37.0213H89.75V34.2514H92.8963C93.4266 34.2514 93.8693 34.1828 94.2244 34.0455C94.5843 33.9034 94.8565 33.6903 95.0412 33.4062C95.2259 33.1174 95.3182 32.7481 95.3182 32.2983C95.3182 31.8485 95.2259 31.4768 95.0412 31.1832C94.8565 30.8849 94.5843 30.6624 94.2244 30.5156C93.8646 30.3641 93.4219 30.2884 92.8963 30.2884H91.1634V42H87.6477ZM95.8366 35.3523L99.4588 42H95.6236L92.0724 35.3523H95.8366ZM104.406 27.4545V42H100.89V27.4545H104.406ZM120.341 34.7273C120.341 36.3277 120.033 37.6842 119.418 38.7969C118.802 39.9096 117.969 40.7547 116.918 41.3324C115.872 41.91 114.697 42.1989 113.395 42.1989C112.088 42.1989 110.912 41.9077 109.865 41.3253C108.819 40.7429 107.988 39.8977 107.373 38.7898C106.762 37.6771 106.456 36.3229 106.456 34.7273C106.456 33.1269 106.762 31.7704 107.373 30.6577C107.988 29.545 108.819 28.6998 109.865 28.1222C110.912 27.5445 112.088 27.2557 113.395 27.2557C114.697 27.2557 115.872 27.5445 116.918 28.1222C117.969 28.6998 118.802 29.545 119.418 30.6577C120.033 31.7704 120.341 33.1269 120.341 34.7273ZM116.748 34.7273C116.748 33.7803 116.613 32.9801 116.343 32.3267C116.078 31.6733 115.694 31.1785 115.192 30.8423C114.695 30.5062 114.096 30.3381 113.395 30.3381C112.699 30.3381 112.1 30.5062 111.598 30.8423C111.096 31.1785 110.711 31.6733 110.441 32.3267C110.176 32.9801 110.043 33.7803 110.043 34.7273C110.043 35.6742 110.176 36.4744 110.441 37.1278C110.711 37.7812 111.096 38.276 111.598 38.6122C112.1 38.9484 112.699 39.1165 113.395 39.1165C114.096 39.1165 114.695 38.9484 115.192 38.6122C115.694 38.276 116.078 37.7812 116.343 37.1278C116.613 36.4744 116.748 35.6742 116.748 34.7273ZM131.194 27.4545H134.702V36.8366C134.702 37.9209 134.444 38.8655 133.928 39.6705C133.412 40.4706 132.692 41.0909 131.769 41.5312C130.846 41.9669 129.773 42.1847 128.551 42.1847C127.316 42.1847 126.236 41.9669 125.313 41.5312C124.39 41.0909 123.672 40.4706 123.161 39.6705C122.65 38.8655 122.394 37.9209 122.394 36.8366V27.4545H125.909V36.5312C125.909 37.0331 126.018 37.4806 126.236 37.8736C126.459 38.2666 126.769 38.5743 127.167 38.7969C127.564 39.0194 128.026 39.1307 128.551 39.1307C129.077 39.1307 129.536 39.0194 129.929 38.7969C130.327 38.5743 130.637 38.2666 130.86 37.8736C131.082 37.4806 131.194 37.0331 131.194 36.5312V27.4545ZM144.768 31.8153C144.72 31.2945 144.51 30.8897 144.136 30.6009C143.766 30.3073 143.238 30.1605 142.552 30.1605C142.097 30.1605 141.719 30.2197 141.415 30.3381C141.112 30.4564 140.885 30.6198 140.734 30.8281C140.582 31.0317 140.504 31.2661 140.499 31.5312C140.49 31.7491 140.532 31.9408 140.627 32.1065C140.727 32.2723 140.869 32.419 141.053 32.5469C141.243 32.67 141.47 32.7789 141.735 32.8736C142 32.9683 142.299 33.0511 142.63 33.1222L143.88 33.4062C144.6 33.5625 145.234 33.7708 145.783 34.0312C146.337 34.2917 146.801 34.6018 147.175 34.9616C147.554 35.3215 147.841 35.7358 148.035 36.2045C148.229 36.6733 148.328 37.1989 148.333 37.7812C148.328 38.6998 148.096 39.4882 147.637 40.1463C147.178 40.8045 146.517 41.3087 145.656 41.6591C144.799 42.0095 143.764 42.1847 142.552 42.1847C141.335 42.1847 140.274 42.0024 139.37 41.6378C138.466 41.2732 137.763 40.7192 137.261 39.9759C136.759 39.2325 136.501 38.2926 136.487 37.1562H139.853C139.881 37.625 140.007 38.0156 140.229 38.3281C140.452 38.6406 140.757 38.8774 141.146 39.0384C141.539 39.1993 141.993 39.2798 142.509 39.2798C142.983 39.2798 143.385 39.2159 143.717 39.0881C144.053 38.9602 144.311 38.7827 144.491 38.5554C144.671 38.3281 144.763 38.0677 144.768 37.7741C144.763 37.4995 144.678 37.2652 144.512 37.071C144.346 36.8722 144.091 36.7017 143.745 36.5597C143.404 36.4129 142.969 36.2779 142.438 36.1548L140.918 35.7997C139.659 35.5109 138.667 35.0445 137.942 34.4006C137.218 33.7519 136.858 32.8759 136.863 31.7727C136.858 30.8731 137.1 30.0848 137.587 29.4077C138.075 28.7306 138.75 28.2027 139.612 27.8239C140.473 27.4451 141.456 27.2557 142.559 27.2557C143.686 27.2557 144.664 27.4474 145.492 27.831C146.326 28.2098 146.972 28.7424 147.431 29.429C147.89 30.1155 148.125 30.911 148.134 31.8153H144.768ZM61.625 51.3097V48.4545H73.919V51.3097H69.5085V63H66.0426V51.3097H61.625ZM75.636 63V48.4545H85.7781V51.3097H79.1516V54.2926H85.2596V57.1548H79.1516V60.1449H85.7781V63H75.636ZM95.842 52.8153C95.7946 52.2945 95.5839 51.8897 95.2099 51.6009C94.8406 51.3073 94.3126 51.1605 93.6261 51.1605C93.1715 51.1605 92.7927 51.2197 92.4897 51.3381C92.1867 51.4564 91.9594 51.6198 91.8079 51.8281C91.6564 52.0317 91.5782 52.2661 91.5735 52.5312C91.564 52.7491 91.6067 52.9408 91.7013 53.1065C91.8008 53.2723 91.9428 53.419 92.1275 53.5469C92.3169 53.67 92.5442 53.7789 92.8093 53.8736C93.0745 53.9683 93.3728 54.0511 93.7042 54.1222L94.9542 54.4062C95.6739 54.5625 96.3084 54.7708 96.8576 55.0312C97.4116 55.2917 97.8756 55.6018 98.2496 55.9616C98.6284 56.3215 98.9149 56.7358 99.109 57.2045C99.3031 57.6733 99.4026 58.1989 99.4073 58.7812C99.4026 59.6998 99.1706 60.4882 98.7113 61.1463C98.252 61.8045 97.5915 62.3087 96.7298 62.6591C95.8728 63.0095 94.8382 63.1847 93.6261 63.1847C92.4092 63.1847 91.3486 63.0024 90.4442 62.6378C89.5399 62.2732 88.8368 61.7192 88.3349 60.9759C87.833 60.2325 87.5749 59.2926 87.5607 58.1562H90.9272C90.9556 58.625 91.0811 59.0156 91.3036 59.3281C91.5262 59.6406 91.8316 59.8774 92.2198 60.0384C92.6128 60.1993 93.0674 60.2798 93.5835 60.2798C94.0569 60.2798 94.4594 60.2159 94.7908 60.0881C95.127 59.9602 95.3851 59.7827 95.565 59.5554C95.7449 59.3281 95.8372 59.0677 95.842 58.7741C95.8372 58.4995 95.752 58.2652 95.5863 58.071C95.4206 57.8722 95.1649 57.7017 94.8192 57.5597C94.4783 57.4129 94.0427 57.2779 93.5124 57.1548L91.9925 56.7997C90.7331 56.5109 89.7411 56.0445 89.0167 55.4006C88.2923 54.7519 87.9324 53.8759 87.9371 52.7727C87.9324 51.8731 88.1739 51.0848 88.6616 50.4077C89.1493 49.7306 89.824 49.2027 90.6857 48.8239C91.5475 48.4451 92.5299 48.2557 93.6332 48.2557C94.7601 48.2557 95.7378 48.4474 96.5664 48.831C97.3997 49.2098 98.046 49.7424 98.5053 50.429C98.9646 51.1155 99.199 51.911 99.2085 52.8153H95.842ZM100.707 51.3097V48.4545H113.001V51.3097H108.591V63H105.125V51.3097H100.707ZM114.718 63V48.4545H124.86V51.3097H118.234V54.2926H124.342V57.1548H118.234V60.1449H124.86V63H114.718ZM127.062 63V48.4545H133.07C134.159 48.4545 135.099 48.651 135.89 49.044C136.685 49.4323 137.299 49.991 137.729 50.7202C138.16 51.4446 138.376 52.304 138.376 53.2983C138.376 54.3068 138.156 55.1638 137.715 55.8693C137.275 56.5701 136.65 57.1051 135.84 57.4744C135.031 57.839 134.072 58.0213 132.964 58.0213H129.164V55.2514H132.31C132.841 55.2514 133.283 55.1828 133.638 55.0455C133.998 54.9034 134.271 54.6903 134.455 54.4062C134.64 54.1174 134.732 53.7481 134.732 53.2983C134.732 52.8485 134.64 52.4768 134.455 52.1832C134.271 51.8849 133.998 51.6624 133.638 51.5156C133.279 51.3641 132.836 51.2884 132.31 51.2884H130.577V63H127.062ZM135.251 56.3523L138.873 63H135.038L131.487 56.3523H135.251Z" fill="#1B1B1B"/>
<g clip-path="url(#clip0)">
<path d="M39.051 61.0706C38.7385 61.6173 38.5042 61.3049 38.1918 61.6173C37.9575 61.8516 37.9575 62.6325 37.7232 62.9449C37.567 63.1792 37.1765 63.5697 36.9422 63.804C36.9422 63.6478 36.8641 63.4135 36.8641 63.2573C36.2393 62.8668 35.3021 62.3983 34.9897 63.3354C34.8335 63.3354 34.2868 63.1011 34.1306 63.1792C33.7401 63.2573 33.8963 63.4916 33.662 63.804C33.1153 64.4287 32.881 63.8821 32.5686 63.2573C31.9438 63.4135 31.8657 63.1792 31.397 62.9449C31.1627 62.7887 30.616 62.7106 30.5379 62.3202C30.0693 62.2421 31.0846 61.5392 30.6941 61.6173C30.9284 61.0706 31.0846 60.6802 30.2255 60.1335C30.3036 59.9773 30.2255 59.8211 30.3036 59.743C29.9131 59.8211 29.4445 59.9773 29.054 60.0554C29.054 59.9773 29.054 59.8992 29.054 59.743C28.8197 59.8992 28.5073 59.9773 28.1949 59.9773C28.1949 60.2897 28.1949 60.524 28.1949 60.8364C27.9606 60.8364 27.7263 60.7583 27.5701 60.6021C27.8825 60.9144 28.273 61.5392 27.9606 62.0859C27.6482 62.7106 27.1015 62.3202 26.9453 61.8516C26.5548 62.3202 26.711 63.2573 25.8519 63.3354C25.8519 63.2573 25.8519 63.1011 25.8519 63.023C25.3833 62.8668 24.9928 63.3354 24.6804 62.7887C24.4461 63.1792 23.9774 63.7259 23.5869 63.9602C23.3526 63.2573 23.5869 62.2421 22.5716 62.0859C22.3373 62.0859 22.2592 62.3983 21.9468 62.3202C21.7906 62.2421 21.8687 61.8516 21.7125 61.7735C21.322 61.5392 20.9315 61.6173 20.6972 61.9297C20.7753 61.7735 20.6972 61.2268 20.6972 61.0706C20.6972 60.7583 20.6972 60.3678 20.541 60.1335C20.1505 59.5087 19.0571 60.3678 18.7447 59.5087C18.6666 59.1183 18.6666 58.8059 18.2761 58.5716C18.2761 58.7278 18.2761 58.8059 18.198 58.9621C17.9637 58.6497 17.9637 58.1811 17.8856 57.7906C17.8075 57.3221 17.8075 57.0097 17.5732 56.6192L17.417 56.6973C17.3389 56.1506 17.2608 54.9792 16.4797 55.2135C16.2454 55.2916 15.933 55.604 15.7768 55.7602C14.8396 54.5106 14.2929 52.4802 14.371 50.9964C14.4491 51.2306 14.6053 51.2306 14.7615 51.3087C14.8396 50.5278 14.6053 50.1373 14.2929 49.5125C14.2148 49.3564 14.2148 49.2783 14.1367 49.1221C14.1367 50.2154 14.2148 51.3868 13.9024 52.4802C13.5119 53.964 12.8871 55.4478 12.1061 56.8535C11.3251 58.3373 10.8565 59.5087 10.6222 61.1487C10.5441 61.9297 10.2317 62.7887 10.3879 63.6478C10.466 64.3506 10.7784 65.0535 10.8565 65.7563C10.8565 64.5849 10.7784 63.4135 11.3251 62.3202C11.4032 64.1164 12.4185 65.6002 12.1842 67.5525C12.1061 68.4897 12.028 69.5049 11.8718 70.4421C11.7937 71.3011 11.3251 72.3163 11.4032 73.1754C11.8718 72.4725 12.028 71.5354 12.5747 70.9106C12.4966 72.6287 12.8871 73.8002 14.371 74.8935C15.0739 75.4402 15.933 75.9087 16.714 76.3773C17.2608 76.7678 17.5732 77.3925 18.1199 77.783C18.1199 77.4706 18.1199 77.0802 18.1199 76.7678C18.6666 77.2364 19.2133 77.6268 19.6819 78.0954C20.0724 78.4859 20.3848 79.2668 20.7753 79.5011C20.8534 78.4859 21.0096 77.783 21.4782 76.924C21.7125 76.5335 21.9468 75.9087 22.3373 75.8306C22.7278 75.7525 23.2745 76.2211 23.5869 76.4554C24.2899 77.0802 24.7585 77.783 25.3052 78.4859C25.7738 78.9544 26.2424 79.9697 26.9453 80.2821C27.0234 79.8916 27.1015 79.5792 27.2577 79.1887C27.8044 79.1887 28.0387 79.8916 28.273 80.2821C28.5073 79.7354 29.5226 78.1735 29.4445 79.6573C29.4445 80.5163 29.2102 81.3754 29.3664 82.2344C30.0693 81.6878 30.6941 80.2821 31.0846 79.423C31.5532 78.4078 31.9438 76.7678 32.8029 75.9868C32.881 76.6897 33.1153 77.3925 33.3496 78.0954C33.8963 77.9392 36.005 74.5811 36.4736 76.2211C36.8641 77.5487 36.4736 79.6573 36.2393 80.9068C36.8641 80.204 37.3327 79.423 37.8013 78.6421C38.1918 78.0954 38.9728 76.2992 39.5196 76.0649C39.6758 76.2992 39.6758 76.5335 39.6758 76.8459C41.4721 76.0649 42.7998 74.2687 43.2684 72.6287C43.5027 71.8478 43.737 70.9106 43.737 70.0516C43.737 69.1144 43.4246 68.2554 43.5027 67.3964C43.737 68.0992 44.0494 68.8021 44.2837 69.5049C44.518 70.2859 44.2056 71.223 44.518 72.004C45.0647 71.4573 45.6114 70.2859 45.9238 69.5049C46.3144 68.724 46.783 67.943 46.9392 67.0059C47.3297 65.1316 46.4706 63.5697 46.3144 61.6954C46.1581 59.8211 47.0173 58.0249 46.7049 56.2287C46.5487 55.3697 45.9238 54.5887 45.6114 53.7297C45.299 52.7925 45.0647 51.9335 45.0647 50.9183C45.0647 50.7621 45.0647 50.4497 44.9866 50.1373C44.9866 50.2935 44.9085 50.4497 44.9085 50.5278C44.8304 51.0744 44.6742 51.7773 44.518 52.324C44.2056 53.5735 43.5808 54.6668 43.2684 55.9164C42.7998 55.8383 42.7217 55.4478 42.4093 55.1354C41.9407 54.7449 41.6283 54.6668 41.0816 54.5887C41.7064 55.2916 41.8626 56.0725 41.3159 56.8535C41.394 56.7754 41.394 56.8535 41.394 56.7754C41.4721 57.244 41.0035 58.103 40.4568 57.7906C40.1444 58.0249 40.4568 58.103 40.5349 58.3373C40.613 58.5716 40.5349 59.0402 40.3006 59.1964C39.9882 59.3525 39.9101 59.1183 39.5977 59.4306C39.4415 59.5868 39.051 59.8211 38.9729 60.0554C38.9729 60.2116 39.2853 60.6802 39.051 61.0706Z" fill="#1B1B1B"/>
<path d="M10.6222 61.071C10.5441 61.8519 10.2317 62.711 10.3879 63.57C10.466 64.2729 10.7784 64.9758 10.8565 65.6786C10.8565 64.5072 10.7784 63.3358 11.3251 62.2424C11.4032 64.0386 12.4185 65.5224 12.1842 67.4748C12.1061 68.4119 12.028 69.4272 11.8718 70.3643C11.7937 71.2234 11.3251 72.2386 11.4032 73.0977C11.8718 72.3948 12.028 71.4577 12.5747 70.8329C12.4966 72.551 12.8871 73.7224 14.371 74.8158C15.0739 75.3624 15.933 75.831 16.714 76.2996C17.2608 76.69 17.5732 77.3148 18.1199 77.7053C18.1199 77.3929 18.1199 77.0024 18.1199 76.69C18.6666 77.1586 19.2133 77.5491 19.6819 78.0177C20.0724 78.4081 20.3848 79.1891 20.7753 79.4234C20.8534 78.4081 21.0096 77.7053 21.4782 76.8462C21.7125 76.4558 21.9468 75.831 22.3373 75.7529C22.7278 75.6748 23.2745 76.1434 23.5869 76.3777C24.2899 77.0024 24.7585 77.7053 25.3052 78.4081C25.7738 78.8767 26.2424 79.8919 26.9453 80.2043C27.0234 79.8138 27.1015 79.5015 27.2577 79.111C27.8044 79.111 28.0387 79.8138 28.273 80.2043C28.5073 79.6577 29.5226 78.0958 29.4445 79.5796C29.4445 80.4386 29.2102 81.2977 29.3664 82.1567C30.0693 81.61 30.6941 80.2043 31.0846 79.3453C31.5532 78.33 31.9438 76.69 32.8029 75.9091C32.881 76.6119 33.1153 77.3148 33.3496 78.0177C33.8963 77.8615 36.005 74.5034 36.4736 76.1434C36.8641 77.471 36.4736 79.5796 36.2393 80.8291C36.8641 80.1262 37.3327 79.3453 37.8013 78.5643C38.1918 78.0177 38.9728 76.2215 39.5196 75.9872C39.6758 76.2215 39.6758 76.4558 39.6758 76.7681C41.4721 75.9872 42.7998 74.191 43.2684 72.551C43.5027 71.77 43.737 70.8329 43.737 69.9739C43.737 69.0367 43.4246 68.1777 43.5027 67.3186C43.737 68.0215 44.0494 68.7243 44.2837 69.4272C44.518 70.2081 44.2056 71.1453 44.518 71.9262C45.0647 71.3796 45.6114 70.2081 45.9238 69.4272C46.3144 68.6462 46.783 67.8653 46.9392 66.9281C47.3297 65.0539 46.4706 63.492 46.3144 61.6177C46.1581 59.7434 47.0173 57.9472 46.7049 56.151C46.5487 55.292 45.9238 54.511 45.6114 53.6519C45.299 52.7148 45.0647 51.8558 45.0647 50.8405C45.0647 50.6843 45.0647 50.372 44.9866 50.0596C44.9866 50.2158 44.9085 50.372 44.9085 50.45C44.8304 50.9967 44.6742 51.6996 44.518 52.2462C44.4399 52.6367 44.2837 53.0272 44.1275 53.3396C44.1275 53.8862 44.1275 54.4329 43.9713 54.9796C43.737 55.5262 43.3465 56.0729 43.1122 56.6196C42.7998 57.3224 42.7217 57.791 42.6436 58.572C42.5655 59.2748 42.2531 60.1339 42.0969 60.8367C41.9407 61.3834 41.8626 62.1643 41.4721 62.6329C41.0816 63.1796 40.5349 63.4919 40.1444 64.1167C39.6758 64.8196 39.4415 65.3662 39.2072 66.1472C38.8166 67.3967 38.1918 67.1624 37.0984 67.5529C36.3955 67.7872 36.1612 68.0996 35.6926 68.6462C35.4583 68.8805 34.9897 69.4272 34.5992 69.5053C33.5839 69.7396 33.3496 68.1777 32.1781 68.8024C31.5532 69.1148 30.616 70.5205 29.9912 70.3643C29.6788 69.5053 28.8978 69.7396 28.1168 69.8177C27.2577 69.8958 26.711 69.7396 26.0081 69.5053C25.3052 69.271 24.7585 69.271 24.0555 69.6615C23.665 69.8177 23.4307 70.0519 23.0402 70.0519C22.6497 70.0519 22.3373 69.8177 21.9468 69.8177C21.1658 69.7396 20.6191 70.3643 20.3067 70.9891C19.9162 71.8481 19.76 72.1605 18.8228 71.5358C17.6513 70.8329 16.2454 69.4272 16.2454 68.0215C16.2454 67.2405 16.3235 66.4596 16.0111 65.7567C15.6987 65.1319 15.2301 64.7415 14.8396 64.1167C13.9024 62.5548 14.371 61.1491 14.2148 59.5091C14.1367 58.7281 13.7462 58.1034 13.5119 57.4005C13.2776 56.6977 13.4338 55.8386 13.4338 55.0577C13.4338 54.511 13.3557 53.9643 13.2776 53.4177C12.8871 54.5891 12.4185 55.7605 11.7937 56.932C11.247 58.2596 10.7784 59.431 10.6222 61.071Z" fill="#1B1B1B"/>
<path d="M10.6222 61.0707C10.5441 61.8516 10.2317 62.7107 10.3879 63.5697C10.466 64.2726 10.7784 64.9754 10.8565 65.6783C10.8565 64.5069 10.7784 63.3354 11.3251 62.2421C11.4032 64.0383 12.4185 65.5221 12.1842 67.4745C12.1061 68.4116 12.028 69.4269 11.8718 70.364C11.7937 71.2231 11.3251 72.2383 11.4032 73.0973C11.8718 72.3945 12.028 71.4573 12.5747 70.8326C12.4966 72.5507 12.8871 73.7221 14.371 74.8154C15.0739 75.3621 15.933 75.8307 16.714 76.2992C17.2608 76.6897 17.5732 77.3145 18.1199 77.705C18.1199 77.3926 18.1199 77.0021 18.1199 76.6897C18.6666 77.1583 19.2133 77.5488 19.6819 78.0173C20.0724 78.4078 20.3848 79.1888 20.7753 79.4231C20.8534 78.4078 21.0096 77.705 21.4782 76.8459C21.7125 76.4554 21.9468 75.8307 22.3373 75.7526C22.7278 75.6745 23.2745 76.1431 23.5869 76.3773C24.2899 77.0021 24.7585 77.705 25.3052 78.4078C25.7738 78.8764 26.2424 79.8916 26.9453 80.204C27.0234 79.8135 27.1015 79.5012 27.2577 79.1107C27.8044 79.1107 28.0387 79.8135 28.273 80.204C28.5073 79.6573 29.5226 78.0954 29.4445 79.5792C29.4445 80.4383 29.2102 81.2973 29.3664 82.1564C30.0693 81.6097 30.6941 80.204 31.0846 79.345C31.5532 78.3297 31.9438 76.6897 32.8029 75.9088C32.881 76.6116 33.1153 77.3145 33.3496 78.0173C33.8963 77.8612 36.005 74.5031 36.4736 76.1431C36.8641 77.4707 36.4736 79.5792 36.2393 80.8288C36.8641 80.1259 37.3327 79.345 37.8013 78.564C38.1918 78.0173 38.9728 76.2212 39.5196 75.9869C39.6758 76.2212 39.6758 76.4554 39.6758 76.7678C41.4721 75.9869 42.7998 74.1907 43.2684 72.5507C43.5027 71.7697 43.737 70.8326 43.737 69.9735C43.737 69.0364 43.4246 68.1773 43.5027 67.3183C43.737 68.0211 44.0494 68.724 44.2837 69.4269C44.518 70.2078 44.2056 71.145 44.518 71.9259C45.0647 71.3792 45.6114 70.2078 45.9238 69.4269C46.3144 68.6459 46.783 67.865 46.9392 66.9278C47.3297 65.0535 46.4706 63.4916 46.3144 61.6173C46.1581 59.7431 47.0173 57.9469 46.7049 56.1507C46.5487 55.2916 45.9238 54.5107 45.6114 53.6516C45.3771 53.0269 45.299 52.4021 45.1428 51.7773C44.9866 52.9488 45.0647 54.2764 45.1428 55.3697C45.2209 56.1507 45.5333 56.7754 45.5333 57.6345C45.5333 58.4154 45.5333 59.1964 45.4552 59.9773C45.1428 61.5392 45.6114 63.0231 45.6114 64.585C45.6114 65.3659 45.6114 66.0688 45.5333 66.8497C45.4552 67.4745 45.0647 68.1773 44.9085 68.8021C44.9085 68.9583 44.8304 69.1145 44.8304 69.3488C44.4399 68.9583 44.3618 67.7088 44.0494 67.2402C43.6589 66.6935 43.3465 66.225 42.7998 65.9126C42.956 66.6154 43.1122 68.1773 43.1903 68.8802C43.2684 69.7392 42.8779 70.4421 42.5655 71.2231C42.0969 72.7069 41.2378 74.1126 39.9882 75.2059C39.3634 74.425 39.051 75.3621 38.4261 75.5964C37.7232 75.9088 36.8641 75.5183 36.3174 75.2059C35.5364 74.7373 35.3021 74.8935 34.443 75.2059C33.7401 75.4402 33.0372 75.0497 32.3343 75.3621C31.7876 75.5964 31.3189 76.065 30.9284 76.5335C30.616 76.8459 30.0693 77.8612 29.6788 78.0173C29.3664 78.0954 28.9759 77.8611 28.7416 77.8611C28.3511 77.8611 28.0387 78.1735 27.6482 78.2516C26.9453 78.4078 26.6329 78.0173 26.0081 77.705C25.3052 77.3926 25.3833 76.6897 24.7585 76.2211C24.2899 75.8307 23.4307 74.9716 22.8059 74.7373C22.103 74.425 21.4782 74.8935 20.9315 75.4402C20.3067 76.1431 20.1505 76.4554 19.2914 75.9088C17.9637 75.1278 16.4797 75.8307 15.3082 74.7373C14.2929 73.8002 13.4338 72.785 13.2776 71.3792C12.9652 69.2707 12.7309 65.3659 11.5594 63.1792C10.8565 61.9297 11.7156 57.7907 12.5747 55.7602C12.6528 55.6821 12.5747 55.6821 12.5747 55.6821C12.3404 56.1507 12.1842 56.6192 11.9499 57.0878C11.247 58.2592 10.7784 59.4307 10.6222 61.0707Z" fill="#1B1B1B"/>
<path d="M42.5656 54.9798C42.097 54.5893 41.7846 54.5112 41.2379 54.4331C41.8627 55.1359 42.0189 55.9169 41.4722 56.6978C41.5503 56.6198 41.5503 56.6978 41.5503 56.6198C41.6284 57.0883 41.1598 57.9474 40.6131 57.635C40.3006 57.8693 40.6131 57.9474 40.6912 58.1817C40.7693 58.4159 40.6912 58.8845 40.4568 59.0407C40.1444 59.1969 40.0663 58.9626 39.7539 59.275C39.5977 59.4312 39.2072 59.6655 39.1291 59.8998C38.9729 60.2121 39.2072 60.6807 38.9729 61.0712C38.6605 61.6178 38.4262 61.3055 38.1138 61.6178C37.8795 61.8521 37.8795 62.6331 37.6452 62.9455C37.489 63.1798 37.0985 63.5702 36.8642 63.8045C36.8642 63.6483 36.7861 63.414 36.7861 63.2578C36.1613 62.8674 35.2241 62.3988 34.9117 63.3359C34.7555 63.3359 34.2088 63.1017 34.0526 63.1798C33.6621 63.2578 33.8183 63.4921 33.584 63.8045C33.0372 64.4293 32.8029 63.8826 32.4905 63.2578C31.8657 63.414 31.7876 63.1798 31.319 62.9455C31.0847 62.7893 30.538 62.7112 30.4599 62.3207C29.9913 62.2426 31.0066 61.5398 30.6161 61.6178C30.8504 61.0712 31.0066 60.6807 30.1475 60.134C30.2256 59.9778 30.1475 59.8217 30.2256 59.7436C29.8351 59.8217 29.3665 59.9778 28.976 60.0559C28.976 59.9778 28.976 59.8998 28.976 59.7436C28.7417 59.8998 28.4293 59.9778 28.1169 59.9778C28.1169 60.2902 28.1169 60.5245 28.1169 60.8369C27.8826 60.8369 27.6483 60.7588 27.4921 60.6026C27.8045 60.915 28.195 61.5398 27.8826 62.0864C27.5702 62.7112 27.0235 62.3207 26.8673 61.8521C26.4768 62.3207 26.633 63.2578 25.7738 63.3359C25.7738 63.2578 25.7738 63.1017 25.7738 63.0236C25.3052 62.8674 24.9147 63.3359 24.6023 62.7893C24.368 63.1798 23.8994 63.7264 23.5089 63.9607C23.2746 63.2578 23.5089 62.2426 22.4936 62.0864C22.2593 62.0864 22.1812 62.3988 21.8688 62.3207C21.7126 62.2426 21.7907 61.8521 21.6345 61.774C21.244 61.5398 20.8535 61.6178 20.6192 61.9302C20.6973 61.774 20.6192 61.2274 20.6192 61.0712C20.6192 60.7588 20.6192 60.3683 20.463 60.134C20.0725 59.5093 18.9791 60.3683 18.6667 59.5093C18.5885 59.1188 18.5885 58.8064 18.198 58.5721C18.198 58.7283 18.198 58.8064 18.1199 58.9626C17.8856 58.6502 17.8856 58.1817 17.8075 57.7912C17.7294 57.3226 17.7294 57.0102 17.4951 56.6198L17.3389 56.6978C17.2608 56.1512 17.1827 54.9798 16.4017 55.214C16.1674 55.2921 15.855 55.6045 15.6988 55.7607C15.1521 55.0579 14.7616 54.0426 14.5273 53.1055C14.5273 53.9645 14.4492 55.0579 14.9959 55.7607C15.2302 56.0731 15.6988 56.2293 16.0893 56.3074C16.3236 56.3855 16.4798 56.3074 16.636 56.5417C16.7922 56.6978 16.8703 56.9321 16.9484 57.0883C17.1046 57.5569 17.1827 58.0255 17.3389 58.494C17.4951 58.8845 17.4951 59.5093 17.8075 59.8217C18.0418 60.0559 18.3542 60.0559 18.5885 60.2902C18.901 60.6026 18.901 60.8369 19.3696 60.7588C19.4477 61.3055 19.682 62.1645 20.2287 62.3988C20.6192 62.555 20.7754 62.555 21.0878 62.8674C21.3221 63.1017 21.5564 63.3359 21.6345 63.6483C22.1812 63.414 22.4155 64.5074 22.8841 64.6636C23.2746 64.7417 23.1965 64.5074 23.587 64.4293C23.8213 64.3512 24.2118 64.5855 24.5242 64.5855C24.5242 64.4293 24.6023 64.2731 24.6804 64.195C24.8366 64.3512 24.9928 64.6636 25.2271 64.6636C25.6957 64.7417 25.5395 64.3512 25.6957 64.1169C26.0863 63.7264 26.633 64.1169 26.9454 63.6483C26.9454 63.7264 27.0235 63.8045 27.0235 63.8826C27.4921 63.8826 27.7264 62.3988 27.8826 63.7264C28.1169 63.8045 28.2731 63.6483 28.4293 63.5702C28.4293 64.0388 28.8198 63.8826 29.0541 63.8045C29.2103 63.7264 29.2884 63.5702 29.5227 63.6483C29.6789 63.6483 29.757 63.8045 29.9132 63.8045C30.0694 63.1797 30.4599 63.8045 30.6161 63.9607C30.6942 64.0388 30.8504 64.195 31.0066 64.195C31.2409 64.195 31.319 63.8826 31.5533 64.1169C31.7095 64.195 31.6314 64.5074 31.7876 64.5855C31.9438 64.7417 32.1781 64.6636 32.3343 64.7417C32.7248 64.8198 33.1153 64.8978 33.5059 65.054C33.6621 64.7417 33.6621 64.5855 34.0526 64.5074C34.2088 64.5074 34.365 64.5074 34.5993 64.5074C34.8336 64.4293 34.8336 64.3512 35.0679 64.2731C35.5365 64.1169 35.4584 64.3512 35.7708 64.5074C36.0832 64.6636 36.4737 64.6636 36.7861 64.5855C37.9576 64.2731 37.6452 62.0864 39.2072 62.2426C39.4415 61.774 39.2853 61.2274 39.5196 60.7588C39.7539 60.3683 40.2225 60.2121 40.535 59.8217C40.6912 59.6655 40.8474 59.4312 40.9255 59.275C41.0036 59.0407 40.9255 58.7283 41.0817 58.494C41.2379 58.1036 41.7065 57.8693 41.7846 57.4007C41.8627 56.7759 41.6284 56.3074 42.4875 56.4636C42.7999 56.5417 42.7999 56.6198 43.0342 56.3855C43.1904 56.2293 43.2685 56.0731 43.3466 55.8388C42.9561 55.6045 42.7999 55.2921 42.5656 54.9798Z" fill="#1B1B1B"/>
<path d="M46.0805 54.5886C46.0024 54.4325 45.8462 54.1982 45.69 54.1201C45.9243 54.2763 46.0805 54.901 45.69 55.1353C45.2214 55.1353 45.2214 54.5886 45.2214 54.2763C45.2214 54.1201 45.4557 53.5734 45.7681 53.4953C45.4557 53.4953 45.1433 53.7296 45.0652 53.9639C44.909 53.6515 44.6747 53.3391 44.3623 53.0267C44.0498 52.7925 43.425 52.3239 43.0345 52.6363C44.5966 52.5582 44.4404 54.4325 43.8155 55.0572C43.1126 55.7601 41.9411 55.7601 40.8477 55.6039C39.1295 55.3696 37.958 54.2763 37.0208 53.1829C36.7865 52.9486 36.6302 52.6363 36.5521 52.3239C37.0208 52.402 37.5675 52.402 38.1142 52.402C38.2704 52.402 38.2704 52.2458 38.1142 52.2458C37.0208 52.1677 36.3959 51.3867 35.6149 50.8401C34.9901 50.2934 34.0529 49.981 33.1938 49.6686C33.0376 49.5906 32.8033 49.5906 32.569 49.5125C32.7252 49.3563 32.8814 49.3563 33.1157 49.3563C33.2719 49.3563 33.6624 49.4344 33.7405 49.3563C33.35 49.2001 33.0376 49.0439 32.569 49.122C32.3347 49.122 32.1785 49.2001 31.9442 49.2001C31.7099 49.2782 31.5537 49.4344 31.3975 49.4344C31.3975 49.2782 31.3975 49.122 31.3194 48.8877C31.1632 49.122 31.0851 49.6686 30.6946 49.6686C30.6946 49.5125 30.9289 49.2782 31.007 49.2001C30.5384 49.4344 30.3041 49.7467 29.9917 50.0591C29.8355 50.2153 29.6012 50.3715 29.5231 50.5277C29.3668 50.6839 29.2888 50.9182 29.2106 51.1525C28.742 50.5277 28.0391 50.0591 27.4924 49.4344C27.4924 49.7467 27.5705 49.9029 27.7267 50.2153C27.4924 50.2934 27.3362 49.981 27.18 49.9029C27.1019 49.8248 26.9457 49.8248 26.8676 49.8248C26.7114 49.7467 26.6333 49.6686 26.5552 49.6686C26.3209 49.5906 25.9304 49.6686 25.6961 49.6686C25.4618 49.6686 25.1494 49.7467 24.9932 49.8248C25.2275 49.8248 25.3837 49.9029 25.5399 50.0591C25.0713 50.1372 24.7589 50.1372 24.3684 49.981C24.2122 50.0591 24.4465 50.2934 24.2903 50.3715C24.1341 50.4496 23.6655 50.4496 23.5874 50.6058C23.3531 50.6839 23.5874 51.0744 23.3531 51.2306C23.1188 51.3086 22.8845 51.2306 22.7283 51.4648C22.4159 51.8553 21.791 51.9334 21.3224 52.0896C21.4786 52.1677 21.791 52.1677 22.1816 52.1677C22.0254 52.5582 21.8691 52.9486 21.5567 53.261C20.6195 54.3544 19.3699 55.4477 17.7298 55.682C16.6364 55.8382 15.4649 55.8382 14.762 55.1353C14.059 54.3544 14.059 52.8706 15.4649 52.5582C15.6992 52.4801 16.0897 52.5582 16.1678 52.7925C16.0897 52.402 15.6992 52.1677 15.1525 52.2458C14.762 52.3239 14.4495 52.6363 14.2152 52.9486C14.3714 52.5582 14.2933 52.0896 13.9028 51.7772C14.3714 52.402 13.6685 53.0267 13.4342 53.5734C13.4342 53.4172 13.4342 53.261 13.5123 53.0267C13.5123 52.8706 13.6685 52.7144 13.6685 52.5582C13.278 52.7925 13.1218 53.261 12.9656 53.5734C12.7313 53.9639 12.6532 54.3544 12.5751 54.8229C12.4189 54.6667 12.6532 54.2763 12.497 54.1201C12.497 54.4325 12.3408 54.7448 12.3408 55.1353C12.3408 56.2286 12.6532 57.2439 13.6685 58.0248C14.6058 58.6496 15.7773 59.0401 16.9488 59.2744C18.0422 59.5086 18.9013 59.2744 19.9166 59.1182C20.8538 58.962 21.791 58.7277 22.494 58.181C22.1816 58.5715 21.9473 58.962 21.4786 59.1963C22.1035 59.1963 22.9626 58.6496 23.4312 58.2591C23.8998 57.8686 24.2122 57.0877 24.837 56.7753C24.9151 57.0096 24.9151 57.2439 24.7589 57.4782C25.5399 56.9315 25.8523 55.9163 26.6333 55.5258C26.9457 55.7601 26.9457 56.1506 26.9457 56.4629C26.9457 56.3848 27.3362 56.0725 27.3362 55.9944C27.5705 55.682 27.6486 55.5258 28.0391 55.2915C28.6639 54.901 29.1325 54.901 29.445 54.2763V54.1982C29.6793 54.5886 30.0698 54.901 30.6165 55.1353L31.1632 55.7601C31.1632 55.1353 31.9442 55.8382 32.3347 56.0725C32.3347 55.3696 33.8186 56.7753 34.2872 57.1658C35.0682 57.7905 36.5521 58.5715 37.8018 59.0401C37.0989 58.3372 37.0208 58.1029 37.0208 57.5563C37.8799 57.8686 38.5047 58.4934 39.3638 58.8839C40.0667 59.1963 41.4725 59.821 42.3316 59.4305C41.863 59.3524 41.3944 59.0401 41.0039 58.7277C41.1601 58.8839 41.7849 58.8058 42.0192 58.8058C42.4097 58.8058 42.7221 58.8058 43.1126 58.7277C43.8155 58.5715 44.5185 58.3372 45.0652 57.9467C45.6119 57.5563 46.2367 56.9315 46.3929 56.3848C46.2367 55.682 46.3929 55.1353 46.0805 54.5886Z" fill="#1B1B1B"/>
<path d="M46.0805 54.5887C46.0805 54.5106 46.0024 54.5106 46.0024 54.5106C46.0024 54.5887 45.9243 54.5887 45.9243 54.6668C45.9243 54.823 45.9243 54.9011 45.8462 54.9792C45.69 55.5258 46.0024 56.1506 45.6119 56.6972C45.0652 57.4782 43.7374 57.6344 42.8783 57.9468C42.644 58.0249 42.4878 58.103 42.2535 58.1811C42.0192 58.2592 41.7849 58.1811 41.5506 58.1811C41.0039 58.103 40.5353 58.2592 39.9886 58.0249C39.52 57.8687 39.2076 57.7125 38.739 57.6344C38.2704 57.5563 37.8799 57.2439 37.4113 57.322C37.3332 56.8534 36.3178 57.5563 36.1616 57.0096C35.7711 56.9315 35.693 57.0877 35.693 57.4001C35.5368 57.1658 35.3025 57.2439 35.0682 57.0877C34.8339 56.9315 34.912 56.7753 34.5996 56.6192C34.2091 56.3849 33.6624 56.2287 33.2719 55.9944C33.0376 55.8382 32.9595 55.682 32.6471 55.6039C32.3347 55.5258 32.3347 55.3696 32.1004 55.2134C31.7099 54.9011 31.1632 54.823 31.0851 54.2763C30.8508 54.1982 30.6165 54.5887 30.4603 54.4325C30.3041 54.2763 30.4603 54.042 30.3822 53.8858C30.3041 53.6515 30.226 53.4172 30.0698 53.183C29.9136 53.0268 29.9136 52.9487 29.9136 52.7144C29.9917 52.6363 29.9917 52.5582 29.9917 52.4801C29.9917 52.4801 29.9917 52.4801 29.9917 52.402C30.1479 52.0896 30.1479 51.6992 30.3822 51.4649C31.007 50.9963 31.5537 51.0744 32.2566 51.0744C32.6471 51.0744 32.9595 50.9182 33.35 50.9963C33.8186 51.0744 33.8186 51.2306 34.131 51.543C34.4434 51.8553 35.693 51.8553 35.7711 52.2458H35.693C35.693 52.5582 35.4587 52.6363 35.6149 52.9487C35.693 53.183 35.9273 53.3392 36.0835 53.5734C36.3959 53.9639 37.0208 54.1982 37.4894 54.3544C38.5047 54.6668 39.3638 55.682 40.4572 55.8382C40.9258 55.9163 41.5506 55.9163 42.0192 55.9163C42.3316 55.9163 42.8783 55.7601 43.1907 55.6039C42.4878 55.8382 41.7068 55.8382 40.9258 55.682C39.2076 55.4477 38.0361 54.3544 37.0989 53.2611C36.8646 53.0268 36.7084 52.7144 36.6303 52.402C37.0989 52.4801 37.6456 52.4801 38.1923 52.4801C38.3485 52.4801 38.3485 52.3239 38.1923 52.3239C37.0989 52.2458 36.474 51.4649 35.693 50.9182C35.0682 50.3715 34.131 50.0592 33.2719 49.7468C33.1157 49.6687 32.8814 49.6687 32.6471 49.5906C32.8033 49.4344 32.9595 49.4344 33.1938 49.4344C33.35 49.4344 33.7405 49.5125 33.8186 49.4344C33.4281 49.2782 33.1157 49.122 32.6471 49.2001C32.4128 49.2001 32.2566 49.2782 32.0223 49.2782C31.788 49.3563 31.6318 49.5125 31.4756 49.5125C31.4756 49.3563 31.4756 49.2001 31.3975 48.9658C31.2413 49.2001 31.1632 49.7468 30.7727 49.7468C30.7727 49.5906 31.007 49.3563 31.0851 49.2782C30.6165 49.5125 30.3822 49.8249 30.0698 50.1372C29.9136 50.2934 29.6793 50.4496 29.6012 50.6058C29.445 50.762 29.3669 50.9963 29.2887 51.2306C28.8201 50.6058 28.1172 50.1372 27.5705 49.5125C27.5705 49.8249 27.6486 49.9811 27.8048 50.2934C27.5705 50.3715 27.4143 50.0592 27.2581 49.9811C27.18 49.903 27.0238 49.903 26.9457 49.903C26.7895 49.8249 26.7114 49.7468 26.6333 49.7468C26.399 49.6687 26.0085 49.7468 25.7742 49.7468C25.5399 49.7468 25.2275 49.8249 25.0713 49.903C25.3056 49.903 25.4618 49.9811 25.618 50.1372C25.1494 50.2153 24.837 50.2153 24.4465 50.0592C24.2903 50.1372 24.5246 50.3715 24.3684 50.4496C24.2122 50.5277 23.7436 50.5277 23.6655 50.6839C23.4312 50.762 23.6655 51.1525 23.4312 51.3087C23.1969 51.3868 22.9626 51.3087 22.8064 51.543C22.494 51.9334 21.8691 52.0115 21.4005 52.1677C21.5567 52.2458 21.8691 52.2458 22.2597 52.2458C22.1035 52.6363 21.9473 53.0268 21.6348 53.3392C20.6976 54.4325 19.448 55.5258 17.8079 55.7601C17.4174 55.8382 16.9488 55.8382 16.5583 55.8382C16.8707 55.9163 17.1831 55.9944 17.4955 55.9163C18.0422 55.9163 18.5108 55.8382 18.9794 55.7601C19.2918 55.682 19.448 55.682 19.6823 55.5258C19.8385 55.4477 20.0728 55.2134 20.229 55.1353C20.3852 54.6668 21.01 54.3544 21.4005 53.9639C21.7129 53.6515 21.9473 53.2611 22.2597 52.9487C22.5721 52.6363 22.9626 52.5582 23.275 52.2458C23.5874 51.9334 23.7436 51.6211 24.056 51.3868C24.3684 51.0744 24.837 50.9963 25.2275 50.762C25.4618 50.6058 25.5399 50.4496 25.8523 50.3715C26.0866 50.3715 26.399 50.2934 26.6333 50.3715C27.1019 50.4496 27.3362 50.9963 27.6486 51.2306C27.8829 51.3868 28.0391 51.4649 28.2734 51.4649C28.5858 51.4649 28.3515 51.543 28.6639 51.7773C28.8201 51.8553 28.8201 52.1677 28.8982 52.402C28.8201 52.6363 28.742 52.7925 28.5858 53.0268C28.4296 53.4953 27.8829 53.6515 27.4924 53.9639C26.5552 54.5106 25.8523 55.3696 24.9932 55.9944C24.9932 55.9163 24.9932 55.8382 24.9932 55.7601C24.5246 55.8382 24.056 56.5411 23.6655 56.7753C23.4312 56.463 23.1969 56.8534 22.9626 56.9315C22.5721 57.0096 22.6502 56.6973 22.1816 57.0096C21.8691 57.2439 21.7129 57.1658 21.4786 57.322C21.2443 57.4001 21.0881 57.6344 20.9319 57.7906C20.7757 57.8687 20.4633 58.1811 20.3071 58.1811C20.0728 58.2592 19.6823 58.0249 19.448 58.103C18.9013 58.1811 18.5108 58.7277 17.886 58.6496C17.4174 58.5715 16.9488 58.6496 16.4802 58.5715C15.9335 58.4934 15.4649 58.4153 14.9182 58.1811C14.2152 57.9468 13.5123 57.2439 12.9656 56.7753C12.2627 55.9944 12.4189 55.0573 12.9656 54.2763C13.1999 53.9639 13.9809 53.1049 14.2152 52.7925C14.2933 52.402 14.2152 52.0896 13.9028 51.7773C14.3714 52.402 13.6685 53.0268 13.4342 53.5734C13.4342 53.4172 13.4342 53.2611 13.5123 53.0268C13.5123 52.8706 13.6685 52.7144 13.6685 52.5582C13.278 52.7925 13.1218 53.2611 12.9656 53.5734C12.7313 53.9639 12.6532 54.3544 12.5751 54.823C12.4189 54.6668 12.6532 54.2763 12.497 54.1201C12.497 54.4325 12.3408 54.7449 12.3408 55.1353C12.3408 56.2287 12.6532 57.2439 13.6685 58.0249C14.6058 58.6496 15.7773 59.0401 16.9488 59.2744C18.0422 59.5087 18.9013 59.2744 19.9166 59.1182C20.8538 58.962 21.791 58.7277 22.494 58.1811C22.1816 58.5715 21.9473 58.962 21.4786 59.1963C22.1035 59.1963 22.9626 58.6496 23.4312 58.2592C23.8998 57.8687 24.2122 57.0877 24.837 56.7753C24.9151 57.0096 24.9151 57.2439 24.7589 57.4782C25.5399 56.9315 25.8523 55.9163 26.6333 55.5258C26.9457 55.7601 26.9457 56.1506 26.9457 56.463C26.9457 56.3849 27.3362 56.0725 27.3362 55.9944C27.5705 55.682 27.6486 55.5258 28.0391 55.2915C28.6639 54.9011 29.1325 54.9011 29.445 54.2763V54.1982C29.6793 54.5887 30.0698 54.9011 30.6165 55.1353L31.1632 55.7601C31.1632 55.1353 31.9442 55.8382 32.3347 56.0725C32.3347 55.3696 33.8186 56.7753 34.2872 57.1658C35.0682 57.7906 36.5521 58.5715 37.8018 59.0401C37.0989 58.3372 37.0208 58.103 37.0208 57.5563C37.8799 57.8687 38.5047 58.4934 39.3638 58.8839C40.0667 59.1963 41.4725 59.8211 42.3316 59.4306C41.863 59.3525 41.3944 59.0401 41.0039 58.7277C41.1601 58.8839 41.7849 58.8058 42.0192 58.8058C42.4097 58.8058 42.7221 58.8058 43.1126 58.7277C43.8155 58.5715 44.5185 58.3372 45.0652 57.9468C45.6119 57.5563 46.2367 56.9315 46.3929 56.3849C46.2367 55.682 46.3929 55.1353 46.0805 54.5887Z" fill="#1B1B1B"/>
<path d="M27.3367 51.5432C27.3367 51.4651 27.3367 51.4651 27.3367 51.5432C27.1805 51.387 27.0243 51.387 26.8681 51.387H27.0243C26.79 51.387 26.6337 51.3089 26.3994 51.3089C26.2432 51.3089 25.9308 51.1528 25.6965 51.2309C25.6965 51.3089 25.6965 51.3089 25.6965 51.387C25.4622 51.4651 25.2279 51.4651 24.9936 51.4651C24.9155 51.4651 24.7593 51.4651 24.6812 51.4651C24.525 51.5432 24.6031 51.6213 24.6031 51.6994C24.6031 51.7775 24.6812 51.7775 24.525 51.9337C24.4469 52.0118 24.2126 52.0899 24.1345 52.0899C23.9002 52.168 23.744 52.2461 23.9002 52.4804C23.744 52.5585 23.5878 52.6366 23.5097 52.7928C23.3535 52.9489 23.4316 53.1051 23.3535 53.2613C23.1973 53.5737 22.6506 53.7299 22.4163 53.9642C22.182 54.1985 22.1039 54.4328 21.7915 54.667C21.4791 54.9013 21.1667 55.0575 20.9324 55.2918C20.62 55.5261 20.3857 55.9166 20.0733 55.9947C19.7609 56.1509 19.3704 56.1509 18.9798 56.1509C18.6674 56.2289 18.2769 56.307 17.9645 56.3851C17.6521 56.4632 17.2616 56.3851 16.9492 56.5413C17.1835 56.7756 18.0426 56.8537 17.9645 57.1661C18.2769 57.1661 18.5893 57.088 18.9017 57.0099C19.0579 56.9318 19.2141 56.8537 19.3704 56.7756C19.6828 56.6975 19.6047 56.8537 19.839 56.9318C20.1514 57.0099 20.5419 56.7756 20.7762 56.5413C20.9324 56.4632 21.0886 56.307 21.2448 56.2289C21.401 56.1509 21.6353 56.2289 21.7915 56.1509C21.9477 56.0728 22.1039 55.9166 22.2601 55.8385C22.4944 55.7604 22.4944 55.8385 22.6506 55.8385C23.1192 55.8385 23.2754 55.2918 23.6659 55.2137C23.8221 55.1356 23.9002 55.2918 24.1345 55.2137C24.3688 55.1356 24.525 54.8232 24.6812 54.5889C24.9155 54.2766 25.2279 53.8861 25.5403 53.6518C25.7746 53.808 26.0089 53.4175 26.1651 53.2613C26.3213 53.027 26.5556 52.9489 26.7119 52.7928C27.1024 52.5585 27.3367 51.9337 27.3367 51.5432C27.4929 51.5432 27.4148 51.5432 27.3367 51.5432Z" fill="#1B1B1B"/>
<path d="M41.7069 56.3851V56.307C41.3164 56.2289 40.9259 56.3851 40.5354 56.2289C40.1449 56.1508 39.8325 55.9165 39.5201 55.8384C39.3639 55.7603 39.2077 55.6822 39.0515 55.6041C38.8953 55.526 38.7391 55.6041 38.5048 55.526C38.1924 55.4479 37.88 55.2917 37.6457 55.0575C37.4114 54.8232 37.0209 54.667 36.7085 54.5108C36.396 54.3546 36.0836 54.1203 35.7712 53.9641C35.4588 53.7298 35.4588 53.3394 35.0683 53.1832C34.834 53.1051 34.834 53.1832 34.6778 52.9489C34.5997 52.7927 34.5216 52.6365 34.3654 52.5584C34.2092 52.4022 34.2092 52.4022 34.053 52.4022C33.8187 52.4022 33.8187 52.4803 33.6625 52.3241C33.5063 52.1679 33.272 51.5432 32.9596 51.7775V51.8556C32.5691 51.8556 32.3348 51.387 31.9443 51.6213C31.9443 51.6994 31.9443 51.7775 31.9443 51.7775C31.71 51.8556 32.1005 51.7775 31.7881 51.8556C31.7881 51.9336 32.5691 52.0117 32.5691 52.0117V52.0898C32.5691 52.7146 32.3348 53.2613 32.6472 53.7298C32.8815 54.0422 32.8815 53.9641 33.1939 54.2765C33.3501 54.4327 33.5063 54.8232 33.7406 54.9013C33.9749 54.5108 34.5997 55.4479 34.834 55.526C34.834 55.4479 34.834 55.4479 34.834 55.3698C35.3807 55.526 35.8493 55.9946 36.1617 56.3851C36.0836 56.307 36.0055 56.0727 36.0055 55.9165C36.2398 55.9946 36.4742 56.0727 36.7085 56.1508C36.8647 56.2289 37.099 56.3851 37.2552 56.3851C37.2552 56.307 37.2552 56.307 37.2552 56.2289C37.5676 56.307 37.8019 56.4632 38.1143 56.6194C38.4267 56.7755 38.5048 56.6975 38.7391 56.6975C39.2858 56.6194 39.7544 57.0879 40.223 57.0879C40.1449 57.0098 40.1449 56.9317 40.1449 56.8536C40.3792 56.7756 40.5354 56.9317 40.7697 56.9317C40.9259 56.9317 41.1602 56.8536 41.3164 56.7755C41.3164 56.6975 41.3164 56.6975 41.2383 56.6194C41.2383 56.5413 41.6288 56.5413 41.7069 56.3851Z" fill="#1B1B1B"/>
<path d="M39.4409 35.6119C34.2863 35.4557 30.3031 37.5643 28.2725 37.5643C26.32 37.5643 24.5236 35.6119 18.2755 35.5338C12.0275 35.4557 9.21582 36.7052 9.21582 36.7052L9.52822 39.2043C9.99683 39.2043 10.3873 39.5166 10.4654 40.1414C10.5435 40.7662 10.934 42.1719 11.2464 43.3433C11.7151 45.1395 12.1056 48.4976 17.885 48.5757C24.5236 48.8881 26.32 44.4366 26.9448 41.9376C27.5696 39.4385 29.5221 39.4385 30.3031 41.8595C32.2556 47.5605 34.5987 48.3414 39.3628 48.4976C44.127 48.6538 45.2204 46.4671 45.7671 45.3738C46.3138 44.3585 47.0167 41.5471 47.251 40.2976C47.4853 39.1262 48.1883 39.0481 48.1883 39.0481L48.5788 36.549C48.5788 36.6271 44.5175 35.7681 39.4409 35.6119ZM26.2419 40.3757C25.2265 46.7795 22.1025 47.9509 18.2755 47.9509C14.4486 47.9509 13.199 46.4671 12.4961 44.8271C11.4808 42.4062 11.4808 39.9852 11.8713 39.1262C12.8866 36.8614 14.3705 36.3928 19.9938 36.549C25.6951 36.7833 26.5543 38.5795 26.2419 40.3757ZM45.0642 44.9052C44.3613 46.4671 43.1117 48.029 39.2066 48.029C35.3016 48.029 32.0994 46.8576 31.0841 40.4538C30.7717 38.6576 31.7089 36.8614 37.4884 36.7052C43.2679 36.549 44.7518 36.9395 45.7671 39.2824C46.1576 40.0633 46.1576 42.4843 45.0642 44.9052Z" fill="#0011AB"/>
<path d="M34.0518 36.2371C31.4745 36.7837 29.5219 37.6428 28.2723 37.6428C26.3198 37.6428 24.5235 35.6904 18.2754 35.6123C25.4607 35.7685 26.476 38.3456 28.5066 38.3456C29.8343 38.3456 31.1621 37.018 34.0518 36.2371Z" fill="#0011AB"/>
<path d="M26.8664 41.3906C26.3978 44.3583 24.5234 48.8878 17.8848 48.5754C24.5234 48.8878 26.3197 44.4364 26.9445 41.9373C27.5693 39.4383 29.5218 39.4383 30.3028 41.8592C30.3809 42.0154 30.3809 42.1716 30.459 42.3278C30.3809 42.0154 30.3028 41.703 30.2247 41.3125C29.678 38.5792 27.335 38.8916 26.8664 41.3906Z" fill="#0011AB"/>
<path d="M10.7773 25.6155C10.3868 26.006 10.1525 26.6308 9.99634 27.1774C9.52773 28.5051 9.05913 29.7546 8.74672 31.1603C8.43432 32.4879 8.35622 33.8936 8.27812 35.2993C8.12191 36.7051 8.35622 37.7984 8.59052 39.0479C8.51242 38.267 8.59052 37.2517 8.82482 36.7831C8.66862 39.3603 10.0744 41.7812 10.7773 43.9679C10.1525 42.1717 10.0744 40.0631 9.84014 38.1108C9.68394 37.0955 9.60583 36.1584 9.76204 35.1431C9.84014 34.3622 10.3087 33.4251 10.1525 32.566C10.3087 33.6593 10.4649 34.5184 10.7773 35.5336C11.0117 34.9089 10.6992 33.8155 10.7773 33.0346C10.9336 32.0974 11.1679 31.3165 11.4803 30.3793C12.1051 28.5051 12.3394 27.0212 12.027 25.0689C11.7146 24.7565 11.0117 25.3031 10.7773 25.6155Z" fill="#1B1B1B"/>
<path d="M9.9965 30.8484C9.9965 30.4579 10.0746 30.0674 9.9965 29.677C9.68409 30.1455 9.37169 30.7703 9.13738 31.317C8.98118 31.2389 9.13738 29.8332 9.13738 29.5989C9.13738 29.4427 9.21549 29.2084 9.21549 29.0522C8.98118 29.7551 8.74688 30.4579 8.59068 31.2389C8.27827 32.5665 8.20017 33.9722 8.12207 35.3779C8.12207 36.7055 8.35637 37.7989 8.59068 39.0484C8.51258 38.2674 8.59068 37.2522 8.82498 36.7836C8.66878 39.3608 10.0746 41.7817 10.7775 43.9684C10.1527 42.1722 10.0746 40.0636 9.84029 38.1112C9.68409 37.096 9.60599 36.1589 9.76219 35.1436C9.84029 34.3627 10.3089 33.4255 10.1527 32.5665C10.3089 33.6598 10.4651 34.5189 10.7775 35.5341C11.0118 34.9093 10.6994 33.816 10.7775 33.0351C10.9337 32.0979 11.168 31.317 11.4804 30.3798C11.7928 29.4427 12.0271 28.5055 12.1052 27.6465C11.8709 28.1932 11.7147 28.7398 11.3242 29.2865C11.0118 29.8331 10.4651 30.4579 9.9965 30.8484Z" fill="#1B1B1B"/>
<path d="M9.76219 35.1435C9.84029 34.3626 10.2308 33.5035 10.1527 32.7226C10.0746 33.113 9.91839 33.5816 9.76219 33.894C9.68409 33.6597 9.76219 33.3473 9.68409 33.0349C9.37169 33.6597 9.13738 34.4407 8.82498 35.0654C8.59068 34.4407 8.74688 33.5816 8.74688 32.9568C8.74688 32.254 8.90308 31.5511 8.82498 30.8483C8.82498 30.8483 8.74688 30.8483 8.74688 30.9264C8.82498 30.614 8.90308 30.2235 8.90308 29.9111C8.74688 30.3016 8.66878 30.7702 8.59068 31.1607C8.27827 32.4883 8.20017 33.894 8.12207 35.2997C8.12207 36.7054 8.35637 37.7988 8.59068 39.0483C8.51258 38.2673 8.59068 37.2521 8.82498 36.7835C8.66878 39.3607 10.0746 41.7816 10.7775 43.9683C10.1527 42.1721 10.0746 40.0635 9.84029 38.1111C9.76219 37.0959 9.68409 36.1588 9.76219 35.1435Z" fill="#1B1B1B"/>
<path d="M11.48 30.4574C11.6362 29.9108 11.7924 29.4422 11.8705 28.9736C11.7143 29.1298 11.6362 29.286 11.6362 29.4422C11.4019 30.1451 11.2457 31.0822 10.7771 31.707C10.699 31.1603 10.8552 30.6136 10.7771 30.067C10.6209 30.6917 10.4647 31.3946 10.2304 32.0193C10.1523 32.2536 10.1523 32.4879 10.0742 32.7222C10.2304 33.7374 10.3866 34.5965 10.699 35.5336C10.9333 34.9089 10.6209 33.8155 10.699 33.0346C10.9333 32.0974 11.2457 31.3165 11.48 30.4574Z" fill="#1B1B1B"/>
<path d="M50.5317 26.084C49.7507 23.5068 49.2821 21.0859 48.9697 18.3525C48.5011 19.0554 48.0325 20.0706 47.5639 20.8516C47.2515 21.3983 46.5486 23.1163 46.1581 23.1944L45.7676 23.5849C46.3924 24.0535 46.4705 26.084 46.6267 26.8649C46.7829 28.0363 46.861 29.2078 47.0172 30.4573C47.4858 29.9106 47.4077 28.7392 47.7982 28.1144C47.7201 30.6916 48.1106 33.2687 47.5639 35.7678C47.7201 35.143 48.0325 34.2059 48.423 33.7373C48.3449 35.6897 48.0325 37.4859 47.7982 39.3602C47.642 41.3125 47.7982 43.2649 47.7982 45.1392C47.7982 43.7335 47.7201 42.3278 48.0325 41.0002C48.3449 39.8287 48.8916 38.6573 49.2821 37.564C50.0631 34.9868 50.2193 32.3316 50.2193 29.5202C50.2193 31.0821 50.3755 32.644 50.2974 34.284C50.8442 33.3468 50.9222 31.7068 50.9222 30.5354C51.0003 28.8173 51.0003 27.4897 50.5317 26.084Z" fill="#1B1B1B"/>
<path d="M47.0174 30.3011C47.486 29.7545 47.4079 28.5831 47.7984 27.9583C47.7203 30.5354 48.1108 33.1126 47.5641 35.6116C47.7203 34.9869 48.0327 34.0497 48.4232 33.5811C48.3451 35.5335 48.0327 37.3297 47.7984 39.204C47.6422 41.1564 47.7984 43.1088 47.7984 44.9831C47.7984 43.5773 47.7203 42.1716 48.0327 40.844C48.3451 39.6726 48.8918 38.5012 49.2823 37.4078C50.0633 34.8307 50.2195 32.1754 50.2195 29.364C50.2195 30.9259 50.3757 32.4878 50.2976 34.1278C50.8443 33.1907 50.9224 31.5507 50.9224 30.3792C50.9224 28.8954 50.9224 27.4897 50.4538 26.084C49.9071 24.3659 49.5947 22.7259 49.2823 21.0078C48.8918 22.1011 48.5794 23.2726 48.8918 24.5221C49.2042 25.7716 49.5947 27.5678 49.048 28.8954C48.7356 28.3488 48.7356 27.4897 48.5794 26.9431C48.4232 26.3183 48.1889 25.7716 47.9546 25.1469C47.6422 25.6935 47.3298 26.3183 47.0955 26.865C46.8612 26.3964 46.7831 25.7716 46.5488 25.3031C46.4707 25.1469 46.3926 25.0688 46.3145 24.9126C46.4707 25.6154 46.5488 26.3964 46.6269 26.865C46.8612 27.9583 46.8612 29.1297 47.0174 30.3011Z" fill="#1B1B1B"/>
<path d="M47.8767 27.9581C47.7986 30.5353 48.1891 33.1124 47.6424 35.6114C47.7986 34.9867 48.111 34.0495 48.5015 33.581C48.4234 35.5334 48.111 37.3295 47.8767 39.2038C47.7205 41.1562 47.8767 43.1086 47.8767 44.9829C47.8767 43.5772 47.7986 42.1715 48.111 40.8438C48.4234 39.6724 48.9701 38.501 49.3606 37.4076C50.1416 34.8305 50.2978 32.1753 50.2978 29.3638C50.2978 30.9257 50.454 32.4876 50.3759 34.1276C50.9226 33.1905 51.0007 31.5505 51.0007 30.3791C51.0007 28.8953 51.0007 27.4895 50.5321 26.0838C50.2197 25.1467 49.9854 24.1314 49.7511 23.1943C49.673 23.1943 49.673 23.1162 49.5949 23.1162C49.4387 23.5067 49.7511 24.1314 49.8292 24.5219C49.9073 24.9905 49.9854 25.381 50.0635 25.8495C50.2197 26.5524 50.3759 28.2705 49.9854 28.9734C49.8292 28.5829 49.3606 28.0362 49.3606 27.6457C49.2044 27.88 49.2825 28.5829 49.2825 28.9734C49.2825 29.3638 49.2825 29.8324 49.2044 30.301C49.1263 30.9257 49.1263 32.0191 48.7358 32.4876C48.8139 31.6286 48.5796 30.5353 48.4234 29.7543C48.2672 28.9734 48.1891 27.3334 48.1891 26.4743C47.7986 26.7086 47.2519 28.3486 47.1738 28.7391C47.0957 29.0514 47.0176 29.3638 46.9395 29.7543C46.9395 29.9886 47.0176 30.2229 47.0176 30.4572C47.4862 29.7543 47.4081 28.661 47.8767 27.9581Z" fill="#1B1B1B"/>
<path d="M10.856 21.555C10.3874 21.555 9.60643 21.7112 9.29403 21.7112H9.45023C8.66922 21.7112 7.88821 20.4617 7.1072 20.3055C6.40429 20.1493 5.70138 20.3836 5.07657 19.915C5.70138 20.3836 5.85758 20.696 6.56049 21.0084C5.93568 21.3988 4.76417 21.0865 3.90505 21.3988C3.04594 21.7893 2.26493 22.1798 1.64012 22.8046C0.312404 24.2103 0 25.8503 0 27.7246C0.312404 27.1779 0.70291 26.5531 1.32772 26.2408C1.64012 26.0846 2.10873 25.8503 2.42113 25.6941C2.81164 25.5379 3.28025 25.616 3.59265 25.4598C3.20214 26.3969 3.04594 26.9436 3.04594 28.0369C3.04594 28.8179 2.81164 30.1455 3.20214 30.8484C2.81164 28.896 5.46708 28.1931 6.87289 28.2712C8.74732 28.4274 10.3874 28.4274 12.1057 27.4903C13.5115 26.6312 14.9954 25.4598 14.8392 23.7417C14.6049 21.8674 12.4962 21.555 10.856 21.555Z" fill="#1B1B1B"/>
<path d="M9.45023 21.7112C9.29403 20.9302 7.88821 20.4617 7.1072 20.3055C6.40429 20.1493 5.62328 20.3055 5.07657 19.8369C5.70138 20.3055 5.93568 20.696 6.63859 21.0864C5.93568 21.3988 4.76417 21.0864 3.90505 21.3988C3.04594 21.7893 2.26493 22.1798 1.64012 22.8045C0.312404 24.2102 0 25.8502 0 27.7245C0.312404 27.1779 0.70291 26.5531 1.32772 26.2407C1.64012 26.0845 2.10873 25.8502 2.42113 25.6941C2.81164 25.5379 3.28025 25.616 3.59265 25.4598C3.20214 26.3969 3.04594 26.9436 3.04594 28.0369C3.04594 28.8179 2.81164 30.1455 3.20214 30.8483C2.81164 28.896 5.46708 28.1931 6.87289 28.2712C8.74732 28.4274 10.3874 28.4274 12.1057 27.4902C13.5115 26.6312 14.9954 25.2255 14.8392 23.5074C14.8392 23.195 14.683 22.8826 14.5268 22.6483C14.2144 23.8979 13.5115 24.9131 12.2619 25.5379C11.4809 25.9283 10.6998 25.9283 9.84074 25.7722C9.45023 25.6941 9.05972 25.616 8.66922 25.4598C8.35682 25.3036 8.12251 25.1474 7.73201 25.1474C7.96631 24.6007 8.20061 24.0541 8.66922 23.5855C8.20061 23.195 7.1853 23.3512 6.56049 23.2731C7.2634 22.6483 7.73201 21.9455 8.74732 21.6331C9.21593 21.4769 9.68453 21.4769 10.1531 21.3988C10.4655 21.3207 10.6217 21.6331 10.856 21.555C10.3874 21.555 9.68453 21.7112 9.37213 21.7112H9.45023Z" fill="#1B1B1B"/>
<path d="M11.1685 27.6463C9.99694 27.9587 8.90352 27.7244 7.81011 27.5682C7.1853 27.4901 6.63859 27.412 6.01378 27.4901C5.70138 27.4901 5.31087 27.412 4.99847 27.4901C4.68606 27.5682 4.52986 27.6463 4.29556 27.7244C4.13936 27.1777 4.45176 26.0844 4.60796 25.5377C4.76417 24.913 5.07657 24.3663 5.38897 23.7415C4.68606 23.6634 3.43645 23.5853 2.96784 24.132C3.12404 22.8825 5.15467 21.9453 6.16998 21.4768C6.79479 21.1644 7.4196 20.9301 8.12251 20.9301C8.51302 20.9301 8.98162 20.9301 9.37213 20.9301H9.45023C8.66922 20.852 7.96631 20.0711 7.1853 19.8368C6.48239 19.6806 5.07657 19.8368 4.52986 19.4463C5.15467 19.9149 6.01378 20.5396 6.71669 20.852C6.01378 21.2425 4.84227 21.0082 3.98315 21.3987C3.12404 21.7891 2.34303 22.1796 1.71822 22.8044C0.312404 24.2101 0 25.8501 0 27.7244C0.312404 27.1777 0.70291 26.553 1.32772 26.2406C1.64012 26.0844 2.10873 25.8501 2.42113 25.6939C2.81164 25.5377 3.28024 25.6158 3.59265 25.5377C3.20214 26.4749 3.04594 27.0215 3.04594 28.1149C3.04594 28.8958 2.81164 30.2234 3.20214 30.9263C2.81164 28.9739 5.46707 28.2711 6.87289 28.3491C8.74732 28.5053 10.3874 28.5053 12.1057 27.5682C12.4181 27.412 12.6524 27.1777 12.9648 27.0215C12.8867 27.0215 12.8867 27.0215 12.8086 27.0215C12.1838 27.0215 11.7152 27.4901 11.1685 27.6463Z" fill="#1B1B1B"/>
<path d="M49.4376 16.5566C48.8128 15.0728 47.2508 14.1357 46.0011 13.3547C45.3763 12.8862 44.7515 12.4176 44.2048 11.8709C43.8143 11.4023 43.2676 10.0747 42.7209 9.91853C42.5647 9.52805 42.3304 9.13758 42.018 8.90329C42.018 9.44996 41.8618 10.0747 41.6275 10.5433C41.4713 10.7776 40.3779 12.1833 40.1436 12.1052C39.675 12.0271 39.9093 9.84044 39.8312 9.37186C39.4407 7.88805 38.5815 6.24805 37.5662 4.99853C37.0976 4.37377 36.3166 3.98329 35.6918 3.43663C35.4575 3.20234 35.1451 2.81186 34.7546 2.73377C34.2079 2.49948 34.3641 2.57758 33.9736 2.96805C32.6459 4.13948 30.7714 6.40424 28.897 6.24805C29.1313 5.5452 29.3656 3.9052 30.5371 2.34329C27.8817 3.04615 24.3672 4.45186 23.8204 6.09186C23.6642 4.76425 23.7423 3.35853 23.3518 2.10901C23.0394 1.56234 22.6489 0.937578 22.1803 0.390911C21.6336 -0.23385 21.5555 -0.0776599 21.0869 0.469007C20.2278 1.79663 19.2906 3.43663 17.4162 2.73377C16.4789 2.42139 16.3227 2.03091 15.6198 2.88996C15.0731 3.59282 14.4483 4.29567 14.1359 5.07663C13.433 6.63853 13.2768 8.27853 12.5739 9.76234C12.2615 10.4652 11.871 11.3242 10.9338 11.09C10.1528 10.9338 9.68416 10.0747 9.05935 9.68424C8.59074 10.2309 8.43454 11.8709 8.35644 12.5738C8.20024 13.5109 7.65353 14.4481 7.49733 15.3852C7.26302 16.7128 8.43454 20.3833 9.05935 21.6328C10.1528 23.2728 11.871 25.7719 13.2768 26.3185C16.2446 27.4119 19.3687 27.8804 22.6489 27.6462C23.5861 27.5681 24.7577 27.4119 25.6168 27.2557C26.4759 27.0214 27.4131 26.7871 28.3503 26.6309C30.0685 26.2404 31.7868 25.3033 33.5831 24.9909C34.5203 24.8347 35.5356 25.069 36.5509 25.069C37.5662 25.069 38.4253 25.2252 39.3626 25.2252C41.1589 25.2252 43.4238 25.7719 45.0639 24.8347C46.5479 23.9757 48.0318 22.8042 49.1252 21.4766C50.2186 20.149 50.1405 18.1966 49.4376 16.5566Z" fill="#1B1B1B"/>
<path d="M44.9858 24.9128C46.4698 24.0538 47.9537 22.8823 49.0471 21.5547C50.2186 20.149 50.1405 18.1966 49.4376 16.5566C48.8128 15.0728 47.2508 14.1357 46.0012 13.3547C45.3763 12.8861 44.7515 12.4176 44.2048 11.8709C43.8143 11.4023 43.2676 10.0747 42.7209 9.91853C42.5647 9.52805 42.3304 9.13758 42.018 8.90329C42.018 9.44996 41.8618 10.0747 41.6275 10.5433C41.4713 10.7776 40.3779 12.1833 40.1436 12.1052C39.675 12.0271 39.9093 9.84043 39.8312 9.37186C39.4407 7.88805 38.5816 6.24805 37.5662 4.99853C37.0976 4.37377 36.3166 3.98329 35.6918 3.43663C35.4575 3.20234 35.1451 2.81186 34.7546 2.73377C34.2079 2.49948 34.3641 2.57758 33.9736 2.96805C32.6459 4.13948 30.7714 6.40424 28.897 6.24805C29.1313 5.5452 29.3656 3.9052 30.5371 2.34329C27.8817 3.04615 24.3672 4.45186 23.8204 6.09186C23.6642 4.76424 23.7423 3.35853 23.3518 2.10901C23.0394 1.56234 22.6489 0.937578 22.1803 0.390911C21.6336 -0.23385 21.5555 -0.0776599 21.0869 0.469007C20.2278 1.79663 19.2906 3.43663 17.4162 2.73377C16.4789 2.42139 16.3227 2.03091 15.6198 2.88996C15.0731 3.59282 14.4483 4.29567 14.1359 5.07662C13.433 6.63853 13.2768 8.27853 12.5739 9.76234C12.2615 10.4652 11.871 11.3242 10.9338 11.09C10.1528 10.9338 9.68416 10.0747 9.05935 9.68424C8.59074 10.2309 8.43454 11.8709 8.35644 12.5738C8.20024 13.5109 7.65353 14.4481 7.49733 15.3852C7.26302 16.7128 8.43454 20.3833 9.05935 21.6328C10.1528 23.2728 11.871 25.7719 13.2768 26.3185C15.2293 27.0214 17.3381 27.49 19.4468 27.6461C19.1344 27.5681 18.822 27.49 18.5096 27.4119C18.5877 27.4119 18.6658 27.4119 18.7439 27.4119C18.1972 27.3338 17.8067 26.5528 17.4162 26.2404C16.9476 25.85 16.4008 25.5376 16.0103 25.069C15.1512 24.1319 14.995 22.9604 15.0731 21.7109C15.1512 20.4614 15.8541 19.3681 16.6352 18.4309C17.26 17.5719 17.9629 16.3223 19.0563 15.9319C18.7439 16.5566 18.822 17.4938 18.7439 18.1185C19.3687 17.5719 20.2278 17.7281 21.0088 17.5719C21.8679 17.4157 22.8051 17.1033 23.6642 16.7909C24.992 16.2442 27.1007 15.6195 27.9598 14.2138C28.3503 15.1509 27.8817 16.2442 27.335 17.0252C28.116 17.1033 29.2094 16.869 30.0685 16.7128C31.0057 16.5566 32.0211 16.4785 33.0364 16.5566C34.9108 16.7128 36.3947 17.8061 38.1129 18.1966C37.8786 18.5871 37.0976 18.4309 36.7071 18.6652C36.3166 18.8214 35.848 19.2119 35.5356 19.5242C36.629 19.5242 37.6443 19.6804 38.6597 19.8366C39.7531 19.9928 40.5341 19.4461 41.6275 19.3681C41.7837 21.0861 40.456 22.2576 39.2064 23.2728C38.5816 23.8195 37.9567 24.3661 37.2538 24.7566C37.0976 24.8347 36.8633 24.9128 36.629 24.9909C37.5662 24.9909 38.4254 25.069 39.4407 25.069C41.0808 25.3033 43.4238 25.85 44.9858 24.9128Z" fill="#1B1B1B"/>
<path d="M44.9858 24.9128C46.4698 24.0538 47.9537 22.8823 49.0471 21.5547C50.2186 20.149 50.1405 18.1966 49.4376 16.5566C48.8128 15.0728 47.2508 14.1357 46.0012 13.3547C45.3763 12.8861 44.7515 12.4176 44.2048 11.8709C43.8143 11.4023 43.2676 10.0747 42.7209 9.91853C42.5647 9.52805 42.3304 9.13758 42.018 8.90329C42.018 9.44996 41.8618 10.0747 41.6275 10.5433C41.4713 10.7776 40.3779 12.1833 40.1436 12.1052C39.675 12.0271 39.9093 9.84043 39.8312 9.37186C39.4407 7.88805 38.5816 6.24805 37.5662 4.99853C37.0976 4.37377 36.3166 3.98329 35.6918 3.43663C35.4575 3.20234 35.1451 2.81186 34.7546 2.73377C34.2079 2.49948 34.3641 2.57758 33.9736 2.96805C32.6459 4.13948 30.7714 6.40424 28.897 6.24805C29.1313 5.5452 29.3656 3.9052 30.5371 2.34329C27.8817 3.04615 24.3672 4.45186 23.8204 6.09186C23.6642 4.76424 23.7423 3.35853 23.3518 2.10901C23.0394 1.56234 22.6489 0.937578 22.1803 0.390911C21.6336 -0.23385 21.5555 -0.0776599 21.0869 0.469007C20.2278 1.79663 19.2906 3.43663 17.4162 2.73377C16.4789 2.42139 16.3227 2.03091 15.6198 2.88996C15.0731 3.59282 14.4483 4.29567 14.1359 5.07663C13.433 6.63853 13.2768 8.27853 12.5739 9.76234C12.2615 10.4652 11.871 11.3242 10.9338 11.09C10.1528 10.9338 9.68416 10.0747 9.05935 9.68424C8.59074 10.2309 8.43454 11.8709 8.35644 12.5738C8.20024 13.5109 7.65353 14.4481 7.49733 15.3852C7.26302 16.7128 8.43454 20.3833 9.05935 21.6328C10.1528 23.2728 11.871 25.7719 13.2768 26.3185C13.433 26.3966 13.5892 26.3966 13.6673 26.4747C13.2768 26.0061 12.8863 25.5376 12.652 25.3033C11.9491 24.4442 11.4024 23.6633 11.09 22.6481C10.6995 21.5547 10.3871 20.3833 10.309 19.2119C10.2309 18.5871 10.2309 17.9623 10.2309 17.3376C10.2309 16.6347 10.3871 15.9319 10.3871 15.3071C10.6995 15.7757 11.0119 16.4785 11.4024 16.869C11.871 16.4004 12.0272 15.3852 12.3396 14.6823C12.7301 13.9795 12.8863 13.3547 13.1206 12.4957C13.3549 11.7147 14.3702 8.43472 15.1512 8.35662C15.3074 9.05948 15.3855 9.84043 15.6198 10.4652C15.9322 11.4023 16.2446 10.9338 16.8695 10.3871C17.4943 9.84043 17.9629 9.21567 18.5096 8.59091C18.9001 8.12234 19.6811 7.02901 20.2278 6.95091C20.3059 7.49758 20.5402 8.20043 20.7745 8.66901C21.7898 8.8252 23.1956 8.20043 24.211 7.88805C25.3825 7.49758 26.554 7.26329 27.6474 6.71663C27.7255 7.57567 27.335 8.12234 27.335 8.90329C28.5065 8.90329 30.2247 8.20043 31.2401 7.65377C32.2554 7.02901 33.2707 5.77948 34.3641 5.38901C34.6765 6.09186 34.7546 6.95091 34.8327 7.73186C34.9108 8.43472 35.2232 9.68424 34.8327 10.309C35.6918 9.91853 35.6137 8.66901 36.3166 8.35662C36.7071 9.29377 36.9414 10.0747 37.1757 11.09C37.41 12.1833 37.2538 13.2766 37.3319 14.37C38.191 14.4481 38.6597 13.6671 39.3626 13.3547C40.0655 13.0423 40.8465 13.6671 41.4713 14.1357C42.799 15.1509 44.1267 16.1661 44.9858 17.5719C45.845 18.8995 46.0012 21.3204 44.9858 22.57C44.5953 23.1166 43.7362 23.5852 43.1895 23.9757C42.2523 24.6004 41.4713 24.6004 40.3779 24.6785C39.5969 24.7566 38.6597 24.9128 37.8786 25.2252C38.3472 25.2252 38.8159 25.3033 39.2845 25.3033C41.0808 25.3033 43.4238 25.85 44.9858 24.9128Z" fill="#1B1B1B"/>
<path d="M44.2048 44.5145C43.6581 45.8422 42.4865 47.1698 39.1282 47.1698C35.7699 47.1698 32.9582 46.1545 32.021 40.5317C31.7867 38.9698 32.5677 37.4079 37.5662 37.2517C42.5646 37.0955 43.8143 37.486 44.7515 39.4383C45.142 40.3755 45.142 42.4841 44.2048 44.5145Z" fill="#1B1B1B"/>
<path d="M25.4613 40.6096C24.6022 46.3106 21.7906 47.3258 18.3541 47.3258C14.9958 47.3258 13.8243 45.9982 13.2776 44.5925C12.4185 42.4839 12.4185 40.2972 12.7309 39.5163C13.6681 37.4858 14.9177 37.0953 19.9162 37.2515C24.9146 37.4077 25.6956 38.9696 25.4613 40.6096Z" fill="#1B1B1B"/>
</g>
<defs>
<clipPath id="clip0">
<rect width="51" height="82" fill="white"/>
</clipPath>
</defs>
</svg>
