<svg width="148" height="82" viewBox="0 0 149 82" fill="none" xmlns="http://www.w3.org/2000/svg">
<path d="M68.9631 31.8153H72.3295C72.3011 29.0952 70.1349 27.2557 66.7543 27.2557C63.4304 27.2557 61.0369 29.0668 61.0582 31.7727C61.0511 33.9815 62.5994 35.2244 65.1136 35.7997L66.6335 36.1548C68.2315 36.5241 68.9489 36.9574 68.9631 37.7741C68.9489 38.6619 68.1179 39.2798 66.7045 39.2798C65.1491 39.2798 64.1264 38.5554 64.0483 37.1562H60.6818C60.7244 40.5582 63.0895 42.1847 66.7472 42.1847C70.3693 42.1847 72.5142 40.544 72.5284 37.7812C72.5142 35.4588 70.9446 34.0384 68.0753 33.4062L66.8253 33.1222C65.5043 32.8381 64.6662 32.3977 64.6946 31.5312C64.7017 30.7358 65.3835 30.1605 66.7472 30.1605C68.1179 30.1605 68.8707 30.7784 68.9631 31.8153ZM74.304 42H84.446V39.1449H77.8196V36.1548H83.9276V33.2926H77.8196V30.3097H84.446V27.4545H74.304V42ZM86.6477 42H90.1634V37.0213H91.9673L94.6236 42H98.4588L95.4403 36.4602C97.0384 35.7358 97.9616 34.3082 97.9616 32.2983C97.9616 29.3082 95.9233 27.4545 92.6562 27.4545H86.6477V42ZM90.1634 34.2514V30.2884H91.8963C93.473 30.2884 94.3182 30.9489 94.3182 32.2983C94.3182 33.6477 93.473 34.2514 91.8963 34.2514H90.1634ZM103.406 27.4545H99.8899V42H103.406V27.4545ZM119.341 34.7273C119.341 29.919 116.301 27.2557 112.395 27.2557C108.475 27.2557 105.456 29.919 105.456 34.7273C105.456 39.5142 108.475 42.1989 112.395 42.1989C116.301 42.1989 119.341 39.5355 119.341 34.7273ZM115.748 34.7273C115.748 37.5753 114.498 39.1165 112.395 39.1165C110.3 39.1165 109.043 37.5753 109.043 34.7273C109.043 31.8793 110.3 30.3381 112.395 30.3381C114.498 30.3381 115.748 31.8793 115.748 34.7273ZM130.194 27.4545V36.5312C130.194 38.044 129.121 39.1307 127.551 39.1307C125.975 39.1307 124.909 38.044 124.909 36.5312V27.4545H121.394V36.8366C121.394 40.0895 123.851 42.1847 127.551 42.1847C131.223 42.1847 133.702 40.0895 133.702 36.8366V27.4545H130.194ZM143.768 31.8153H147.134C147.106 29.0952 144.94 27.2557 141.559 27.2557C138.235 27.2557 135.842 29.0668 135.863 31.7727C135.856 33.9815 137.404 35.2244 139.918 35.7997L141.438 36.1548C143.036 36.5241 143.754 36.9574 143.768 37.7741C143.754 38.6619 142.923 39.2798 141.509 39.2798C139.954 39.2798 138.931 38.5554 138.853 37.1562H135.487C135.529 40.5582 137.894 42.1847 141.552 42.1847C145.174 42.1847 147.319 40.544 147.333 37.7812C147.319 35.4588 145.749 34.0384 142.88 33.4062L141.63 33.1222C140.309 32.8381 139.471 32.3977 139.499 31.5312C139.506 30.7358 140.188 30.1605 141.552 30.1605C142.923 30.1605 143.675 30.7784 143.768 31.8153ZM60.625 51.3097H65.0426V63H68.5085V51.3097H72.919V48.4545H60.625V51.3097ZM74.636 63H84.7781V60.1449H78.1516V57.1548H84.2596V54.2926H78.1516V51.3097H84.7781V48.4545H74.636V63ZM94.842 52.8153H98.2085C98.18 50.0952 96.0138 48.2557 92.6332 48.2557C89.3093 48.2557 86.9158 50.0668 86.9371 52.7727C86.93 54.9815 88.4783 56.2244 90.9925 56.7997L92.5124 57.1548C94.1104 57.5241 94.8278 57.9574 94.842 58.7741C94.8278 59.6619 93.9968 60.2798 92.5835 60.2798C91.0281 60.2798 90.0053 59.5554 89.9272 58.1562H86.5607C86.6033 61.5582 88.9684 63.1847 92.6261 63.1847C96.2482 63.1847 98.3931 61.544 98.4073 58.7812C98.3931 56.4588 96.8235 55.0384 93.9542 54.4062L92.7042 54.1222C91.3832 53.8381 90.5451 53.3977 90.5735 52.5312C90.5806 51.7358 91.2624 51.1605 92.6261 51.1605C93.9968 51.1605 94.7496 51.7784 94.842 52.8153ZM99.707 51.3097H104.125V63H107.591V51.3097H112.001V48.4545H99.707V51.3097ZM113.718 63H123.86V60.1449H117.234V57.1548H123.342V54.2926H117.234V51.3097H123.86V48.4545H113.718V63ZM126.062 63H129.577V58.0213H131.381L134.038 63H137.873L134.854 57.4602C136.452 56.7358 137.376 55.3082 137.376 53.2983C137.376 50.3082 135.337 48.4545 132.07 48.4545H126.062V63ZM129.577 55.2514V51.2884H131.31C132.887 51.2884 133.732 51.9489 133.732 53.2983C133.732 54.6477 132.887 55.2514 131.31 55.2514H129.577Z" fill="white"/>
<g clip-path="url(#clip0)">
<path d="M39.051 61.0704C38.7385 61.6171 38.5042 61.3047 38.1918 61.6171C37.9575 61.8513 37.9575 62.6323 37.7232 62.9447C37.567 63.179 37.1765 63.5694 36.9422 63.8037C36.9422 63.6475 36.8641 63.4133 36.8641 63.2571C36.2393 62.8666 35.3021 62.398 34.9897 63.3352C34.8335 63.3352 34.2868 63.1009 34.1306 63.179C33.7401 63.2571 33.8963 63.4913 33.662 63.8037C33.1153 64.4285 32.881 63.8818 32.5686 63.2571C31.9438 63.4133 31.8657 63.179 31.397 62.9447C31.1627 62.7885 30.616 62.7104 30.5379 62.3199C30.0693 62.2418 31.0846 61.539 30.6941 61.6171C30.9284 61.0704 31.0846 60.6799 30.2255 60.1333C30.3036 59.9771 30.2255 59.8209 30.3036 59.7428C29.9131 59.8209 29.4445 59.9771 29.054 60.0552C29.054 59.9771 29.054 59.899 29.054 59.7428C28.8197 59.899 28.5073 59.9771 28.1949 59.9771C28.1949 60.2894 28.1949 60.5237 28.1949 60.8361C27.9606 60.8361 27.7263 60.758 27.5701 60.6018C27.8825 60.9142 28.273 61.539 27.9606 62.0856C27.6482 62.7104 27.1015 62.3199 26.9453 61.8513C26.5548 62.3199 26.711 63.2571 25.8519 63.3352C25.8519 63.2571 25.8519 63.1009 25.8519 63.0228C25.3833 62.8666 24.9928 63.3352 24.6804 62.7885C24.4461 63.179 23.9774 63.7256 23.5869 63.9599C23.3526 63.2571 23.5869 62.2418 22.5716 62.0856C22.3373 62.0856 22.2592 62.398 21.9468 62.3199C21.7906 62.2418 21.8687 61.8513 21.7125 61.7733C21.322 61.539 20.9315 61.6171 20.6972 61.9294C20.7753 61.7733 20.6972 61.2266 20.6972 61.0704C20.6972 60.758 20.6972 60.3675 20.541 60.1333C20.1505 59.5085 19.0571 60.3675 18.7447 59.5085C18.6666 59.118 18.6666 58.8056 18.2761 58.5713C18.2761 58.7275 18.2761 58.8056 18.198 58.9618C17.9637 58.6494 17.9637 58.1809 17.8856 57.7904C17.8075 57.3218 17.8075 57.0094 17.5732 56.619L17.417 56.6971C17.3389 56.1504 17.2608 54.979 16.4797 55.2133C16.2454 55.2913 15.933 55.6037 15.7768 55.7599C14.8396 54.5104 14.2929 52.4799 14.371 50.9961C14.4491 51.2304 14.6053 51.2304 14.7615 51.3085C14.8396 50.5275 14.6053 50.1371 14.2929 49.5123C14.2148 49.3561 14.2148 49.278 14.1367 49.1218C14.1367 50.2152 14.2148 51.3866 13.9024 52.4799C13.5119 53.9637 12.8871 55.4475 12.1061 56.8533C11.3251 58.3371 10.8565 59.5085 10.6222 61.1485C10.5441 61.9294 10.2317 62.7885 10.3879 63.6475C10.466 64.3504 10.7784 65.0532 10.8565 65.7561C10.8565 64.5847 10.7784 63.4133 11.3251 62.3199C11.4032 64.1161 12.4185 65.5999 12.1842 67.5523C12.1061 68.4894 12.028 69.5047 11.8718 70.4418C11.7937 71.3009 11.3251 72.3161 11.4032 73.1752C11.8718 72.4723 12.028 71.5352 12.5747 70.9104C12.4966 72.6285 12.8871 73.7999 14.371 74.8933C15.0739 75.4399 15.933 75.9085 16.714 76.3771C17.2608 76.7675 17.5732 77.3923 18.1199 77.7828C18.1199 77.4704 18.1199 77.0799 18.1199 76.7675C18.6666 77.2361 19.2133 77.6266 19.6819 78.0952C20.0724 78.4856 20.3848 79.2666 20.7753 79.5009C20.8534 78.4856 21.0096 77.7828 21.4782 76.9237C21.7125 76.5332 21.9468 75.9085 22.3373 75.8304C22.7278 75.7523 23.2745 76.2209 23.5869 76.4552C24.2899 77.0799 24.7585 77.7828 25.3052 78.4856C25.7738 78.9542 26.2424 79.9694 26.9453 80.2818C27.0234 79.8913 27.1015 79.579 27.2577 79.1885C27.8044 79.1885 28.0387 79.8913 28.273 80.2818C28.5073 79.7352 29.5226 78.1732 29.4445 79.6571C29.4445 80.5161 29.2102 81.3752 29.3664 82.2342C30.0693 81.6875 30.6941 80.2818 31.0846 79.4228C31.5532 78.4075 31.9438 76.7675 32.8029 75.9866C32.881 76.6894 33.1153 77.3923 33.3496 78.0952C33.8963 77.939 36.005 74.5809 36.4736 76.2209C36.8641 77.5485 36.4736 79.6571 36.2393 80.9066C36.8641 80.2037 37.3327 79.4228 37.8013 78.6418C38.1918 78.0952 38.9728 76.299 39.5196 76.0647C39.6758 76.299 39.6758 76.5333 39.6758 76.8456C41.4721 76.0647 42.7998 74.2685 43.2684 72.6285C43.5027 71.8475 43.737 70.9104 43.737 70.0513C43.737 69.1142 43.4246 68.2552 43.5027 67.3961C43.737 68.099 44.0494 68.8018 44.2837 69.5047C44.518 70.2856 44.2056 71.2228 44.518 72.0037C45.0647 71.4571 45.6114 70.2856 45.9238 69.5047C46.3144 68.7237 46.783 67.9428 46.9392 67.0056C47.3297 65.1313 46.4706 63.5694 46.3144 61.6952C46.1581 59.8209 47.0173 58.0247 46.7049 56.2285C46.5487 55.3694 45.9238 54.5885 45.6114 53.7294C45.299 52.7923 45.0647 51.9333 45.0647 50.918C45.0647 50.7618 45.0647 50.4494 44.9866 50.1371C44.9866 50.2933 44.9085 50.4494 44.9085 50.5275C44.8304 51.0742 44.6742 51.7771 44.518 52.3237C44.2056 53.5733 43.5808 54.6666 43.2684 55.9161C42.7998 55.838 42.7217 55.4475 42.4093 55.1352C41.9407 54.7447 41.6283 54.6666 41.0816 54.5885C41.7064 55.2913 41.8626 56.0723 41.3159 56.8533C41.394 56.7752 41.394 56.8533 41.394 56.7752C41.4721 57.2437 41.0035 58.1028 40.4568 57.7904C40.1444 58.0247 40.4568 58.1028 40.5349 58.3371C40.613 58.5713 40.5349 59.0399 40.3006 59.1961C39.9882 59.3523 39.9101 59.118 39.5977 59.4304C39.4415 59.5866 39.051 59.8209 38.9729 60.0552C38.9729 60.2113 39.2853 60.6799 39.051 61.0704Z" fill="white"/>
<path d="M10.6222 61.0705C10.5441 61.8515 10.2317 62.7105 10.3879 63.5696C10.466 64.2724 10.7784 64.9753 10.8565 65.6781C10.8565 64.5067 10.7784 63.3353 11.3251 62.2419C11.4032 64.0381 12.4185 65.5219 12.1842 67.4743C12.1061 68.4115 12.028 69.4267 11.8718 70.3638C11.7937 71.2229 11.3251 72.2381 11.4032 73.0972C11.8718 72.3943 12.028 71.4572 12.5747 70.8324C12.4966 72.5505 12.8871 73.7219 14.371 74.8153C15.0739 75.3619 15.933 75.8305 16.714 76.2991C17.2608 76.6896 17.5732 77.3143 18.1199 77.7048C18.1199 77.3924 18.1199 77.0019 18.1199 76.6896C18.6666 77.1581 19.2133 77.5486 19.6819 78.0172C20.0724 78.4076 20.3848 79.1886 20.7753 79.4229C20.8534 78.4076 21.0096 77.7048 21.4782 76.8457C21.7125 76.4553 21.9468 75.8305 22.3373 75.7524C22.7278 75.6743 23.2745 76.1429 23.5869 76.3772C24.2899 77.0019 24.7585 77.7048 25.3052 78.4076C25.7738 78.8762 26.2424 79.8915 26.9453 80.2038C27.0234 79.8134 27.1015 79.501 27.2577 79.1105C27.8044 79.1105 28.0387 79.8134 28.273 80.2038C28.5073 79.6572 29.5226 78.0953 29.4445 79.5791C29.4445 80.4381 29.2102 81.2972 29.3664 82.1562C30.0693 81.6096 30.6941 80.2038 31.0846 79.3448C31.5532 78.3296 31.9438 76.6896 32.8029 75.9086C32.881 76.6115 33.1153 77.3143 33.3496 78.0172C33.8963 77.861 36.005 74.5029 36.4736 76.1429C36.8641 77.4705 36.4736 79.5791 36.2393 80.8286C36.8641 80.1257 37.3327 79.3448 37.8013 78.5638C38.1918 78.0172 38.9728 76.221 39.5196 75.9867C39.6758 76.221 39.6758 76.4553 39.6758 76.7677C41.4721 75.9867 42.7998 74.1905 43.2684 72.5505C43.5027 71.7696 43.737 70.8324 43.737 69.9734C43.737 69.0362 43.4246 68.1772 43.5027 67.3181C43.737 68.021 44.0494 68.7238 44.2837 69.4267C44.518 70.2077 44.2056 71.1448 44.518 71.9257C45.0647 71.3791 45.6114 70.2077 45.9238 69.4267C46.3144 68.6457 46.783 67.8648 46.9392 66.9276C47.3297 65.0534 46.4706 63.4915 46.3144 61.6172C46.1581 59.7429 47.0173 57.9467 46.7049 56.1505C46.5487 55.2915 45.9238 54.5105 45.6114 53.6515C45.299 52.7143 45.0647 51.8553 45.0647 50.84C45.0647 50.6838 45.0647 50.3715 44.9866 50.0591C44.9866 50.2153 44.9085 50.3715 44.9085 50.4496C44.8304 50.9962 44.6742 51.6991 44.518 52.2458C44.4399 52.6362 44.2837 53.0267 44.1275 53.3391C44.1275 53.8858 44.1275 54.4324 43.9713 54.9791C43.737 55.5257 43.3465 56.0724 43.1122 56.6191C42.7998 57.3219 42.7217 57.7905 42.6436 58.5715C42.5655 59.2743 42.2531 60.1334 42.0969 60.8362C41.9407 61.3829 41.8626 62.1638 41.4721 62.6324C41.0816 63.1791 40.5349 63.4915 40.1444 64.1162C39.6758 64.8191 39.4415 65.3657 39.2072 66.1467C38.8166 67.3962 38.1918 67.1619 37.0984 67.5524C36.3955 67.7867 36.1612 68.0991 35.6926 68.6457C35.4583 68.88 34.9897 69.4267 34.5992 69.5048C33.5839 69.7391 33.3496 68.1772 32.1781 68.8019C31.5532 69.1143 30.616 70.52 29.9912 70.3638C29.6788 69.5048 28.8978 69.7391 28.1168 69.8172C27.2577 69.8953 26.711 69.7391 26.0081 69.5048C25.3052 69.2705 24.7585 69.2705 24.0555 69.661C23.665 69.8172 23.4307 70.0515 23.0402 70.0515C22.6497 70.0515 22.3373 69.8172 21.9468 69.8172C21.1658 69.7391 20.6191 70.3638 20.3067 70.9886C19.9162 71.8477 19.76 72.16 18.8228 71.5353C17.6513 70.8324 16.2454 69.4267 16.2454 68.021C16.2454 67.24 16.3235 66.4591 16.0111 65.7562C15.6987 65.1315 15.2301 64.741 14.8396 64.1162C13.9024 62.5543 14.371 61.1486 14.2148 59.5086C14.1367 58.7277 13.7462 58.1029 13.5119 57.4C13.2776 56.6972 13.4338 55.8381 13.4338 55.0572C13.4338 54.5105 13.3557 53.9638 13.2776 53.4172C12.8871 54.5886 12.4185 55.76 11.7937 56.9315C11.247 58.2591 10.7784 59.4305 10.6222 61.0705Z" fill="white"/>
<path d="M10.6222 61.0704C10.5441 61.8514 10.2317 62.7104 10.3879 63.5695C10.466 64.2723 10.7784 64.9752 10.8565 65.678C10.8565 64.5066 10.7784 63.3352 11.3251 62.2419C11.4032 64.038 12.4185 65.5219 12.1842 67.4742C12.1061 68.4114 12.028 69.4266 11.8718 70.3638C11.7937 71.2228 11.3251 72.238 11.4032 73.0971C11.8718 72.3942 12.028 71.4571 12.5747 70.8323C12.4966 72.5504 12.8871 73.7219 14.371 74.8152C15.0739 75.3619 15.933 75.8304 16.714 76.299C17.2608 76.6895 17.5732 77.3142 18.1199 77.7047C18.1199 77.3923 18.1199 77.0019 18.1199 76.6895C18.6666 77.158 19.2133 77.5485 19.6819 78.0171C20.0724 78.4076 20.3848 79.1885 20.7753 79.4228C20.8534 78.4076 21.0096 77.7047 21.4782 76.8457C21.7125 76.4552 21.9468 75.8304 22.3373 75.7523C22.7278 75.6742 23.2745 76.1428 23.5869 76.3771C24.2899 77.0019 24.7585 77.7047 25.3052 78.4076C25.7738 78.8761 26.2424 79.8914 26.9453 80.2038C27.0234 79.8133 27.1015 79.5009 27.2577 79.1104C27.8044 79.1104 28.0387 79.8133 28.273 80.2038C28.5073 79.6571 29.5226 78.0952 29.4445 79.579C29.4445 80.4381 29.2102 81.2971 29.3664 82.1561C30.0693 81.6095 30.6941 80.2038 31.0846 79.3447C31.5532 78.3295 31.9438 76.6895 32.8029 75.9085C32.881 76.6114 33.1153 77.3142 33.3496 78.0171C33.8963 77.8609 36.005 74.5028 36.4736 76.1428C36.8641 77.4704 36.4736 79.579 36.2393 80.8285C36.8641 80.1257 37.3327 79.3447 37.8013 78.5638C38.1918 78.0171 38.9728 76.2209 39.5196 75.9866C39.6758 76.2209 39.6758 76.4552 39.6758 76.7676C41.4721 75.9866 42.7998 74.1904 43.2684 72.5504C43.5027 71.7695 43.737 70.8323 43.737 69.9733C43.737 69.0361 43.4246 68.1771 43.5027 67.318C43.737 68.0209 44.0494 68.7238 44.2837 69.4266C44.518 70.2076 44.2056 71.1447 44.518 71.9257C45.0647 71.379 45.6114 70.2076 45.9238 69.4266C46.3144 68.6457 46.783 67.8647 46.9392 66.9276C47.3297 65.0533 46.4706 63.4914 46.3144 61.6171C46.1581 59.7428 47.0173 57.9466 46.7049 56.1504C46.5487 55.2914 45.9238 54.5104 45.6114 53.6514C45.3771 53.0266 45.299 52.4019 45.1428 51.7771C44.9866 52.9485 45.0647 54.2761 45.1428 55.3695C45.2209 56.1504 45.5333 56.7752 45.5333 57.6342C45.5333 58.4152 45.5333 59.1961 45.4552 59.9771C45.1428 61.539 45.6114 63.0228 45.6114 64.5847C45.6114 65.3657 45.6114 66.0685 45.5333 66.8495C45.4552 67.4742 45.0647 68.1771 44.9085 68.8019C44.9085 68.958 44.8304 69.1142 44.8304 69.3485C44.4399 68.9581 44.3618 67.7085 44.0494 67.24C43.6589 66.6933 43.3465 66.2247 42.7998 65.9123C42.956 66.6152 43.1122 68.1771 43.1903 68.88C43.2684 69.739 42.8779 70.4419 42.5655 71.2228C42.0969 72.7066 41.2378 74.1123 39.9882 75.2057C39.3634 74.4247 39.051 75.3619 38.4261 75.5961C37.7232 75.9085 36.8641 75.5181 36.3174 75.2057C35.5364 74.7371 35.3021 74.8933 34.443 75.2057C33.7401 75.44 33.0372 75.0495 32.3343 75.3619C31.7876 75.5961 31.3189 76.0647 30.9284 76.5333C30.616 76.8457 30.0693 77.8609 29.6788 78.0171C29.3664 78.0952 28.9759 77.8609 28.7416 77.8609C28.3511 77.8609 28.0387 78.1733 27.6482 78.2514C26.9453 78.4076 26.6329 78.0171 26.0081 77.7047C25.3052 77.3923 25.3833 76.6895 24.7585 76.2209C24.2899 75.8304 23.4307 74.9714 22.8059 74.7371C22.103 74.4247 21.4782 74.8933 20.9315 75.44C20.3067 76.1428 20.1505 76.4552 19.2914 75.9085C17.9637 75.1276 16.4797 75.8304 15.3082 74.7371C14.2929 73.8 13.4338 72.7847 13.2776 71.379C12.9652 69.2704 12.7309 65.3657 11.5594 63.179C10.8565 61.9295 11.7156 57.7904 12.5747 55.76C12.6528 55.6819 12.5747 55.6819 12.5747 55.6819C12.3404 56.1504 12.1842 56.619 11.9499 57.0876C11.247 58.259 10.7784 59.4304 10.6222 61.0704Z" fill="white"/>
<path d="M42.5656 54.979C42.097 54.5885 41.7846 54.5104 41.2379 54.4324C41.8627 55.1352 42.0189 55.9162 41.4722 56.6971C41.5503 56.619 41.5503 56.6971 41.5503 56.619C41.6284 57.0876 41.1598 57.9466 40.6131 57.6343C40.3006 57.8685 40.613 57.9466 40.6912 58.1809C40.7693 58.4152 40.6912 58.8838 40.4568 59.04C40.1444 59.1962 40.0663 58.9619 39.7539 59.2743C39.5977 59.4304 39.2072 59.6647 39.1291 59.899C38.9729 60.2114 39.2072 60.68 38.9729 61.0704C38.6605 61.6171 38.4262 61.3047 38.1138 61.6171C37.8795 61.8514 37.8795 62.6324 37.6452 62.9447C37.489 63.179 37.0985 63.5695 36.8642 63.8038C36.8642 63.6476 36.7861 63.4133 36.7861 63.2571C36.1613 62.8666 35.2241 62.3981 34.9117 63.3352C34.7555 63.3352 34.2088 63.1009 34.0526 63.179C33.6621 63.2571 33.8183 63.4914 33.584 63.8038C33.0372 64.4285 32.8029 63.8819 32.4905 63.2571C31.8657 63.4133 31.7876 63.179 31.319 62.9447C31.0847 62.7885 30.538 62.7105 30.4599 62.32C29.9913 62.2419 31.0066 61.539 30.6161 61.6171C30.8504 61.0704 31.0066 60.68 30.1475 60.1333C30.2256 59.9771 30.1475 59.8209 30.2256 59.7428C29.8351 59.8209 29.3665 59.9771 28.976 60.0552C28.976 59.9771 28.976 59.899 28.976 59.7428C28.7417 59.899 28.4293 59.9771 28.1169 59.9771C28.1169 60.2895 28.1169 60.5238 28.1169 60.8362C27.8826 60.8362 27.6483 60.7581 27.4921 60.6019C27.8045 60.9143 28.195 61.539 27.8826 62.0857C27.5702 62.7104 27.0235 62.32 26.8673 61.8514C26.4768 62.32 26.633 63.2571 25.7738 63.3352C25.7738 63.2571 25.7738 63.1009 25.7738 63.0228C25.3052 62.8666 24.9147 63.3352 24.6023 62.7885C24.368 63.179 23.8994 63.7257 23.5089 63.96C23.2746 63.2571 23.5089 62.2419 22.4936 62.0857C22.2593 62.0857 22.1812 62.3981 21.8688 62.32C21.7126 62.2419 21.7907 61.8514 21.6345 61.7733C21.244 61.539 20.8535 61.6171 20.6192 61.9295C20.6973 61.7733 20.6192 61.2266 20.6192 61.0704C20.6192 60.7581 20.6192 60.3676 20.463 60.1333C20.0725 59.5085 18.9791 60.3676 18.6667 59.5085C18.5885 59.1181 18.5885 58.8057 18.198 58.5714C18.198 58.7276 18.198 58.8057 18.1199 58.9619C17.8856 58.6495 17.8856 58.1809 17.8075 57.7904C17.7294 57.3219 17.7294 57.0095 17.4951 56.619L17.3389 56.6971C17.2608 56.1504 17.1827 54.979 16.4017 55.2133C16.1674 55.2914 15.855 55.6038 15.6988 55.76C15.1521 55.0571 14.7616 54.0419 14.5273 53.1047C14.5273 53.9638 14.4492 55.0571 14.9959 55.76C15.2302 56.0724 15.6988 56.2285 16.0893 56.3066C16.3236 56.3847 16.4798 56.3066 16.636 56.5409C16.7922 56.6971 16.8703 56.9314 16.9484 57.0876C17.1046 57.5562 17.1827 58.0247 17.3389 58.4933C17.4951 58.8838 17.4951 59.5085 17.8075 59.8209C18.0418 60.0552 18.3542 60.0552 18.5885 60.2895C18.901 60.6019 18.901 60.8362 19.3696 60.7581C19.4477 61.3047 19.682 62.1638 20.2287 62.3981C20.6192 62.5543 20.7754 62.5543 21.0878 62.8666C21.3221 63.1009 21.5564 63.3352 21.6345 63.6476C22.1812 63.4133 22.4155 64.5066 22.8841 64.6628C23.2746 64.7409 23.1965 64.5066 23.587 64.4285C23.8213 64.3504 24.2118 64.5847 24.5242 64.5847C24.5242 64.4285 24.6023 64.2723 24.6804 64.1943C24.8366 64.3504 24.9928 64.6628 25.2271 64.6628C25.6957 64.7409 25.5395 64.3504 25.6957 64.1162C26.0863 63.7257 26.633 64.1162 26.9454 63.6476C26.9454 63.7257 27.0235 63.8038 27.0235 63.8819C27.4921 63.8819 27.7264 62.3981 27.8826 63.7257C28.1169 63.8038 28.2731 63.6476 28.4293 63.5695C28.4293 64.0381 28.8198 63.8819 29.0541 63.8038C29.2103 63.7257 29.2884 63.5695 29.5227 63.6476C29.6789 63.6476 29.757 63.8038 29.9132 63.8038C30.0694 63.179 30.4599 63.8038 30.6161 63.96C30.6942 64.0381 30.8504 64.1943 31.0066 64.1943C31.2409 64.1943 31.319 63.8819 31.5533 64.1162C31.7095 64.1943 31.6314 64.5066 31.7876 64.5847C31.9438 64.7409 32.1781 64.6628 32.3343 64.7409C32.7248 64.819 33.1153 64.8971 33.5059 65.0533C33.6621 64.7409 33.6621 64.5847 34.0526 64.5066C34.2088 64.5066 34.365 64.5066 34.5993 64.5066C34.8336 64.4285 34.8336 64.3504 35.0679 64.2724C35.5365 64.1162 35.4584 64.3504 35.7708 64.5066C36.0832 64.6628 36.4737 64.6628 36.7861 64.5847C37.9576 64.2723 37.6452 62.0857 39.2072 62.2419C39.4415 61.7733 39.2853 61.2266 39.5196 60.7581C39.7539 60.3676 40.2225 60.2114 40.535 59.8209C40.6912 59.6647 40.8474 59.4304 40.9255 59.2743C41.0036 59.04 40.9255 58.7276 41.0817 58.4933C41.2379 58.1028 41.7065 57.8685 41.7846 57.4C41.8627 56.7752 41.6284 56.3066 42.4875 56.4628C42.7999 56.5409 42.7999 56.619 43.0342 56.3847C43.1904 56.2285 43.2685 56.0724 43.3466 55.8381C42.9561 55.6038 42.7999 55.2914 42.5656 54.979Z" fill="white"/>
<path d="M46.0805 54.5884C46.0024 54.4322 45.8462 54.1979 45.69 54.1198C45.9243 54.276 46.0805 54.9008 45.69 55.1351C45.2214 55.1351 45.2214 54.5884 45.2214 54.276C45.2214 54.1198 45.4557 53.5732 45.7681 53.4951C45.4557 53.4951 45.1433 53.7294 45.0652 53.9636C44.909 53.6513 44.6747 53.3389 44.3623 53.0265C44.0498 52.7922 43.425 52.3236 43.0345 52.636C44.5966 52.5579 44.4404 54.4322 43.8155 55.057C43.1126 55.7598 41.9411 55.7598 40.8477 55.6036C39.1295 55.3693 37.958 54.276 37.0208 53.1827C36.7865 52.9484 36.6302 52.636 36.5521 52.3236C37.0208 52.4017 37.5675 52.4017 38.1142 52.4017C38.2704 52.4017 38.2704 52.2455 38.1142 52.2455C37.0208 52.1675 36.3959 51.3865 35.6149 50.8398C34.9901 50.2932 34.0529 49.9808 33.1938 49.6684C33.0376 49.5903 32.8033 49.5903 32.569 49.5122C32.7252 49.356 32.8814 49.356 33.1157 49.356C33.2719 49.356 33.6624 49.4341 33.7405 49.356C33.35 49.1998 33.0376 49.0436 32.569 49.1217C32.3347 49.1217 32.1785 49.1998 31.9442 49.1998C31.7099 49.2779 31.5537 49.4341 31.3975 49.4341C31.3975 49.2779 31.3975 49.1217 31.3194 48.8875C31.1632 49.1217 31.0851 49.6684 30.6946 49.6684C30.6946 49.5122 30.9289 49.2779 31.007 49.1998C30.5384 49.4341 30.3041 49.7465 29.9917 50.0589C29.8355 50.2151 29.6012 50.3713 29.5231 50.5274C29.3669 50.6836 29.2888 50.9179 29.2107 51.1522C28.742 50.5275 28.0391 50.0589 27.4924 49.4341C27.4924 49.7465 27.5705 49.9027 27.7267 50.2151C27.4924 50.2932 27.3362 49.9808 27.18 49.9027C27.1019 49.8246 26.9457 49.8246 26.8676 49.8246C26.7114 49.7465 26.6333 49.6684 26.5552 49.6684C26.3209 49.5903 25.9304 49.6684 25.6961 49.6684C25.4618 49.6684 25.1494 49.7465 24.9932 49.8246C25.2275 49.8246 25.3837 49.9027 25.5399 50.0589C25.0713 50.137 24.7589 50.137 24.3684 49.9808C24.2122 50.0589 24.4465 50.2932 24.2903 50.3713C24.1341 50.4494 23.6655 50.4494 23.5874 50.6055C23.3531 50.6836 23.5874 51.0741 23.3531 51.2303C23.1188 51.3084 22.8845 51.2303 22.7283 51.4646C22.4159 51.8551 21.791 51.9332 21.3224 52.0894C21.4786 52.1674 21.791 52.1675 22.1816 52.1675C22.0254 52.5579 21.8691 52.9484 21.5567 53.2608C20.6195 54.3541 19.3699 55.4474 17.7298 55.6817C16.6364 55.8379 15.4649 55.8379 14.762 55.1351C14.059 54.3541 14.059 52.8703 15.4649 52.5579C15.6992 52.4798 16.0897 52.5579 16.1678 52.7922C16.0897 52.4017 15.6992 52.1675 15.1525 52.2455C14.762 52.3236 14.4495 52.636 14.2152 52.9484C14.3714 52.5579 14.2933 52.0894 13.9028 51.777C14.3714 52.4017 13.6685 53.0265 13.4342 53.5732C13.4342 53.417 13.4342 53.2608 13.5123 53.0265C13.5123 52.8703 13.6685 52.7141 13.6685 52.5579C13.278 52.7922 13.1218 53.2608 12.9656 53.5732C12.7313 53.9636 12.6532 54.3541 12.5751 54.8227C12.4189 54.6665 12.6532 54.276 12.497 54.1198C12.497 54.4322 12.3408 54.7446 12.3408 55.1351C12.3408 56.2284 12.6532 57.2436 13.6685 58.0246C14.6058 58.6494 15.7773 59.0398 16.9488 59.2741C18.0422 59.5084 18.9013 59.2741 19.9166 59.1179C20.8538 58.9617 21.791 58.7274 22.494 58.1808C22.1816 58.5713 21.9473 58.9617 21.4786 59.196C22.1035 59.196 22.9626 58.6493 23.4312 58.2589C23.8998 57.8684 24.2122 57.0874 24.837 56.7751C24.9151 57.0093 24.9151 57.2436 24.7589 57.4779C25.5399 56.9313 25.8523 55.916 26.6333 55.5255C26.9457 55.7598 26.9457 56.1503 26.9457 56.4627C26.9457 56.3846 27.3362 56.0722 27.3362 55.9941C27.5705 55.6817 27.6486 55.5255 28.0391 55.2913C28.6639 54.9008 29.1325 54.9008 29.445 54.276V54.1979C29.6793 54.5884 30.0698 54.9008 30.6165 55.1351L31.1632 55.7598C31.1632 55.1351 31.9442 55.8379 32.3347 56.0722C32.3347 55.3694 33.8186 56.7751 34.2872 57.1655C35.0682 57.7903 36.5521 58.5713 37.8018 59.0398C37.0989 58.337 37.0208 58.1027 37.0208 57.556C37.8799 57.8684 38.5047 58.4932 39.3638 58.8836C40.0667 59.196 41.4725 59.8208 42.3316 59.4303C41.863 59.3522 41.3944 59.0398 41.0039 58.7274C41.1601 58.8836 41.7849 58.8055 42.0192 58.8055C42.4097 58.8055 42.7221 58.8055 43.1126 58.7274C43.8155 58.5713 44.5185 58.337 45.0652 57.9465C45.6119 57.556 46.2367 56.9313 46.3929 56.3846C46.2367 55.6817 46.3929 55.1351 46.0805 54.5884Z" fill="white"/>
<path d="M46.0805 54.5884C46.0805 54.5103 46.0024 54.5103 46.0024 54.5103C46.0024 54.5884 45.9243 54.5884 45.9243 54.6665C45.9243 54.8227 45.9243 54.9008 45.8462 54.9789C45.69 55.5256 46.0024 56.1503 45.6119 56.697C45.0652 57.478 43.7374 57.6341 42.8783 57.9465C42.644 58.0246 42.4878 58.1027 42.2535 58.1808C42.0192 58.2589 41.7849 58.1808 41.5506 58.1808C41.0039 58.1027 40.5353 58.2589 39.9886 58.0246C39.52 57.8684 39.2076 57.7122 38.739 57.6342C38.2704 57.5561 37.8799 57.2437 37.4113 57.3218C37.3332 56.8532 36.3178 57.5561 36.1616 57.0094C35.7711 56.9313 35.693 57.0875 35.693 57.3999C35.5368 57.1656 35.3025 57.2437 35.0682 57.0875C34.8339 56.9313 34.912 56.7751 34.5996 56.6189C34.2091 56.3846 33.6624 56.2284 33.2719 55.9941C33.0376 55.838 32.9595 55.6818 32.6471 55.6037C32.3347 55.5256 32.3347 55.3694 32.1004 55.2132C31.7099 54.9008 31.1632 54.8227 31.0851 54.2761C30.8508 54.198 30.6165 54.5884 30.4603 54.4322C30.3041 54.2761 30.4603 54.0418 30.3822 53.8856C30.3041 53.6513 30.226 53.417 30.0698 53.1827C29.9136 53.0265 29.9136 52.9484 29.9136 52.7141C29.9917 52.6361 29.9917 52.558 29.9917 52.4799C29.9917 52.4799 29.9917 52.4799 29.9917 52.4018C30.1479 52.0894 30.1479 51.6989 30.3822 51.4646C31.007 50.9961 31.5537 51.0741 32.2566 51.0741C32.6471 51.0741 32.9595 50.918 33.35 50.9961C33.8186 51.0741 33.8186 51.2303 34.131 51.5427C34.4434 51.8551 35.693 51.8551 35.7711 52.2456H35.693C35.693 52.558 35.4587 52.6361 35.6149 52.9484C35.693 53.1827 35.9273 53.3389 36.0835 53.5732C36.3959 53.9637 37.0208 54.198 37.4894 54.3541C38.5047 54.6665 39.3638 55.6818 40.4572 55.838C40.9258 55.9161 41.5506 55.9161 42.0192 55.9161C42.3316 55.9161 42.8783 55.7599 43.1907 55.6037C42.4878 55.838 41.7068 55.838 40.9258 55.6818C39.2076 55.4475 38.0361 54.3541 37.0989 53.2608C36.8646 53.0265 36.7084 52.7141 36.6303 52.4018C37.0989 52.4799 37.6456 52.4799 38.1923 52.4799C38.3485 52.4799 38.3485 52.3237 38.1923 52.3237C37.0989 52.2456 36.474 51.4646 35.693 50.918C35.0682 50.3713 34.131 50.0589 33.2719 49.7465C33.1157 49.6684 32.8814 49.6684 32.6471 49.5903C32.8033 49.4341 32.9595 49.4341 33.1938 49.4341C33.35 49.4341 33.7405 49.5122 33.8186 49.4341C33.4281 49.278 33.1157 49.1218 32.6471 49.1999C32.4128 49.1999 32.2566 49.278 32.0223 49.278C31.788 49.3561 31.6318 49.5122 31.4756 49.5122C31.4756 49.3561 31.4756 49.1999 31.3975 48.9656C31.2413 49.1999 31.1632 49.7465 30.7727 49.7465C30.7727 49.5903 31.007 49.3561 31.0851 49.278C30.6165 49.5122 30.3822 49.8246 30.0698 50.137C29.9136 50.2932 29.6793 50.4494 29.6012 50.6056C29.445 50.7618 29.3669 50.9961 29.2888 51.2303C28.8201 50.6056 28.1172 50.137 27.5705 49.5122C27.5705 49.8246 27.6486 49.9808 27.8048 50.2932C27.5705 50.3713 27.4143 50.0589 27.2581 49.9808C27.18 49.9027 27.0238 49.9027 26.9457 49.9027C26.7895 49.8246 26.7114 49.7465 26.6333 49.7465C26.399 49.6684 26.0085 49.7465 25.7742 49.7465C25.5399 49.7465 25.2275 49.8246 25.0713 49.9027C25.3056 49.9027 25.4618 49.9808 25.618 50.137C25.1494 50.2151 24.837 50.2151 24.4465 50.0589C24.2903 50.137 24.5246 50.3713 24.3684 50.4494C24.2122 50.5275 23.7436 50.5275 23.6655 50.6837C23.4312 50.7618 23.6655 51.1522 23.4312 51.3084C23.1969 51.3865 22.9626 51.3084 22.8064 51.5427C22.494 51.9332 21.8691 52.0113 21.4005 52.1675C21.5567 52.2456 21.8691 52.2456 22.2597 52.2456C22.1035 52.6361 21.9473 53.0265 21.6348 53.3389C20.6976 54.4322 19.448 55.5256 17.8079 55.7599C17.4174 55.838 16.9488 55.838 16.5583 55.838C16.8707 55.9161 17.1831 55.9941 17.4955 55.9161C18.0422 55.9161 18.5108 55.838 18.9794 55.7599C19.2918 55.6818 19.448 55.6818 19.6823 55.5256C19.8385 55.4475 20.0728 55.2132 20.229 55.1351C20.3852 54.6665 21.01 54.3541 21.4005 53.9637C21.7129 53.6513 21.9473 53.2608 22.2597 52.9484C22.5721 52.6361 22.9626 52.558 23.275 52.2456C23.5874 51.9332 23.7436 51.6208 24.056 51.3865C24.3684 51.0741 24.837 50.9961 25.2275 50.7618C25.4618 50.6056 25.5399 50.4494 25.8523 50.3713C26.0866 50.3713 26.399 50.2932 26.6333 50.3713C27.1019 50.4494 27.3362 50.9961 27.6486 51.2303C27.8829 51.3865 28.0391 51.4646 28.2734 51.4646C28.5858 51.4646 28.3515 51.5427 28.6639 51.777C28.8201 51.8551 28.8201 52.1675 28.8982 52.4018C28.8201 52.6361 28.742 52.7922 28.5858 53.0265C28.4296 53.4951 27.8829 53.6513 27.4924 53.9637C26.5552 54.5103 25.8523 55.3694 24.9932 55.9941C24.9932 55.9161 24.9932 55.838 24.9932 55.7599C24.5246 55.838 24.056 56.5408 23.6655 56.7751C23.4312 56.4627 23.1969 56.8532 22.9626 56.9313C22.5721 57.0094 22.6502 56.697 22.1816 57.0094C21.8691 57.2437 21.7129 57.1656 21.4786 57.3218C21.2443 57.3999 21.0881 57.6341 20.9319 57.7903C20.7757 57.8684 20.4633 58.1808 20.3071 58.1808C20.0728 58.2589 19.6823 58.0246 19.448 58.1027C18.9013 58.1808 18.5108 58.7275 17.886 58.6494C17.4174 58.5713 16.9488 58.6494 16.4802 58.5713C15.9335 58.4932 15.4649 58.4151 14.9182 58.1808C14.2152 57.9465 13.5123 57.2437 12.9656 56.7751C12.2627 55.9941 12.4189 55.057 12.9656 54.2761C13.1999 53.9637 13.9809 53.1046 14.2152 52.7922C14.2933 52.4018 14.2152 52.0894 13.9028 51.777C14.3714 52.4018 13.6685 53.0265 13.4342 53.5732C13.4342 53.417 13.4342 53.2608 13.5123 53.0265C13.5123 52.8703 13.6685 52.7142 13.6685 52.558C13.278 52.7922 13.1218 53.2608 12.9656 53.5732C12.7313 53.9637 12.6532 54.3541 12.5751 54.8227C12.4189 54.6665 12.6532 54.2761 12.497 54.1199C12.497 54.4322 12.3408 54.7446 12.3408 55.1351C12.3408 56.2284 12.6532 57.2437 13.6685 58.0246C14.6058 58.6494 15.7773 59.0399 16.9488 59.2742C18.0422 59.5084 18.9013 59.2741 19.9166 59.118C20.8538 58.9618 21.791 58.7275 22.494 58.1808C22.1816 58.5713 21.9473 58.9618 21.4786 59.1961C22.1035 59.1961 22.9626 58.6494 23.4312 58.2589C23.8998 57.8684 24.2122 57.0875 24.837 56.7751C24.9151 57.0094 24.9151 57.2437 24.7589 57.478C25.5399 56.9313 25.8523 55.9161 26.6333 55.5256C26.9457 55.7599 26.9457 56.1503 26.9457 56.4627C26.9457 56.3846 27.3362 56.0722 27.3362 55.9941C27.5705 55.6818 27.6486 55.5256 28.0391 55.2913C28.6639 54.9008 29.1325 54.9008 29.445 54.2761V54.198C29.6793 54.5884 30.0698 54.9008 30.6165 55.1351L31.1632 55.7599C31.1632 55.1351 31.9442 55.838 32.3347 56.0722C32.3347 55.3694 33.8186 56.7751 34.2872 57.1656C35.0682 57.7903 36.5521 58.5713 37.8018 59.0399C37.0989 58.337 37.0208 58.1027 37.0208 57.5561C37.8799 57.8684 38.5047 58.4932 39.3638 58.8837C40.0667 59.1961 41.4725 59.8208 42.3316 59.4303C41.863 59.3522 41.3944 59.0399 41.0039 58.7275C41.1601 58.8837 41.7849 58.8056 42.0192 58.8056C42.4097 58.8056 42.7221 58.8056 43.1126 58.7275C43.8155 58.5713 44.5185 58.337 45.0652 57.9465C45.6119 57.5561 46.2367 56.9313 46.3929 56.3846C46.2367 55.6818 46.3929 55.1351 46.0805 54.5884Z" fill="white"/>
<path d="M27.3367 51.5427C27.3367 51.4646 27.3367 51.4646 27.3367 51.5427C27.1805 51.3866 27.0243 51.3866 26.8681 51.3866H27.0243C26.79 51.3866 26.6338 51.3085 26.3994 51.3085C26.2432 51.3085 25.9308 51.1523 25.6965 51.2304C25.6965 51.3085 25.6965 51.3085 25.6965 51.3866C25.4622 51.4647 25.2279 51.4647 24.9936 51.4647C24.9155 51.4647 24.7593 51.4647 24.6812 51.4647C24.525 51.5427 24.6031 51.6208 24.6031 51.6989C24.6031 51.777 24.6812 51.777 24.525 51.9332C24.4469 52.0113 24.2126 52.0894 24.1345 52.0894C23.9002 52.1675 23.744 52.2456 23.9002 52.4799C23.744 52.558 23.5878 52.6361 23.5097 52.7923C23.3535 52.9485 23.4316 53.1046 23.3535 53.2608C23.1973 53.5732 22.6506 53.7294 22.4163 53.9637C22.182 54.198 22.1039 54.4323 21.7915 54.6666C21.4791 54.9008 21.1667 55.057 20.9324 55.2913C20.62 55.5256 20.3857 55.9161 20.0733 55.9942C19.7609 56.1504 19.3704 56.1504 18.9798 56.1504C18.6674 56.2285 18.2769 56.3066 17.9645 56.3846C17.6521 56.4627 17.2616 56.3847 16.9492 56.5408C17.1835 56.7751 18.0426 56.8532 17.9645 57.1656C18.2769 57.1656 18.5893 57.0875 18.9017 57.0094C19.0579 56.9313 19.2141 56.8532 19.3704 56.7751C19.6828 56.697 19.6047 56.8532 19.839 56.9313C20.1514 57.0094 20.5419 56.7751 20.7762 56.5408C20.9324 56.4627 21.0886 56.3066 21.2448 56.2285C21.401 56.1504 21.6353 56.2285 21.7915 56.1504C21.9477 56.0723 22.1039 55.9161 22.2601 55.838C22.4944 55.7599 22.4944 55.838 22.6506 55.838C23.1192 55.838 23.2754 55.2913 23.6659 55.2132C23.8221 55.1351 23.9002 55.2913 24.1345 55.2132C24.3688 55.1351 24.525 54.8227 24.6812 54.5885C24.9155 54.2761 25.2279 53.8856 25.5403 53.6513C25.7746 53.8075 26.0089 53.417 26.1651 53.2608C26.3213 53.0266 26.5557 52.9485 26.7119 52.7923C27.1024 52.558 27.3367 51.9332 27.3367 51.5427C27.4929 51.5427 27.4148 51.5427 27.3367 51.5427Z" fill="white"/>
<path d="M41.7069 56.3846V56.3065C41.3164 56.2284 40.9259 56.3846 40.5354 56.2284C40.1449 56.1503 39.8325 55.916 39.5201 55.8379C39.3639 55.7598 39.2077 55.6817 39.0515 55.6036C38.8953 55.5255 38.7391 55.6036 38.5048 55.5255C38.1924 55.4474 37.88 55.2913 37.6457 55.057C37.4114 54.8227 37.0209 54.6665 36.7085 54.5103C36.396 54.3541 36.0836 54.1198 35.7712 53.9636C35.4588 53.7293 35.4588 53.3389 35.0683 53.1827C34.834 53.1046 34.834 53.1827 34.6778 52.9484C34.5997 52.7922 34.5216 52.636 34.3654 52.5579C34.2092 52.4017 34.2092 52.4017 34.053 52.4017C33.8187 52.4017 33.8187 52.4798 33.6625 52.3236C33.5063 52.1674 33.272 51.5427 32.9596 51.777V51.8551C32.5691 51.8551 32.3348 51.3865 31.9443 51.6208C31.9443 51.6989 31.9443 51.777 31.9443 51.777C31.71 51.8551 32.1005 51.777 31.7881 51.8551C31.7881 51.9332 32.5691 52.0113 32.5691 52.0113V52.0893C32.5691 52.7141 32.3348 53.2608 32.6472 53.7293C32.8815 54.0417 32.8815 53.9636 33.1939 54.276C33.3501 54.4322 33.5063 54.8227 33.7406 54.9008C33.9749 54.5103 34.5997 55.4474 34.834 55.5255C34.834 55.4474 34.834 55.4474 34.834 55.3693C35.3807 55.5255 35.8493 55.9941 36.1617 56.3846C36.0836 56.3065 36.0055 56.0722 36.0055 55.916C36.2398 55.9941 36.4742 56.0722 36.7085 56.1503C36.8647 56.2284 37.099 56.3846 37.2552 56.3846C37.2552 56.3065 37.2552 56.3065 37.2552 56.2284C37.5676 56.3065 37.8019 56.4627 38.1143 56.6189C38.4267 56.7751 38.5048 56.697 38.7391 56.697C39.2858 56.6189 39.7544 57.0874 40.223 57.0874C40.1449 57.0093 40.1449 56.9313 40.1449 56.8532C40.3792 56.7751 40.5354 56.9313 40.7697 56.9313C40.9259 56.9313 41.1602 56.8532 41.3164 56.7751C41.3164 56.697 41.3164 56.697 41.2383 56.6189C41.2383 56.5408 41.6288 56.5408 41.7069 56.3846Z" fill="white"/>
<path d="M39.4409 35.6114C34.2863 35.4552 30.3031 37.5638 28.2725 37.5638C26.32 37.5638 24.5236 35.6114 18.2755 35.5333C12.0275 35.4552 9.21582 36.7047 9.21582 36.7047L9.52822 39.2038C9.99683 39.2038 10.3873 39.5162 10.4654 40.1409C10.5435 40.7657 10.934 42.1714 11.2464 43.3428C11.7151 45.139 12.1056 48.4971 17.885 48.5752C24.5236 48.8876 26.32 44.4362 26.9448 41.9371C27.5696 39.4381 29.5221 39.4381 30.3031 41.859C32.2556 47.56 34.5987 48.3409 39.3628 48.4971C44.127 48.6533 45.2204 46.4666 45.7671 45.3733C46.3138 44.3581 47.0167 41.5466 47.251 40.2971C47.4853 39.1257 48.1883 39.0476 48.1883 39.0476L48.5788 36.5485C48.5788 36.6266 44.5175 35.7676 39.4409 35.6114ZM26.2419 40.3752C25.2265 46.779 22.1025 47.9504 18.2755 47.9504C14.4486 47.9504 13.199 46.4666 12.4961 44.8266C11.4808 42.4057 11.4808 39.9847 11.8713 39.1257C12.8866 36.8609 14.3705 36.3923 19.9938 36.5485C25.6951 36.7828 26.5543 38.579 26.2419 40.3752ZM45.0642 44.9047C44.3613 46.4666 43.1117 48.0285 39.2066 48.0285C35.3016 48.0285 32.0994 46.8571 31.0841 40.4533C30.7717 38.6571 31.7089 36.8609 37.4884 36.7047C43.2679 36.5485 44.7518 36.939 45.7671 39.2819C46.1576 40.0628 46.1576 42.4838 45.0642 44.9047Z" fill="#0011AB"/>
<path d="M34.0518 36.2361C31.4745 36.7828 29.5219 37.6418 28.2723 37.6418C26.3198 37.6418 24.5235 35.6894 18.2754 35.6113C25.4607 35.7675 26.476 38.3447 28.5066 38.3447C29.8343 38.3447 31.1621 37.017 34.0518 36.2361Z" fill="#0011AB"/>
<path d="M26.8664 41.3904C26.3978 44.358 24.5234 48.8875 17.8848 48.5752C24.5234 48.8875 26.3197 44.4361 26.9445 41.9371C27.5693 39.438 29.5218 39.438 30.3028 41.859C30.3809 42.0152 30.3809 42.1713 30.459 42.3275C30.3809 42.0152 30.3028 41.7028 30.2247 41.3123C29.678 38.579 27.335 38.8913 26.8664 41.3904Z" fill="#0011AB"/>
<path d="M10.7773 25.6153C10.3868 26.0058 10.1525 26.6305 9.99634 27.1772C9.52773 28.5048 9.05913 29.7543 8.74672 31.16C8.43432 32.4877 8.35622 33.8934 8.27812 35.2991C8.12191 36.7048 8.35622 37.7981 8.59052 39.0477C8.51242 38.2667 8.59052 37.2515 8.82482 36.7829C8.66862 39.36 10.0744 41.781 10.7773 43.9677C10.1525 42.1715 10.0744 40.0629 9.84014 38.1105C9.68394 37.0953 9.60583 36.1581 9.76204 35.1429C9.84014 34.3619 10.3087 33.4248 10.1525 32.5658C10.3087 33.6591 10.4649 34.5181 10.7773 35.5334C11.0117 34.9086 10.6992 33.8153 10.7773 33.0343C10.9336 32.0972 11.1679 31.3162 11.4803 30.3791C12.1051 28.5048 12.3394 27.021 12.027 25.0686C11.7146 24.7562 11.0117 25.3029 10.7773 25.6153Z" fill="white"/>
<path d="M9.9965 30.8477C9.9965 30.4572 10.0746 30.0667 9.9965 29.6762C9.68409 30.1448 9.37169 30.7696 9.13738 31.3162C8.98118 31.2381 9.13738 29.8324 9.13738 29.5981C9.13738 29.4419 9.21549 29.2077 9.21549 29.0515C8.98118 29.7543 8.74688 30.4572 8.59068 31.2381C8.27827 32.5658 8.20017 33.9715 8.12207 35.3772C8.12207 36.7048 8.35637 37.7981 8.59068 39.0477C8.51258 38.2667 8.59068 37.2515 8.82498 36.7829C8.66878 39.36 10.0746 41.781 10.7775 43.9677C10.1527 42.1715 10.0746 40.0629 9.84029 38.1105C9.68409 37.0953 9.60599 36.1581 9.76219 35.1429C9.84029 34.3619 10.3089 33.4248 10.1527 32.5658C10.3089 33.6591 10.4651 34.5181 10.7775 35.5334C11.0118 34.9086 10.6994 33.8153 10.7775 33.0343C10.9337 32.0972 11.168 31.3162 11.4804 30.3791C11.7928 29.4419 12.0271 28.5048 12.1052 27.6458C11.8709 28.1924 11.7147 28.7391 11.3242 29.2858C11.0118 29.8324 10.4651 30.4572 9.9965 30.8477Z" fill="white"/>
<path d="M9.76219 35.143C9.84029 34.3621 10.2308 33.503 10.1527 32.7221C10.0746 33.1126 9.91839 33.5811 9.76219 33.8935C9.68409 33.6592 9.76219 33.3468 9.68409 33.0345C9.37169 33.6592 9.13738 34.4402 8.82498 35.0649C8.59068 34.4402 8.74688 33.5811 8.74688 32.9564C8.74688 32.2535 8.90308 31.5506 8.82498 30.8478C8.82498 30.8478 8.74688 30.8478 8.74688 30.9259C8.82498 30.6135 8.90308 30.223 8.90308 29.9106C8.74688 30.3011 8.66878 30.7697 8.59068 31.1602C8.27827 32.4878 8.20017 33.8935 8.12207 35.2992C8.12207 36.7049 8.35637 37.7983 8.59068 39.0478C8.51258 38.2668 8.59068 37.2516 8.82498 36.783C8.66878 39.3602 10.0746 41.7811 10.7775 43.9678C10.1527 42.1716 10.0746 40.063 9.84029 38.1106C9.76219 37.0954 9.68409 36.1583 9.76219 35.143Z" fill="white"/>
<path d="M11.48 30.4572C11.6362 29.9105 11.7924 29.442 11.8705 28.9734C11.7143 29.1296 11.6362 29.2858 11.6362 29.442C11.4019 30.1448 11.2457 31.082 10.7771 31.7067C10.699 31.1601 10.8552 30.6134 10.7771 30.0667C10.6209 30.6915 10.4647 31.3943 10.2304 32.0191C10.1523 32.2534 10.1523 32.4877 10.0742 32.722C10.2304 33.7372 10.3866 34.5962 10.699 35.5334C10.9333 34.9086 10.6209 33.8153 10.699 33.0343C10.9333 32.0972 11.2457 31.3162 11.48 30.4572Z" fill="white"/>
<path d="M50.5317 26.0837C49.7507 23.5066 49.2821 21.0856 48.9697 18.3523C48.5011 19.0552 48.0325 20.0704 47.5639 20.8513C47.2515 21.398 46.5486 23.1161 46.1581 23.1942L45.7676 23.5847C46.3924 24.0532 46.4705 26.0837 46.6267 26.8647C46.7829 28.0361 46.861 29.2075 47.0172 30.4571C47.4858 29.9104 47.4077 28.739 47.7982 28.1142C47.7201 30.6913 48.1106 33.2685 47.5639 35.7675C47.7201 35.1428 48.0325 34.2056 48.423 33.7371C48.3449 35.6894 48.0325 37.4856 47.7982 39.3599C47.642 41.3123 47.7982 43.2647 47.7982 45.139C47.7982 43.7332 47.7201 42.3275 48.0325 40.9999C48.3449 39.8285 48.8916 38.6571 49.2821 37.5637C50.0631 34.9866 50.2193 32.3313 50.2193 29.5199C50.2193 31.0818 50.3755 32.6437 50.2974 34.2837C50.8442 33.3466 50.9222 31.7066 50.9222 30.5352C51.0004 28.8171 51.0004 27.4894 50.5317 26.0837Z" fill="white"/>
<path d="M47.0174 30.3009C47.486 29.7542 47.4079 28.5828 47.7984 27.958C47.7203 30.5352 48.1108 33.1123 47.5641 35.6114C47.7203 34.9866 48.0327 34.0495 48.4232 33.5809C48.3451 35.5333 48.0327 37.3295 47.7984 39.2038C47.6422 41.1561 47.7984 43.1085 47.7984 44.9828C47.7984 43.5771 47.7203 42.1714 48.0327 40.8438C48.3451 39.6723 48.8918 38.5009 49.2823 37.4076C50.0633 34.8304 50.2195 32.1752 50.2195 29.3638C50.2195 30.9257 50.3757 32.4876 50.2976 34.1276C50.8443 33.1904 50.9224 31.5504 50.9224 30.379C50.9224 28.8952 50.9224 27.4895 50.4538 26.0838C49.9071 24.3657 49.5947 22.7257 49.2823 21.0076C48.8918 22.1009 48.5794 23.2723 48.8918 24.5219C49.2042 25.7714 49.5947 27.5676 49.048 28.8952C48.7356 28.3485 48.7356 27.4895 48.5794 26.9428C48.4232 26.318 48.1889 25.7714 47.9546 25.1466C47.6422 25.6933 47.3298 26.318 47.0955 26.8647C46.8612 26.3961 46.7831 25.7714 46.5488 25.3028C46.4707 25.1466 46.3926 25.0685 46.3145 24.9123C46.4707 25.6152 46.5488 26.3961 46.6269 26.8647C46.8612 27.958 46.8612 29.1295 47.0174 30.3009Z" fill="white"/>
<path d="M47.8767 27.9581C47.7986 30.5353 48.1891 33.1124 47.6424 35.6114C47.7986 34.9867 48.111 34.0495 48.5015 33.581C48.4234 35.5334 48.111 37.3295 47.8767 39.2038C47.7205 41.1562 47.8767 43.1086 47.8767 44.9829C47.8767 43.5772 47.7986 42.1715 48.111 40.8438C48.4234 39.6724 48.9701 38.501 49.3606 37.4076C50.1416 34.8305 50.2978 32.1753 50.2978 29.3638C50.2978 30.9257 50.454 32.4876 50.3759 34.1276C50.9226 33.1905 51.0007 31.5505 51.0007 30.3791C51.0007 28.8953 51.0007 27.4895 50.5321 26.0838C50.2197 25.1467 49.9854 24.1314 49.7511 23.1943C49.673 23.1943 49.673 23.1162 49.5949 23.1162C49.4387 23.5067 49.7511 24.1314 49.8292 24.5219C49.9073 24.9905 49.9854 25.381 50.0635 25.8495C50.2197 26.5524 50.3759 28.2705 49.9854 28.9734C49.8292 28.5829 49.3606 28.0362 49.3606 27.6457C49.2044 27.88 49.2825 28.5829 49.2825 28.9734C49.2825 29.3638 49.2825 29.8324 49.2044 30.301C49.1263 30.9257 49.1263 32.0191 48.7358 32.4876C48.8139 31.6286 48.5796 30.5353 48.4234 29.7543C48.2672 28.9734 48.1891 27.3334 48.1891 26.4743C47.7986 26.7086 47.2519 28.3486 47.1738 28.7391C47.0957 29.0514 47.0176 29.3638 46.9395 29.7543C46.9395 29.9886 47.0176 30.2229 47.0176 30.4572C47.4862 29.7543 47.4081 28.661 47.8767 27.9581Z" fill="white"/>
<path d="M10.856 21.5541C10.3874 21.5541 9.60643 21.7103 9.29403 21.7103H9.45023C8.66922 21.7103 7.88821 20.4607 7.1072 20.3045C6.40429 20.1483 5.70138 20.3826 5.07657 19.9141C5.70138 20.3826 5.85758 20.695 6.56049 21.0074C5.93568 21.3979 4.76417 21.0855 3.90505 21.3979C3.04594 21.7883 2.26493 22.1788 1.64012 22.8036C0.312404 24.2093 0 25.8493 0 27.7236C0.312404 27.1769 0.70291 26.5522 1.32772 26.2398C1.64012 26.0836 2.10873 25.8493 2.42113 25.6931C2.81164 25.5369 3.28025 25.615 3.59265 25.4588C3.20214 26.396 3.04594 26.9426 3.04594 28.036C3.04594 28.8169 2.81164 30.1445 3.20214 30.8474C2.81164 28.895 5.46708 28.1922 6.87289 28.2703C8.74732 28.4264 10.3874 28.4264 12.1057 27.4893C13.5115 26.6303 14.9954 25.4588 14.8392 23.7407C14.6049 21.8664 12.4962 21.5541 10.856 21.5541Z" fill="white"/>
<path d="M9.45023 21.7102C9.29403 20.9293 7.88821 20.4607 7.1072 20.3045C6.40429 20.1483 5.62328 20.3045 5.07657 19.8359C5.70138 20.3045 5.93568 20.695 6.63859 21.0855C5.93568 21.3978 4.76417 21.0855 3.90505 21.3978C3.04594 21.7883 2.26493 22.1788 1.64012 22.8036C0.312404 24.2093 0 25.8493 0 27.7236C0.312404 27.1769 0.70291 26.5521 1.32772 26.2397C1.64012 26.0836 2.10873 25.8493 2.42113 25.6931C2.81164 25.5369 3.28025 25.615 3.59265 25.4588C3.20214 26.3959 3.04594 26.9426 3.04594 28.0359C3.04594 28.8169 2.81164 30.1445 3.20214 30.8474C2.81164 28.895 5.46708 28.1921 6.87289 28.2702C8.74732 28.4264 10.3874 28.4264 12.1057 27.4893C13.5115 26.6302 14.9954 25.2245 14.8392 23.5064C14.8392 23.194 14.683 22.8817 14.5268 22.6474C14.2144 23.8969 13.5115 24.9121 12.2619 25.5369C11.4809 25.9274 10.6998 25.9274 9.84074 25.7712C9.45023 25.6931 9.05972 25.615 8.66922 25.4588C8.35682 25.3026 8.12251 25.1464 7.73201 25.1464C7.96631 24.5997 8.20061 24.0531 8.66922 23.5845C8.20061 23.194 7.1853 23.3502 6.56049 23.2721C7.2634 22.6474 7.73201 21.9445 8.74732 21.6321C9.21593 21.4759 9.68453 21.4759 10.1531 21.3978C10.4655 21.3197 10.6217 21.6321 10.856 21.554C10.3874 21.554 9.68453 21.7102 9.37213 21.7102H9.45023Z" fill="white"/>
<path d="M11.1685 27.6456C9.99694 27.9579 8.90352 27.7237 7.81011 27.5675C7.1853 27.4894 6.63859 27.4113 6.01378 27.4894C5.70138 27.4894 5.31087 27.4113 4.99847 27.4894C4.68606 27.5675 4.52986 27.6456 4.29556 27.7237C4.13936 27.177 4.45176 26.0837 4.60796 25.537C4.76417 24.9122 5.07657 24.3656 5.38897 23.7408C4.68606 23.6627 3.43645 23.5846 2.96784 24.1313C3.12404 22.8817 5.15467 21.9446 6.16998 21.476C6.79479 21.1637 7.4196 20.9294 8.12251 20.9294C8.51302 20.9294 8.98162 20.9294 9.37213 20.9294H9.45023C8.66922 20.8513 7.96631 20.0703 7.1853 19.836C6.48239 19.6798 5.07657 19.836 4.52986 19.4456C5.15467 19.9141 6.01378 20.5389 6.71669 20.8513C6.01378 21.2417 4.84227 21.0075 3.98315 21.3979C3.12404 21.7884 2.34303 22.1789 1.71822 22.8037C0.312404 24.2094 0 25.8494 0 27.7237C0.312404 27.177 0.70291 26.5522 1.32772 26.2398C1.64012 26.0837 2.10873 25.8494 2.42113 25.6932C2.81164 25.537 3.28024 25.6151 3.59265 25.537C3.20214 26.4741 3.04594 27.0208 3.04594 28.1141C3.04594 28.8951 2.81164 30.2227 3.20214 30.9256C2.81164 28.9732 5.46707 28.2703 6.87289 28.3484C8.74732 28.5046 10.3874 28.5046 12.1057 27.5675C12.4181 27.4113 12.6524 27.177 12.9648 27.0208C12.8867 27.0208 12.8867 27.0208 12.8086 27.0208C12.1838 27.0208 11.7152 27.4894 11.1685 27.6456Z" fill="white"/>
<path d="M49.4376 16.5561C48.8128 15.0723 47.2508 14.1352 46.0011 13.3542C45.3763 12.8857 44.7515 12.4171 44.2048 11.8704C43.8143 11.4019 43.2676 10.0742 42.7209 9.91804C42.5647 9.52757 42.3304 9.13709 42.018 8.9028C42.018 9.44947 41.8618 10.0742 41.6275 10.5428C41.4713 10.7771 40.3779 12.1828 40.1436 12.1047C39.675 12.0266 39.9093 9.83995 39.8312 9.37138C39.4407 7.88757 38.5815 6.24757 37.5662 4.99804C37.0976 4.37328 36.3166 3.9828 35.6918 3.43614C35.4575 3.20185 35.1451 2.81138 34.7546 2.73328C34.2079 2.49899 34.3641 2.57709 33.9736 2.96757C32.6459 4.13899 30.7714 6.40376 28.897 6.24757C29.1313 5.54471 29.3656 3.90471 30.5371 2.3428C27.8817 3.04566 24.3672 4.45138 23.8204 6.09138C23.6642 4.76376 23.7423 3.35804 23.3518 2.10852C23.0394 1.56185 22.6489 0.93709 22.1803 0.390423C21.6336 -0.234339 21.5555 -0.0781482 21.0869 0.468518C20.2278 1.79614 19.2906 3.43614 17.4162 2.73328C16.4789 2.4209 16.3227 2.03042 15.6198 2.88947C15.0731 3.59233 14.4483 4.29519 14.1359 5.07614C13.433 6.63804 13.2768 8.27804 12.5739 9.76185C12.2615 10.4647 11.871 11.3238 10.9338 11.0895C10.1528 10.9333 9.68416 10.0742 9.05935 9.68376C8.59074 10.2304 8.43454 11.8704 8.35644 12.5733C8.20024 13.5104 7.65353 14.4476 7.49733 15.3847C7.26302 16.7123 8.43454 20.3828 9.05935 21.6323C10.1528 23.2723 11.871 25.7714 13.2768 26.318C16.2446 27.4114 19.3687 27.8799 22.6489 27.6457C23.5861 27.5676 24.7577 27.4114 25.6168 27.2552C26.4759 27.0209 27.4131 26.7866 28.3503 26.6304C30.0685 26.2399 31.7868 25.3028 33.5831 24.9904C34.5203 24.8342 35.5356 25.0685 36.5509 25.0685C37.5662 25.0685 38.4253 25.2247 39.3626 25.2247C41.1589 25.2247 43.4238 25.7714 45.0639 24.8342C46.5479 23.9752 48.0318 22.8038 49.1252 21.4761C50.2186 20.1485 50.1405 18.1961 49.4376 16.5561Z" fill="white"/>
<path d="M44.9858 24.9123C46.4698 24.0533 47.9537 22.8818 49.0471 21.5542C50.2186 20.1485 50.1405 18.1961 49.4376 16.5561C48.8128 15.0723 47.2508 14.1352 46.0012 13.3542C45.3763 12.8857 44.7515 12.4171 44.2048 11.8704C43.8143 11.4018 43.2676 10.0742 42.7209 9.91804C42.5647 9.52756 42.3304 9.13709 42.018 8.9028C42.018 9.44947 41.8618 10.0742 41.6275 10.5428C41.4713 10.7771 40.3779 12.1828 40.1436 12.1047C39.675 12.0266 39.9093 9.83995 39.8312 9.37137C39.4407 7.88756 38.5816 6.24757 37.5662 4.99804C37.0976 4.37328 36.3166 3.9828 35.6918 3.43614C35.4575 3.20185 35.1451 2.81138 34.7546 2.73328C34.2079 2.49899 34.3641 2.57709 33.9736 2.96757C32.6459 4.13899 30.7714 6.40376 28.897 6.24756C29.1313 5.54471 29.3656 3.90471 30.5371 2.3428C27.8817 3.04566 24.3672 4.45138 23.8205 6.09137C23.6642 4.76376 23.7423 3.35804 23.3518 2.10852C23.0394 1.56185 22.6489 0.93709 22.1803 0.390423C21.6336 -0.234339 21.5555 -0.0781482 21.0869 0.468518C20.2278 1.79614 19.2906 3.43614 17.4162 2.73328C16.4789 2.4209 16.3227 2.03042 15.6198 2.88947C15.0731 3.59233 14.4483 4.29518 14.1359 5.07614C13.433 6.63804 13.2768 8.27804 12.5739 9.76185C12.2615 10.4647 11.871 11.3238 10.9338 11.0895C10.1528 10.9333 9.68416 10.0742 9.05935 9.68375C8.59074 10.2304 8.43454 11.8704 8.35644 12.5733C8.20024 13.5104 7.65353 14.4476 7.49733 15.3847C7.26302 16.7123 8.43454 20.3828 9.05935 21.6323C10.1528 23.2723 11.871 25.7714 13.2768 26.318C15.2293 27.0209 17.3381 27.4895 19.4468 27.6457C19.1344 27.5676 18.822 27.4895 18.5096 27.4114C18.5877 27.4114 18.6658 27.4114 18.7439 27.4114C18.1972 27.3333 17.8067 26.5523 17.4162 26.2399C16.9476 25.8495 16.4008 25.5371 16.0103 25.0685C15.1512 24.1314 14.995 22.9599 15.0731 21.7104C15.1512 20.4609 15.8541 19.3676 16.6352 18.4304C17.26 17.5714 17.9629 16.3218 19.0563 15.9314C18.7439 16.5561 18.822 17.4933 18.7439 18.118C19.3687 17.5714 20.2278 17.7276 21.0088 17.5714C21.8679 17.4152 22.8051 17.1028 23.6642 16.7904C24.992 16.2438 27.1007 15.619 27.9598 14.2133C28.3503 15.1504 27.8817 16.2438 27.335 17.0247C28.116 17.1028 29.2094 16.8685 30.0685 16.7123C31.0057 16.5561 32.0211 16.478 33.0364 16.5561C34.9108 16.7123 36.3947 17.8057 38.1129 18.1961C37.8786 18.5866 37.0976 18.4304 36.7071 18.6647C36.3166 18.8209 35.848 19.2114 35.5356 19.5238C36.629 19.5238 37.6443 19.6799 38.6597 19.8361C39.7531 19.9923 40.5341 19.4457 41.6275 19.3676C41.7837 21.0857 40.456 22.2571 39.2064 23.2723C38.5816 23.819 37.9567 24.3657 37.2538 24.7561C37.0976 24.8342 36.8633 24.9123 36.629 24.9904C37.5662 24.9904 38.4253 25.0685 39.4407 25.0685C41.0808 25.3028 43.4238 25.8495 44.9858 24.9123Z" fill="white"/>
<path d="M44.9858 24.9123C46.4698 24.0533 47.9537 22.8819 49.0471 21.5542C50.2186 20.1485 50.1405 18.1961 49.4376 16.5561C48.8128 15.0723 47.2508 14.1352 46.0012 13.3542C45.3763 12.8857 44.7515 12.4171 44.2048 11.8704C43.8143 11.4019 43.2676 10.0742 42.7209 9.91804C42.5647 9.52756 42.3304 9.13709 42.018 8.9028C42.018 9.44947 41.8618 10.0742 41.6275 10.5428C41.4713 10.7771 40.3779 12.1828 40.1436 12.1047C39.675 12.0266 39.9093 9.83995 39.8312 9.37137C39.4407 7.88757 38.5816 6.24757 37.5662 4.99804C37.0976 4.37328 36.3166 3.9828 35.6918 3.43614C35.4575 3.20185 35.1451 2.81138 34.7546 2.73328C34.2079 2.49899 34.3641 2.57709 33.9736 2.96757C32.6459 4.13899 30.7714 6.40376 28.897 6.24757C29.1313 5.54471 29.3656 3.90471 30.5371 2.3428C27.8817 3.04566 24.3672 4.45138 23.8205 6.09138C23.6642 4.76376 23.7423 3.35804 23.3518 2.10852C23.0394 1.56185 22.6489 0.93709 22.1803 0.390423C21.6336 -0.234339 21.5555 -0.0781482 21.0869 0.468518C20.2278 1.79614 19.2906 3.43614 17.4162 2.73328C16.4789 2.4209 16.3227 2.03042 15.6198 2.88947C15.0731 3.59233 14.4483 4.29518 14.1359 5.07614C13.433 6.63804 13.2768 8.27804 12.5739 9.76185C12.2615 10.4647 11.871 11.3238 10.9338 11.0895C10.1528 10.9333 9.68416 10.0742 9.05935 9.68376C8.59074 10.2304 8.43454 11.8704 8.35644 12.5733C8.20024 13.5104 7.65353 14.4476 7.49733 15.3847C7.26302 16.7123 8.43454 20.3828 9.05935 21.6323C10.1528 23.2723 11.871 25.7714 13.2768 26.318C13.433 26.3961 13.5892 26.3961 13.6673 26.4742C13.2768 26.0057 12.8863 25.5371 12.652 25.3028C11.9491 24.4438 11.4024 23.6628 11.09 22.6476C10.6995 21.5542 10.3871 20.3828 10.309 19.2114C10.2309 18.5866 10.2309 17.9619 10.2309 17.3371C10.2309 16.6342 10.3871 15.9314 10.3871 15.3066C10.6995 15.7752 11.0119 16.478 11.4024 16.8685C11.871 16.3999 12.0272 15.3847 12.3396 14.6819C12.7301 13.979 12.8863 13.3542 13.1206 12.4952C13.3549 11.7142 14.3702 8.43423 15.1512 8.35614C15.3074 9.05899 15.3855 9.83995 15.6198 10.4647C15.9322 11.4019 16.2446 10.9333 16.8695 10.3866C17.4943 9.83995 17.9629 9.21518 18.5096 8.59042C18.9001 8.12185 19.6811 7.02852 20.2278 6.95042C20.3059 7.49709 20.5402 8.19995 20.7745 8.66852C21.7898 8.82471 23.1956 8.19995 24.211 7.88757C25.3825 7.49709 26.554 7.2628 27.6474 6.71614C27.7255 7.57518 27.335 8.12185 27.335 8.9028C28.5065 8.9028 30.2247 8.19995 31.2401 7.65328C32.2554 7.02852 33.2707 5.77899 34.3641 5.38852C34.6765 6.09138 34.7546 6.95042 34.8327 7.73137C34.9108 8.43423 35.2232 9.68376 34.8327 10.3085C35.6918 9.91804 35.6137 8.66852 36.3166 8.35614C36.7071 9.29328 36.9414 10.0742 37.1757 11.0895C37.41 12.1828 37.2538 13.2761 37.3319 14.3695C38.191 14.4476 38.6597 13.6666 39.3626 13.3542C40.0655 13.0419 40.8465 13.6666 41.4713 14.1352C42.799 15.1504 44.1267 16.1657 44.9858 17.5714C45.845 18.899 46.0012 21.3199 44.9858 22.5695C44.5953 23.1161 43.7362 23.5847 43.1895 23.9752C42.2523 24.5999 41.4713 24.5999 40.3779 24.678C39.5969 24.7561 38.6597 24.9123 37.8786 25.2247C38.3472 25.2247 38.8159 25.3028 39.2845 25.3028C41.0808 25.3028 43.4238 25.8495 44.9858 24.9123Z" fill="white"/>
<path d="M44.2048 44.5143C43.6581 45.8419 42.4865 47.1695 39.1282 47.1695C35.7699 47.1695 32.9582 46.1543 32.021 40.5314C31.7867 38.9695 32.5677 37.4076 37.5662 37.2514C42.5646 37.0952 43.8143 37.4857 44.7515 39.4381C45.142 40.3752 45.142 42.4838 44.2048 44.5143Z" fill="white"/>
<path d="M25.4613 40.6094C24.6022 46.3103 21.7906 47.3256 18.3541 47.3256C14.9958 47.3256 13.8243 45.9979 13.2776 44.5922C12.4185 42.4837 12.4185 40.297 12.7309 39.516C13.6681 37.4856 14.9177 37.0951 19.9162 37.2513C24.9146 37.4075 25.6956 38.9694 25.4613 40.6094Z" fill="white"/>
</g>
<defs>
<clipPath id="clip0">
<rect width="51" height="82" fill="white"/>
</clipPath>
</defs>
</svg>
